<?xml version="1.0" encoding="UTF-8" standalone="no"?>
<svg
   width="512"
   height="512"
   viewBox="0 0 512 512"
   version="1.1"
   id="svg222"
   sodipodi:docname="eye-off.svg"
   inkscape:version="1.2 (dc2aeda, 2022-05-15)"
   xmlns:inkscape="http://www.inkscape.org/namespaces/inkscape"
   xmlns:sodipodi="http://sodipodi.sourceforge.net/DTD/sodipodi-0.dtd"
   xmlns="http://www.w3.org/2000/svg"
   xmlns:svg="http://www.w3.org/2000/svg"
   xmlns:rdf="http://www.w3.org/1999/02/22-rdf-syntax-ns#"
   xmlns:cc="http://creativecommons.org/ns#"
   xmlns:dc="http://purl.org/dc/elements/1.1/">
  <defs
     id="defs226" />
  <sodipodi:namedview
     id="namedview224"
     pagecolor="#505050"
     bordercolor="#ffffff"
     borderopacity="1"
     inkscape:showpageshadow="0"
     inkscape:pageopacity="0"
     inkscape:pagecheckerboard="1"
     inkscape:deskcolor="#505050"
     showgrid="false"
     inkscape:zoom="1.3378906"
     inkscape:cx="255.62628"
     inkscape:cy="241.05109"
     inkscape:window-width="1483"
     inkscape:window-height="905"
     inkscape:window-x="2055"
     inkscape:window-y="90"
     inkscape:window-maximized="0"
     inkscape:current-layer="svg222" />
  <title
     id="title210">ionicons-v5-i</title>
  <rect
     style="fill:#000000;fill-opacity:0;stroke:none;stroke-width:3.65384;stroke-linecap:round;stroke-opacity:1"
     id="rect9748"
     width="512"
     height="512"
     x="0"
     y="0" />
  <g
     id="g5243">
    <path
       d="M432,448a15.92,15.92,0,0,1-11.31-4.69l-352-352A16,16,0,0,1,91.31,68.69l352,352A16,16,0,0,1,432,448Z"
       id="path212"
       style="fill:#e5e5e5;fill-opacity:1" />
    <path
       d="M248,315.85l-51.79-51.79a2,2,0,0,0-3.39,1.69,64.11,64.11,0,0,0,53.49,53.49A2,2,0,0,0,248,315.85Z"
       id="path214"
       style="fill:#e5e5e5;fill-opacity:1" />
    <path
       d="M264,196.15,315.87,248a2,2,0,0,0,3.4-1.69,64.13,64.13,0,0,0-53.55-53.55A2,2,0,0,0,264,196.15Z"
       id="path216"
       style="fill:#e5e5e5;fill-opacity:1" />
    <path
       d="M491,273.36a32.2,32.2,0,0,0-.1-34.76c-26.46-40.92-60.79-75.68-99.27-100.53C349,110.55,302,96,255.68,96a226.54,226.54,0,0,0-71.82,11.79,4,4,0,0,0-1.56,6.63l47.24,47.24a4,4,0,0,0,3.82,1.05,96,96,0,0,1,116,116,4,4,0,0,0,1.05,3.81l67.95,68a4,4,0,0,0,5.4.24A343.81,343.81,0,0,0,491,273.36Z"
       id="path218"
       style="fill:#e5e5e5;fill-opacity:1" />
    <path
       d="M256,352a96,96,0,0,1-93.3-118.63,4,4,0,0,0-1.05-3.81L94.81,162.69a4,4,0,0,0-5.41-.23c-24.39,20.81-47,46.13-67.67,75.72a31.92,31.92,0,0,0-.64,35.54c26.41,41.33,60.39,76.14,98.28,100.65C162.06,402,207.92,416,255.68,416a238.22,238.22,0,0,0,72.64-11.55,4,4,0,0,0,1.61-6.64l-47.47-47.46a4,4,0,0,0-3.81-1.05A96,96,0,0,1,256,352Z"
       id="path220"
       style="fill:#e5e5e5;fill-opacity:1" />
  </g>
  <metadata
     id="metadata2295">
    <rdf:RDF>
      <cc:Work
         rdf:about="">
        <dc:title>ionicons-v5-i</dc:title>
      </cc:Work>
    </rdf:RDF>
  </metadata>
</svg>
