<?xml version="1.0" encoding="UTF-8" standalone="no"?>
<svg
   width="512"
   height="512"
   viewBox="0 0 512 512"
   version="1.1"
   id="svg284"
   sodipodi:docname="eye.svg"
   inkscape:version="1.2 (dc2aeda, 2022-05-15)"
   xmlns:inkscape="http://www.inkscape.org/namespaces/inkscape"
   xmlns:sodipodi="http://sodipodi.sourceforge.net/DTD/sodipodi-0.dtd"
   xmlns="http://www.w3.org/2000/svg"
   xmlns:svg="http://www.w3.org/2000/svg">
  <defs
     id="defs288" />
  <sodipodi:namedview
     id="namedview286"
     pagecolor="#505050"
     bordercolor="#ffffff"
     borderopacity="1"
     inkscape:showpageshadow="0"
     inkscape:pageopacity="0"
     inkscape:pagecheckerboard="1"
     inkscape:deskcolor="#505050"
     showgrid="false"
     inkscape:zoom="0.4609375"
     inkscape:cx="256"
     inkscape:cy="256"
     inkscape:window-width="1309"
     inkscape:window-height="456"
     inkscape:window-x="2613"
     inkscape:window-y="953"
     inkscape:window-maximized="0"
     inkscape:current-layer="svg284" />
  <title
     id="title278">ionicons-v5-i</title>
  <rect
     style="fill:#000000;fill-opacity:0;stroke:none;stroke-width:3.65384;stroke-linecap:round;stroke-opacity:1"
     id="rect9748"
     width="512"
     height="512"
     x="0"
     y="0" />
  <g
     id="g4510">
    <circle
       cx="256"
       cy="256"
       r="64"
       id="circle280"
       style="fill:#e5e5e5;fill-opacity:1" />
    <path
       d="M490.84,238.6c-26.46-40.92-60.79-75.68-99.27-100.53C349,110.55,302,96,255.66,96c-42.52,0-84.33,12.15-124.27,36.11C90.66,156.54,53.76,192.23,21.71,238.18a31.92,31.92,0,0,0-.64,35.54c26.41,41.33,60.4,76.14,98.28,100.65C162,402,207.9,416,255.66,416c46.71,0,93.81-14.43,136.2-41.72,38.46-24.77,72.72-59.66,99.08-100.92A32.2,32.2,0,0,0,490.84,238.6ZM256,352a96,96,0,1,1,96-96A96.11,96.11,0,0,1,256,352Z"
       id="path282"
       style="fill:#e5e5e5;fill-opacity:1" />
  </g>
</svg>
