<?xml version="1.0" encoding="utf-8"?>
<!-- Generator: Adobe Illustrator 16.2.0, SVG Export Plug-In . SVG Version: 6.00 Build 0)  -->
<!DOCTYPE svg PUBLIC "-//W3C//DTD SVG 1.1//EN" "http://www.w3.org/Graphics/SVG/1.1/DTD/svg11.dtd">
<svg version="1.1" id="Laag_3" xmlns="http://www.w3.org/2000/svg" xmlns:xlink="http://www.w3.org/1999/xlink" x="0px" y="0px"
	 width="512px" height="539.74px" viewBox="0 0 512 539.74" enable-background="new 0 0 512 539.74" xml:space="preserve">
<path fill="#BCBCBC" stroke="#CCCCCC" stroke-width="18" stroke-miterlimit="10" d="M433,163.04l-52.86,53.02
	c-21.52-22.53-49.649-50.45-72.31-71.74l54-54.45c19.34-20.17,44.67-24.5,71.17,2S454.83,142.37,433,163.04z"/>
<path fill="none" stroke="#CCCCCC" stroke-width="18" stroke-miterlimit="10" d="M380.14,216.06l-32.26,32.35l-32.42,32.51
	L151.5,445.37c-16.97,7.04-73.5,0-73.5,0s-6.6-53.31,0-69.33l165.87-167.23l63.96-64.49C330.49,165.61,358.62,193.53,380.14,216.06z
	"/>
<path fill="#CCCCCC" d="M413.31,254.93c0,10.44-46.56,57.77-58.18,57.77c-4.14,0-19.96-13.28-39.67-31.78
	c-22.65-21.25-50.44-49.37-71.59-72.11c-18.81-20.24-32.37-36.22-32.37-39.33c0-9.36,47.5-57.78,57.37-57.78
	c3,0,18.81,13.69,38.96,32.62c22.66,21.29,50.79,49.21,72.31,71.74C399.37,236.2,413.31,252.02,413.31,254.93z"/>
<polyline fill="#BCBCBC" stroke="#CCCCCC" stroke-width="18" stroke-miterlimit="10" points="94.144,359.764 104,419.87 
	166.728,430.097 "/>
</svg>
