<?xml version="1.0" encoding="UTF-8" standalone="no"?>
<svg
   xmlns:dc="http://purl.org/dc/elements/1.1/"
   xmlns:cc="http://creativecommons.org/ns#"
   xmlns:rdf="http://www.w3.org/1999/02/22-rdf-syntax-ns#"
   xmlns:svg="http://www.w3.org/2000/svg"
   xmlns="http://www.w3.org/2000/svg"
   xmlns:sodipodi="http://sodipodi.sourceforge.net/DTD/sodipodi-0.dtd"
   xmlns:inkscape="http://www.inkscape.org/namespaces/inkscape"
   inkscape:export-ydpi="102.4"
   inkscape:export-xdpi="102.4"
   inkscape:export-filename="/Users/jesse/src/sonoaudio/tonalenergy/images/circleslash_icon.png"
   inkscape:version="1.0 (4035a4f, 2020-05-01)"
   sodipodi:docname="folder_icon.svg"
   id="svg1437"
   height="30"
   width="30"
   version="1.0">
  <metadata
     id="metadata4595">
    <rdf:RDF>
      <cc:Work
         rdf:about="">
        <dc:format>image/svg+xml</dc:format>
        <dc:type
           rdf:resource="http://purl.org/dc/dcmitype/StillImage" />
        <dc:title />
      </cc:Work>
    </rdf:RDF>
  </metadata>
  <sodipodi:namedview
     fit-margin-bottom="0"
     fit-margin-right="0"
     fit-margin-left="0"
     fit-margin-top="0"
     inkscape:document-rotation="0"
     inkscape:pagecheckerboard="true"
     inkscape:current-layer="svg1437"
     inkscape:window-maximized="0"
     inkscape:window-y="611"
     inkscape:window-x="2127"
     inkscape:cy="26.708818"
     inkscape:cx="25.35948"
     inkscape:zoom="6.0997208"
     inkscape:snap-global="true"
     inkscape:snap-nodes="true"
     showgrid="false"
     id="namedview4593"
     inkscape:window-height="686"
     inkscape:window-width="1176"
     inkscape:pageshadow="2"
     inkscape:pageopacity="0"
     guidetolerance="10"
     gridtolerance="10"
     objecttolerance="10"
     borderopacity="1"
     bordercolor="#666666"
     pagecolor="#616161"
     inkscape:snap-bbox="false">
    <inkscape:grid
       type="xygrid"
       id="grid11889" />
  </sodipodi:namedview>
  <defs
     id="defs1440">
    <marker
       inkscape:stockid="EmptyTriangleInS"
       orient="auto"
       refY="0.0"
       refX="0.0"
       id="EmptyTriangleInS"
       style="overflow:visible"
       inkscape:isstock="true">
      <path
         id="path1125"
         d="M 5.77,0.0 L -2.88,5.0 L -2.88,-5.0 L 5.77,0.0 z "
         style="fill-rule:evenodd;fill:#cccccc;stroke:#cccccc;stroke-width:1pt;stroke-opacity:1;fill-opacity:1"
         transform="scale(-0.2) translate(-3.0,0)" />
    </marker>
    <marker
       inkscape:stockid="Arrow1Send"
       orient="auto"
       refY="0.0"
       refX="0.0"
       id="Arrow1Send"
       style="overflow:visible;"
       inkscape:isstock="true">
      <path
         id="path983"
         d="M 0.0,0.0 L 5.0,-5.0 L -12.5,0.0 L 5.0,5.0 L 0.0,0.0 z "
         style="fill-rule:evenodd;stroke:#cccccc;stroke-width:1pt;stroke-opacity:1;fill:#cccccc;fill-opacity:1"
         transform="scale(0.2) rotate(180) translate(6,0)" />
    </marker>
    <marker
       inkscape:stockid="TriangleInM"
       orient="auto"
       refY="0"
       refX="0"
       id="marker2864"
       style="overflow:visible"
       inkscape:isstock="true">
      <path
         id="path2862"
         d="M 5.77,0 -2.88,5 V -5 Z"
         style="fill:#cccccc;fill-opacity:1;fill-rule:evenodd;stroke:#cccccc;stroke-width:1pt;stroke-opacity:1"
         transform="scale(-0.4)" />
    </marker>
  </defs>
  <path
     id="path2896"
     d="M 26.692645,5.6924067 H 12.615454 c -0.162356,0 -0.248445,-0.033992 -0.354488,-0.1400795 l -1.308893,-1.3088817 -0.0102,-0.00906 C 10.658464,3.9670256 10.425554,3.8313197 9.93919,3.8313197 H 3.4241279 c -0.8018738,0 -1.4542525,0.6001448 -1.4542525,1.3379105 V 24.714416 c 0,0.774658 0.679606,1.454264 1.4542525,1.454264 H 26.692214 c 0.737766,0 1.337911,-0.652379 1.337911,-1.454264 V 7.0306791 c 0,-0.7752356 -0.562675,-1.3379099 -1.337911,-1.3379099 z M 3.4245585,4.7616819 h 6.5150621 c 0.2034284,0 0.2173874,0.011331 0.3592004,0.144725 l 1.303999,1.3040543 c 0.281553,0.2815526 0.603352,0.4126697 1.012634,0.4126697 h 14.077191 c 0.258733,0 0.407186,0.1484415 0.407186,0.4071857 V 9.4953329 A 1.3893951,1.3893951 0 0 0 26.634474,9.4153393 H 3.3663875 c -0.1631598,0 -0.3197026,0.028326 -0.4653568,0.079994 V 5.1688675 c 0,-0.25147 0.2717745,-0.4071857 0.5235278,-0.4071856 z M 27.099831,24.714053 c 0,0.251765 -0.155716,0.52354 -0.407186,0.52354 H 3.4245585 c -0.2593222,0 -0.5235278,-0.264217 -0.5235278,-0.52354 V 10.811375 c 0,-0.25658 0.2087766,-0.465357 0.4653568,-0.465357 H 26.634474 c 0.25658,0 0.465357,0.208777 0.465357,0.465357 z"
     style="fill:#e5e5e5;fill-opacity:1;stroke:none;stroke-width:0.0581702;stroke-opacity:1" />
  <rect
     style="opacity:1;fill:#000000;fill-opacity:0;stroke:none;stroke-width:0.214092;stroke-linecap:round;stroke-opacity:1"
     id="rect9748"
     width="30"
     height="30"
     x="0"
     y="0" />
</svg>
