<?xml version="1.0" encoding="UTF-8" standalone="no"?>
<svg
   xmlns:dc="http://purl.org/dc/elements/1.1/"
   xmlns:cc="http://creativecommons.org/ns#"
   xmlns:rdf="http://www.w3.org/1999/02/22-rdf-syntax-ns#"
   xmlns:svg="http://www.w3.org/2000/svg"
   xmlns="http://www.w3.org/2000/svg"
   xmlns:sodipodi="http://sodipodi.sourceforge.net/DTD/sodipodi-0.dtd"
   xmlns:inkscape="http://www.inkscape.org/namespaces/inkscape"
   inkscape:version="1.0 (4035a4f, 2020-05-01)"
   sodipodi:docname="hear-others.svg"
   xml:space="preserve"
   viewBox="0 0 540 500"
   height="500"
   width="540"
   y="0px"
   x="0px"
   id="Layer_1"
   version="1.1"><defs
     id="defs976" /><sodipodi:namedview
     fit-margin-bottom="100"
     fit-margin-right="100"
     fit-margin-top="100"
     fit-margin-left="100"
     inkscape:current-layer="g903"
     inkscape:window-maximized="0"
     inkscape:window-y="757"
     inkscape:window-x="2155"
     inkscape:cy="216.83883"
     inkscape:cx="555.25952"
     inkscape:zoom="0.50003689"
     showgrid="false"
     id="namedview974"
     inkscape:window-height="605"
     inkscape:window-width="1346"
     inkscape:pageshadow="2"
     inkscape:pageopacity="0"
     guidetolerance="10"
     gridtolerance="10"
     objecttolerance="10"
     borderopacity="1"
     bordercolor="#666666"
     pagecolor="#656565"
     inkscape:document-rotation="0"
     inkscape:pagecheckerboard="true"><inkscape:grid
       id="grid15942"
       type="xygrid" /></sodipodi:namedview><rect
     y="0"
     x="0"
     height="500"
     width="540"
     id="rect8876"
     style="fill:#000000;fill-opacity:0;stroke:none;stroke-width:22.5105;stroke-linejoin:miter;stroke-miterlimit:4;stroke-dasharray:none;stroke-opacity:1" /><metadata
     id="metadata971"><rdf:RDF><rdf:Description
         dc:language="en"
         dc:format="image/svg+xml"
         dc:date="2017-09-24"
         dc:publisher="Iconscout"
         dc:description="ios,arrow,thin,right"
         dc:title="ios,arrow,thin,right"
         about="https://iconscout.com/legal#licenses"><dc:creator><rdf:Bag><rdf:li>Benjamin J Sperry</rdf:li></rdf:Bag></dc:creator></rdf:Description><cc:Work
         rdf:about=""><dc:format>image/svg+xml</dc:format><dc:type
           rdf:resource="http://purl.org/dc/dcmitype/StillImage" /><dc:title /></cc:Work></rdf:RDF></metadata><g
     style="display:inline"
     inkscape:label="people unmuted copy (delete)"
     id="g903"
     inkscape:groupmode="layer"><g
       id="g7826"><path
         inkscape:connector-curvature="0"
         style="fill:#e5e5e5;fill-opacity:1;stroke-width:1.15015"
         id="path897"
         d="m 402.60742,338.93555 c -15.527,-5.40569 -32.31916,-5.75074 -47.84616,-11.15643 -4.7156,-1.61021 -14.0318,-3.56546 -15.98706,-8.97116 -1.84023,-5.29068 -1.84023,-11.50148 -2.18528,-17.02219 -0.23003,-4.37056 -0.34504,-8.74113 -0.34504,-13.11169 0,-2.87537 7.36095,-8.97115 8.97115,-11.61649 6.2108,-10.35134 6.78588,-24.26813 7.93603,-35.99964 10.00628,2.76036 11.27145,-15.75703 12.99667,-21.39275 1.26516,-3.91051 8.97115,-30.82397 -2.99039,-27.1435 2.87537,-5.06065 4.02552,-11.27145 4.83063,-16.90718 2.30029,-14.72189 3.22041,-30.82397 -1.26517,-45.20082 -9.3162,-29.90384 -37.95488,-46.696007 -68.20378,-47.616125 -30.70895,-1.035134 -61.53292,13.686762 -73.03441,43.475595 -5.52071,14.49186 -5.06065,30.24889 -3.22041,45.43085 0.8051,6.90089 1.95525,14.60688 5.4057,20.81768 -11.15644,-3.33543 -5.17567,20.35762 -3.91051,24.49815 1.84024,5.86576 3.45045,26.91347 13.91679,24.0381 0.92012,9.3162 1.95526,18.86243 4.48558,27.9486 1.72522,6.09578 5.29068,11.27145 9.43122,15.98706 2.07026,2.30029 3.1054,2.53032 2.99038,5.52071 -0.11501,8.97115 0.11502,18.6324 -2.18528,27.37352 -2.3003,8.74113 -21.50777,12.4216 -29.21376,14.03181 -20.70267,4.25555 -39.79513,6.2108 -57.04735,19.09246 -20.12759,14.83691 -30.59394,37.95489 -30.59394,62.9131 h 319.74118 c 0,-33.92937 -20.4726,-63.83322 -52.67679,-74.98966 -12.88165,-4.48557 12.99668,4.48558 0,0 z m -232.44493,33.12427 c 6.44083,-6.78587 14.60688,-12.76664 23.46302,-16.10207 12.07656,-4.6006 25.76332,-4.37057 38.29993,-7.59098 10.35134,-2.64534 23.233,-6.78587 31.28403,-14.26184 7.36095,-6.90089 8.16605,-17.48225 8.85614,-27.02848 0.57508,-8.05104 0.46006,-15.98706 0.46006,-24.03809 0,-5.63573 -6.55584,-8.85614 -9.77626,-13.34172 -5.17566,-7.01591 -5.40569,-17.48225 -6.44083,-25.87833 -0.46006,-3.68048 -0.57507,-8.39609 -3.68047,-10.92641 -3.45044,-2.76036 -5.98077,-4.25555 -7.70599,-8.62611 -2.3003,-5.98077 -3.1054,-12.4216 -4.94564,-18.6324 -1.15015,-4.02552 2.87537,-7.82101 4.48558,-11.15644 2.99038,-6.09578 -2.18528,-15.527 -3.22042,-21.85281 -3.22041,-18.86243 -3.1054,-39.45008 10.46635,-54.40201 27.25851,-30.133874 89.71155,-20.587645 98.68271,21.7378 2.76036,13.2267 1.03513,28.63869 -2.64534,41.52035 -1.61021,5.52071 -3.45045,9.54623 -0.23003,14.95192 4.83062,7.82101 2.76035,12.88166 0.46006,21.62279 -1.84024,7.24593 -4.14053,10.46635 -9.66125,14.95192 -4.60059,3.68048 -3.9105,12.88166 -4.7156,18.17234 -0.92012,6.44083 -1.4952,13.22671 -5.4057,18.6324 -1.49519,2.07027 -9.66124,8.5111 -9.66124,10.69638 0,12.65163 -0.57508,25.53329 1.6102,38.0699 2.99039,17.8273 17.94231,22.08285 32.89424,28.17863 15.18196,5.86576 32.77922,3.68048 47.50112,10.92641 15.18195,7.47596 29.78885,21.16272 34.15935,38.0699 H 156.2457 c 2.18528,-9.54623 7.47596,-16.79216 13.91679,-23.69305 10.58136,-11.15644 -6.78587,7.24593 0,0 z" /><path
         inkscape:connector-curvature="0"
         style="fill:#e5e5e5;fill-opacity:1;stroke-width:1.21604"
         id="path899"
         d="m 171.64918,316.33242 c 8.51231,-4.25616 17.75426,-5.229 27.1178,-6.20183 3.40492,-0.36481 4.98579,-2.6753 2.43209,-5.95862 -4.86418,-6.20183 -21.6456,-7.41788 -28.69866,-10.21478 -4.37776,-1.70245 -5.5938,-3.28332 -5.95862,-8.1475 -0.1216,-2.18888 -1.33765,-11.91723 0.36482,-13.49809 1.21604,-1.21605 8.87712,-0.72963 10.57959,-0.97284 6.93145,-0.85123 13.98451,-2.31048 20.55115,-4.86417 2.7969,-1.09445 5.47221,-2.4321 7.90429,-4.13456 2.91851,-2.18888 -2.18887,-7.53948 -3.52653,-10.45798 -4.13455,-9.12034 -5.95861,-19.09191 -6.56664,-29.06347 -1.21604,-19.57833 1.82407,-39.27826 -1.82407,-58.73497 -5.4722,-29.79309 -28.45544,-44.75045 -57.76212,-44.75045 -18.11906,0 -35.99492,6.20183 -46.08809,22.01042 -11.18762,17.38943 -10.5796,39.03503 -9.97157,58.85656 0.36481,11.30922 0.85123,22.74004 -0.72963,34.04925 -0.72963,4.86418 -1.82407,9.60676 -3.52653,14.22773 -1.33765,3.52653 -8.1475,12.28205 -5.4722,14.10612 10.09317,7.17467 27.1178,9.60675 39.27825,8.63391 0.36481,5.95863 1.45925,13.61971 -0.72963,19.21351 -3.40492,8.75553 -28.82026,11.06601 -36.48135,13.6197 -21.40238,7.17467 -37.21096,25.05052 -37.21096,48.7634 h 88.67556 c 1.58086,0 9.66108,-11.30922 11.36354,-13.13328 8.51232,-9.48515 24.9703,-17.63266 36.27951,-23.34806 10.9444,-5.47221 -17.75425,8.99873 0,0 z m -58.22264,17.02462 h -51.4646 c 8.63392,-14.34933 30.27952,-13.37649 44.50725,-18.48388 13.13328,-4.74257 21.52399,-12.76846 22.86164,-26.75298 0.12161,-1.58086 0.24321,-35.50851 -1.09444,-35.50851 -10.57959,-0.36481 -21.6456,-0.12161 -32.22519,-1.70246 8.39071,-27.1178 0.36482,-55.08683 4.86418,-82.44784 3.28332,-19.82153 15.93019,-30.76593 36.11653,-30.76593 19.33511,0 33.68444,8.99873 37.81899,28.45545 5.83701,28.21223 -2.43209,57.03249 6.56664,85.00153 -6.68824,1.70246 -13.7413,1.94567 -20.67275,2.18888 -3.40493,0.1216 -6.93146,0.24321 -10.33639,0.36481 -2.18888,0.12161 -1.45925,3.89134 -1.58085,5.71542 -1.21605,13.25488 -6.08023,34.17085 4.49936,44.87204 -11.67403,7.29627 -32.32089,17.38945 -39.86037,29.06347 z"
         sodipodi:nodetypes="ccccccccccccscccccccccsccccccccccsccccccc" /><path
         sodipodi:nodetypes="ssssssssscscscssssssssssscc"
         style="display:inline;fill:#e5e5e5;fill-opacity:1;fill-rule:nonzero;stroke:none;stroke-width:0.0901664;stroke-opacity:1"
         d="m 400.36838,100.96908 c -4.77882,0 -8.56581,-3.877154 -8.56581,-8.565797 0,-4.778817 3.87716,-8.565803 8.56581,-8.565803 32.09923,0 61.13283,12.983954 82.14153,33.99271 21.0088,21.00876 33.9927,50.04232 33.9927,82.14155 0,32.09922 -12.9839,61.13279 -33.9927,82.14155 -21.0087,21.00876 -50.0423,33.99271 -82.14153,33.99271 -4.77882,0 -8.56581,-3.87715 -8.56581,-8.56579 0,-4.77881 3.87716,-8.56582 8.56581,-8.56582 27.32043,0 52.11613,-11.09046 69.96913,-29.03356 17.9431,-17.9431 29.0335,-42.64869 29.0335,-69.96909 0,-27.32042 -11.0904,-52.11615 -29.0335,-69.96909 -17.9431,-17.94311 -42.6487,-29.03357 -69.96913,-29.03357 z m -0.23782,46.96033 c -3.87716,0 -7.12314,-3.15582 -7.12314,-7.12314 0,-3.87715 3.15582,-7.12315 7.12314,-7.12315 18.2136,0 34.71405,7.39365 46.61595,19.29562 11.902,11.90194 19.2957,28.40238 19.2957,46.61599 0,18.2136 -7.3937,34.71405 -19.2957,46.616 -11.9019,11.90197 -28.40235,19.29561 -46.61595,19.29561 -3.87716,0 -7.12314,-3.15583 -7.12314,-7.12315 0,-3.87714 3.15582,-7.12315 7.12314,-7.12315 14.33645,0 27.23025,-5.77064 36.60755,-15.14794 9.3773,-9.3773 15.1479,-22.27109 15.1479,-36.60754 0,-14.33646 -5.7706,-27.23025 -15.1479,-36.60752 -9.3773,-9.37731 -22.2711,-15.14796 -36.60755,-15.14796 z"
         id="path901"
         inkscape:connector-curvature="0" /></g></g></svg>
