<?xml version="1.0" encoding="UTF-8" standalone="no"?>
<svg
   version="1.1"
   id="Layer_1"
   x="0px"
   y="0px"
   width="470"
   height="500"
   viewBox="0 0 470 500"
   xml:space="preserve"
   sodipodi:docname="hold.svg"
   inkscape:version="1.1.1 (3bf5ae0d25, 2021-09-20)"
   xmlns:inkscape="http://www.inkscape.org/namespaces/inkscape"
   xmlns:sodipodi="http://sodipodi.sourceforge.net/DTD/sodipodi-0.dtd"
   xmlns="http://www.w3.org/2000/svg"
   xmlns:svg="http://www.w3.org/2000/svg"
   xmlns:rdf="http://www.w3.org/1999/02/22-rdf-syntax-ns#"
   xmlns:cc="http://creativecommons.org/ns#"
   xmlns:dc="http://purl.org/dc/elements/1.1/"><defs
     id="defs976" /><sodipodi:namedview
     inkscape:pagecheckerboard="true"
     inkscape:document-rotation="0"
     pagecolor="#656565"
     bordercolor="#666666"
     borderopacity="1"
     objecttolerance="10"
     gridtolerance="10"
     guidetolerance="10"
     inkscape:pageopacity="0"
     inkscape:pageshadow="2"
     inkscape:window-width="1920"
     inkscape:window-height="1007"
     id="namedview974"
     showgrid="false"
     inkscape:zoom="0.76958046"
     inkscape:cx="110.44979"
     inkscape:cy="305.36118"
     inkscape:window-x="1920"
     inkscape:window-y="0"
     inkscape:window-maximized="1"
     inkscape:current-layer="Layer_1"
     fit-margin-left="100"
     fit-margin-top="100"
     fit-margin-right="100"
     fit-margin-bottom="100"
     inkscape:snap-object-midpoints="true"><inkscape:grid
       type="xygrid"
       id="grid15942" /></sodipodi:namedview><rect
     style="fill:#000000;fill-opacity:0;stroke:none;stroke-width:21.0009;stroke-linejoin:miter;stroke-miterlimit:4;stroke-dasharray:none;stroke-opacity:1"
     id="rect8876"
     width="470"
     height="500"
     x="0"
     y="0" /><metadata
     id="metadata971"><rdf:RDF><rdf:Description
         about="https://iconscout.com/legal#licenses"
         dc:title="ios,arrow,thin,right"
         dc:description="ios,arrow,thin,right"
         dc:publisher="Iconscout"
         dc:date="2017-09-24"
         dc:format="image/svg+xml"
         dc:language="en"><dc:creator><rdf:Bag><rdf:li>Benjamin J Sperry</rdf:li></rdf:Bag></dc:creator></rdf:Description><cc:Work
         rdf:about=""><dc:format>image/svg+xml</dc:format><dc:type
           rdf:resource="http://purl.org/dc/dcmitype/StillImage" /><dc:title /></cc:Work></rdf:RDF></metadata><g
     style="fill:#e6e6e6;fill-opacity:1;stroke:#e5e5e5;stroke-width:8.33131;stroke-miterlimit:4;stroke-dasharray:none;stroke-opacity:1"
     transform="matrix(-0.60975747,0.60762666,0.60701814,0.61036873,264.37005,43.44525)"
     id="g7181"><g
       style="fill:#e6e6e6;fill-opacity:1;stroke:#e5e5e5;stroke-width:8.33131;stroke-miterlimit:4;stroke-dasharray:none;stroke-opacity:1"
       id="g7179"><path
         style="fill:#e6e6e6;fill-opacity:1;stroke:#e5e5e5;stroke-width:8.33131;stroke-miterlimit:4;stroke-dasharray:none;stroke-opacity:1"
         d="m 366.282,285.164 -19.713,-19.713 c -2.251,-2.251 -3.805,-5.08 -4.494,-8.181 -0.698,-3.116 -0.495,-6.343 0.583,-9.343 1.381,-3.828 2.808,-9.375 4.241,-16.48 2.341,-11.62 1.443,-23.667 -2.598,-34.837 l -24.398,-67.44 c -5.021,-13.91 -17.795,-23.646 -32.539,-24.801 l -15.95,-1.258 c -7.396,-0.585 -14.213,-4.306 -18.704,-10.213 -0.844,-1.112 -1.76,-2.164 -2.722,-3.126 -11.779,-11.778 -30.959,-11.763 -42.756,0.034 -2.306,2.306 -4.337,4.809 -6.081,7.491 L 113.718,9.864 C 107.356,3.503 98.898,0 89.9,0 80.9,0.008 72.446,3.514 66.089,9.87 52.96,23 52.96,44.363 66.09,57.492 l 75.968,75.967 c -7.188,0.888 -14.142,4.084 -19.648,9.591 -11.384,11.385 -12.898,28.96 -4.54,41.991 -7.536,0.708 -14.877,3.941 -20.635,9.699 -10.42,10.42 -12.571,26.025 -6.453,38.586 -6.523,0.618 -12.847,3.334 -17.833,8.167 -5.886,5.704 -9.131,13.362 -9.139,21.564 0,8.026 3.124,15.567 8.8,21.242 l 84.079,84.079 c 9.275,9.276 19.812,17.173 31.318,23.475 15.032,8.233 28.799,18.552 40.918,30.671 2.538,2.538 6.654,2.538 9.192,0 L 366.282,294.356 c 2.538,-2.538 2.538,-6.654 0,-9.192 z M 233.444,408.812 C 221.623,397.76 208.465,388.235 194.252,380.451 183.829,374.743 174.283,367.587 165.881,359.185 L 81.802,275.106 c -3.219,-3.219 -4.991,-7.495 -4.991,-12.042 0.005,-4.651 1.847,-8.999 5.187,-12.237 6.635,-6.431 17.52,-6.177 24.264,0.567 2.538,2.538 6.654,2.538 9.192,0 2.538,-2.538 2.539,-6.653 0.001,-9.192 l -9.026,-9.03 c -8.062,-8.062 -8.063,-21.179 -0.001,-29.241 8.061,-8.061 21.179,-8.061 29.24,0 2.538,2.538 6.654,2.538 9.192,0 2.538,-2.538 2.538,-6.654 0,-9.192 l -13.257,-13.257 c -8.061,-8.061 -8.062,-21.178 0,-29.24 8.035,-8.035 21.092,-8.062 29.16,-0.08 l 14.142,14.142 c 2.538,2.538 6.654,2.538 9.192,0 2.538,-2.538 2.538,-6.654 0,-9.192 L 75.282,48.3 c -8.06,-8.061 -8.061,-21.176 0,-29.237 3.904,-3.904 9.098,-6.057 14.624,-6.063 5.52,0 10.714,2.151 14.62,6.056 l 165.717,165.716 c 2.538,2.538 6.654,2.538 9.192,0 2.538,-2.538 2.538,-6.654 0,-9.192 l -68.8,-68.8 c 1.522,-2.846 3.461,-5.453 5.79,-7.782 6.728,-6.729 17.661,-6.744 24.371,-0.034 0.546,0.547 1.071,1.151 1.562,1.797 6.73,8.853 16.946,14.43 28.032,15.308 l 15.956,1.258 c 9.667,0.757 18.039,7.139 21.332,16.259 l 24.399,67.446 c 3.231,8.931 3.951,18.56 2.08,27.846 -1.288,6.39 -2.578,11.454 -3.728,14.644 -1.916,5.331 -2.275,11.061 -1.041,16.577 1.224,5.509 3.987,10.542 7.99,14.545 l 15.117,15.117 z"
         id="path7177" /></g></g><path
     id="path930"
     style="fill:none;stroke:#e6e6e6;stroke-width:14.7922;stroke-linecap:round;stroke-miterlimit:4;stroke-dasharray:none"
     d="m 173.26274,136.43348 c -6.87168,26.89627 -31.24291,46.78081 -60.25377,46.78081 -34.346258,0 -62.189408,-27.87107 -62.18941,-62.25176 -2e-6,-34.380708 27.843149,-62.251767 62.18941,-62.25177 24.87712,-2e-6 46.3426,14.621575 56.28764,35.747812"
     sodipodi:nodetypes="csssc" /><path
     id="polyline2221-3"
     style="fill:none;stroke:#e6e6e6;stroke-width:14.7922;stroke-linecap:round;stroke-linejoin:round;stroke-miterlimit:4;stroke-dasharray:none"
     d="m 177.42707,55.123515 -8.13046,39.335057 -39.29566,-8.13861" /><path
     id="polyline2221-3-3"
     style="fill:none;stroke:#e6e6e6;stroke-width:13.1806;stroke-linecap:round;stroke-linejoin:round"
     d="m 136.31258,144.89854 -32.45043,-13.07609 0.32887,-40.166838"
     sodipodi:nodetypes="ccc" /></svg>
