<?xml version="1.0" encoding="UTF-8" standalone="no"?>
<svg
   xmlns:dc="http://purl.org/dc/elements/1.1/"
   xmlns:cc="http://creativecommons.org/ns#"
   xmlns:rdf="http://www.w3.org/1999/02/22-rdf-syntax-ns#"
   xmlns:svg="http://www.w3.org/2000/svg"
   xmlns="http://www.w3.org/2000/svg"
   xmlns:sodipodi="http://sodipodi.sourceforge.net/DTD/sodipodi-0.dtd"
   xmlns:inkscape="http://www.inkscape.org/namespaces/inkscape"
   inkscape:version="1.0 (4035a4f, 2020-05-01)"
   sodipodi:docname="incoming_disallowed.svg"
   xml:space="preserve"
   viewBox="0 0 1263.3954 591.93927"
   height="591.93927"
   width="1263.3954"
   y="0px"
   x="0px"
   id="Layer_1"
   version="1.1"><defs
     id="defs976" /><sodipodi:namedview
     fit-margin-bottom="100"
     fit-margin-right="100"
     fit-margin-top="100"
     fit-margin-left="100"
     inkscape:current-layer="Layer_1"
     inkscape:window-maximized="0"
     inkscape:window-y="970"
     inkscape:window-x="2981"
     inkscape:cy="417.85893"
     inkscape:cx="465.38081"
     inkscape:zoom="0.39392809"
     showgrid="false"
     id="namedview974"
     inkscape:window-height="563"
     inkscape:window-width="815"
     inkscape:pageshadow="2"
     inkscape:pageopacity="0"
     guidetolerance="10"
     gridtolerance="10"
     objecttolerance="10"
     borderopacity="1"
     bordercolor="#666666"
     pagecolor="#ffffff"
     inkscape:document-rotation="0" /><g
     id="g1816"
     transform="translate(715.3954,43.9393)"
     style="fill:#ff5555"><path
       d="m 405.5,256 c 0,22.717 -4.883,44.362 -13.603,63.855 l 31.88,31.88 C 439.283,323.33 448,290.653 448,256 448,162.744 384,83.746 299,64 v 44.978 C 361,127.632 405.5,186.882 405.5,256 Z"
       id="path214"
       style="fill:#ff5555" /><path
       d="M 256,80.458 204.979,132.938 256,183.957 Z"
       id="path216"
       style="fill:#ff5555" /><path
       d="M 420.842,396.885 91.116,67.157 l -24,24 90.499,90.413 -8.28,10.43 H 64 v 128 h 85.334 L 256,431.543 V 280 l 94.915,94.686 C 335.795,387.443 318,397.213 299,403.022 V 448 c 31,-7.172 58.996,-22.163 82.315,-42.809 l 39.61,39.693 24,-24.043 -24.002,-24.039 z"
       id="path218"
       style="fill:#ff5555" /><path
       d="M 352.188,256 C 352.188,217.601 331,183.593 299,167.137 v 59.82 l 50.801,50.801 A 100.596,100.596 0 0 0 352.188,256 Z"
       id="path220"
       style="fill:#ff5555;stroke-width:1" /></g><metadata
     id="metadata971"><rdf:RDF><rdf:Description
         dc:language="en"
         dc:format="image/svg+xml"
         dc:date="2017-09-24"
         dc:publisher="Iconscout"
         dc:description="ios,arrow,thin,right"
         dc:title="ios,arrow,thin,right"
         about="https://iconscout.com/legal#licenses"><dc:creator><rdf:Bag><rdf:li>Benjamin J Sperry</rdf:li></rdf:Bag></dc:creator></rdf:Description><cc:Work
         rdf:about=""><dc:format>image/svg+xml</dc:format><dc:type
           rdf:resource="http://purl.org/dc/dcmitype/StillImage" /><dc:title></dc:title></cc:Work></rdf:RDF></metadata><path
     d="m 467.29999,220.79999 c 0,-1.2 0.2,-2.4 0.2,-3.6 0,-64.29999 -52.8,-117.19999 -116.8,-117.19999 -46.1,0 -85.8,27.9 -104.4,66.99999 -8.1,-4.1 -17.1,-6.4 -26.8,-6.4 -29.6,0 -54.09999,23.7 -58.89999,52 -35.2,12.2 -60.6,44.2 -60.6,83.8 0,49.8 40.1,91.6 89.59999,91.6 h 276.4 c 45,0 82,-38.9 82,-84.3 0,-45.6 -35.4,-82.8 -80.7,-82.9 z m -1.8,150.8 -3.2,0.4 h -271.9 c -40.89999,0 -74.19999,-34.9 -74.19999,-76.1 0,-31.9 20.20001,-58.4 50.2,-68.8 l 8.4,-3 1.5,-8.8 c 3.59999,-21.6 22.09999,-39.3 43.89999,-39.3 6.90001,0 13.7,1.6 19.90001,4.8 l 13.5,6.8 6.5,-13.7 C 276.69999,139 312.19999,115.7 350.5,115.7 c 55.3,0 100.9,44.09999 100.9,99.69999 0,13.3 -0.2,20.3 -0.2,20.3 l 15.2,0.1 c 36.7,0.5 65.6,30.5 65.6,67.4 0,36.9 -29.8,68.2 -66.50001,68.4 z"
     id="path1277"
     style="fill:#e6e6e6" /></svg>
