<?xml version="1.0" encoding="UTF-8" standalone="no"?>
<svg
   xmlns:dc="http://purl.org/dc/elements/1.1/"
   xmlns:cc="http://creativecommons.org/ns#"
   xmlns:rdf="http://www.w3.org/1999/02/22-rdf-syntax-ns#"
   xmlns:svg="http://www.w3.org/2000/svg"
   xmlns="http://www.w3.org/2000/svg"
   xmlns:sodipodi="http://sodipodi.sourceforge.net/DTD/sodipodi-0.dtd"
   xmlns:inkscape="http://www.inkscape.org/namespaces/inkscape"
   version="1.1"
   id="Layer_1"
   x="0px"
   y="0px"
   width="1263.3958"
   height="591.93951"
   viewBox="0 0 1263.3958 591.93951"
   xml:space="preserve"
   sodipodi:docname="incoming_allowed.svg"
   inkscape:version="1.0 (4035a4f, 2020-05-01)"><defs
     id="defs976" /><sodipodi:namedview
     fit-margin-bottom="100"
     fit-margin-right="100"
     fit-margin-top="100"
     fit-margin-left="100"
     inkscape:document-rotation="0"
     pagecolor="#ffffff"
     bordercolor="#666666"
     borderopacity="1"
     objecttolerance="10"
     gridtolerance="10"
     guidetolerance="10"
     inkscape:pageopacity="0"
     inkscape:pageshadow="2"
     inkscape:window-width="1099"
     inkscape:window-height="562"
     id="namedview974"
     showgrid="false"
     inkscape:zoom="0.39392809"
     inkscape:cx="592.69199"
     inkscape:cy="369.55846"
     inkscape:window-x="2596"
     inkscape:window-y="335"
     inkscape:window-maximized="0"
     inkscape:current-layer="Layer_1" /><metadata
     id="metadata971"><rdf:RDF><rdf:Description
         about="https://iconscout.com/legal#licenses"
         dc:title="ios,arrow,thin,right"
         dc:description="ios,arrow,thin,right"
         dc:publisher="Iconscout"
         dc:date="2017-09-24"
         dc:format="image/svg+xml"
         dc:language="en"><dc:creator><rdf:Bag><rdf:li>Benjamin J Sperry</rdf:li></rdf:Bag></dc:creator></rdf:Description><cc:Work
         rdf:about=""><dc:format>image/svg+xml</dc:format><dc:type
           rdf:resource="http://purl.org/dc/dcmitype/StillImage" /><dc:title></dc:title></cc:Work></rdf:RDF></metadata><path
     style="fill:#e6e6e6"
     d="m 625.96116,390.70903 c -3.1,-3.1 -3,-8 0,-11.3 l 66.4,-74.4 h -284.6 c -4.4,0 -8,-3.6 -8,-8 0,-4.4 3.6,-8 8,-8 h 284.6 l -66.3,-74.4 c -2.9,-3.4 -3.2,-8.1 -0.1,-11.2 3.1,-3.1 8.5,-3.3 11.4,-0.1 0,0 79.2,87 80,88 0.8,1 2.4,2.8 2.4,5.7 0,2.9 -1.6,4.9 -2.4,5.7 -0.8,0.8 -80,88 -80,88 -1.5,1.5 -3.6,2.3 -5.7,2.3 -2.1,0 -4.1,-0.8 -5.7,-2.3 z"
     id="path969" /><path
     id="path308"
     d="m 779.39571,235.93953 v 128 h 85.334 l 106.66604,111.543 V 124.39754 L 864.72971,235.93953 Z m 287.99999,64 c 0,-38.399 -21.333,-72.407 -53.3329,-88.863 v 176.636 c 31.9999,-15.365 53.3329,-49.373 53.3329,-87.773 z m -53.3329,-191.99999 v 44.97799 c 61.8639,18.654 106.6669,77.904 106.6669,147.022 0,69.119 -44.803,128.369 -106.6669,147.022 v 44.978 c 85.3329,-19.746 149.3329,-98.743 149.3329,-192 0,-93.256 -64,-172.25399 -149.3329,-191.99999 z"
     style="fill:#e6e6e6" /><path
     d="m 350.70117,100 c -46.1,0 -85.80039,27.90001 -104.40039,67 -8.1,-4.1 -17.10078,-6.40039 -26.80078,-6.40039 -29.6,0 -54.10039,23.69999 -58.90039,52 C 125.39961,224.7996 99.999999,256.80039 100,296.40039 100,346.20039 140.09962,388 189.59961,388 H 466 c 39.41279,0 72.68821,-29.83996 80.34375,-67.75196 h -16.51172 c -7.47501,29.0043 -33.45922,51.18332 -64.33203,51.35157 L 462.30078,372 H 190.40039 c -40.89999,0 -74.19922,-34.89961 -74.19922,-76.09961 0,-31.9 20.19922,-58.40078 50.19922,-68.80078 l 8.40039,-3 1.5,-8.80079 C 179.90077,193.69882 198.40117,176 220.20117,176 c 6.9,0 13.69844,1.59882 19.89844,4.79882 l 13.5,6.80079 6.5,-13.69922 c 16.6,-34.89999 52.10039,-58.20117 90.40039,-58.20117 55.3,0 100.90039,44.10117 100.90039,99.70117 0,13.3 -0.19922,20.29882 -0.19922,20.29882 l 15.19922,0.0996 c 25.41421,0.34625 47.07912,14.84447 58.00586,35.97852 h 17.45117 c -12.02146,-29.8376 -40.48605,-50.90331 -74.55664,-50.97852 0,-1.2 0.19922,-2.39961 0.19922,-3.59961 0,-64.29999 -52.79883,-117.19921 -116.79883,-117.19921 z"
     style="fill:#e6e6e6"
     id="path1277" /></svg>
