<?xml version="1.0" encoding="UTF-8" standalone="no"?>
<svg
   xmlns:dc="http://purl.org/dc/elements/1.1/"
   xmlns:cc="http://creativecommons.org/ns#"
   xmlns:rdf="http://www.w3.org/1999/02/22-rdf-syntax-ns#"
   xmlns:svg="http://www.w3.org/2000/svg"
   xmlns="http://www.w3.org/2000/svg"
   xmlns:sodipodi="http://sodipodi.sourceforge.net/DTD/sodipodi-0.dtd"
   xmlns:inkscape="http://www.inkscape.org/namespaces/inkscape"
   inkscape:version="1.0 (4035a4f, 2020-05-01)"
   sodipodi:docname="incoming_disallowed.svg"
   xml:space="preserve"
   viewBox="0 0 1264 500"
   height="500"
   width="1264"
   y="0px"
   x="0px"
   id="Layer_1"
   version="1.1"><defs
     id="defs976" /><sodipodi:namedview
     fit-margin-bottom="100"
     fit-margin-right="100"
     fit-margin-top="100"
     fit-margin-left="100"
     inkscape:current-layer="Layer_1"
     inkscape:window-maximized="0"
     inkscape:window-y="915"
     inkscape:window-x="2639"
     inkscape:cy="297.3959"
     inkscape:cx="598.4689"
     inkscape:zoom="0.43879518"
     showgrid="false"
     id="namedview974"
     inkscape:window-height="563"
     inkscape:window-width="1133"
     inkscape:pageshadow="2"
     inkscape:pageopacity="0"
     guidetolerance="10"
     gridtolerance="10"
     objecttolerance="10"
     borderopacity="1"
     bordercolor="#666666"
     pagecolor="#ffffff"
     inkscape:document-rotation="0" /><metadata
     id="metadata971"><rdf:RDF><rdf:Description
         dc:language="en"
         dc:format="image/svg+xml"
         dc:date="2017-09-24"
         dc:publisher="Iconscout"
         dc:description="ios,arrow,thin,right"
         dc:title="ios,arrow,thin,right"
         about="https://iconscout.com/legal#licenses"><dc:creator><rdf:Bag><rdf:li>Benjamin J Sperry</rdf:li></rdf:Bag></dc:creator></rdf:Description><cc:Work
         rdf:about=""><dc:format>image/svg+xml</dc:format><dc:type
           rdf:resource="http://purl.org/dc/dcmitype/StillImage" /><dc:title></dc:title></cc:Work></rdf:RDF></metadata><rect
     style="fill:#000000;fill-opacity:0;stroke:none;stroke-width:34.44;stroke-linejoin:miter;stroke-miterlimit:4;stroke-dasharray:none;stroke-opacity:1"
     id="rect8876"
     width="1264"
     height="500"
     x="0"
     y="0" /><path
     style="fill:#ff5555;fill-opacity:1;stroke-width:0.155189"
     d="m 842.78715,319.91263 c 5.27643,3.10382 6.98351,9.93217 3.72454,15.20857 -3.10378,5.2764 -9.9321,6.98348 -15.20853,3.72452 -5.12123,-3.10382 -9.46653,-7.60425 -12.57032,-12.88065 -2.94858,-5.12126 -4.65566,-11.17363 -4.65566,-17.38115 V 203.3657 c 0,-9.77692 4.03492,-18.62269 10.39767,-24.98544 6.36275,-6.36275 15.20852,-10.39766 24.98543,-10.39766 h 81.93981 l 69.83511,-70.30064 c 4.3453,-4.34528 11.3288,-4.34528 15.6741,0 2.1726,2.17265 3.2589,4.96605 3.2589,7.91464 v 57.57513 c 0,6.20756 -4.9661,11.17362 -11.1735,11.17362 -6.2076,0 -11.17366,-4.96606 -11.17366,-11.17362 v -30.72742 l -53.54025,53.8506 c -2.01749,2.32783 -5.12125,3.87972 -8.38021,3.87972 H 849.3051 c -3.56936,0 -6.82833,1.5519 -9.31135,3.87973 -2.32784,2.32784 -3.87973,5.742 -3.87973,9.31134 v 105.21823 c 0,2.32779 0.62076,4.50043 1.70708,6.36265 1.08633,2.01744 2.79341,3.72452 4.81086,4.81091 z m 7.29389,75.26672 c -4.3453,4.34535 -11.32881,4.34535 -15.6741,0 -4.34528,-4.3453 -4.34528,-11.32878 0,-15.67406 L 1063.7763,150.13586 c 4.3453,-4.3453 11.3289,-4.3453 15.6742,0 4.3452,4.34529 4.3452,11.3288 0,15.6741 z M 998.13136,277.54604 c 0,-6.20751 4.96604,-11.17356 11.17364,-11.17356 6.2076,0 11.1736,4.96605 11.1736,11.17356 v 116.8574 c 0,6.20757 -4.966,11.17356 -11.1736,11.17356 -2.9486,0 -5.742,-1.24147 -7.6042,-3.10376 l -57.88556,-47.1775 c -4.81091,-3.87966 -5.43167,-10.86315 -1.55194,-15.51885 3.87973,-4.81091 10.86328,-5.43161 15.51891,-1.55194 l 40.50435,32.90012 v -93.57904 z"
     fill-rule="nonzero"
     id="path7431" /><path
     id="path7305"
     fill-rule="nonzero"
     d="m 94.92535,254.12253 c 7.75359,6.91087 15.50092,13.44568 23.26048,19.59744 10.24241,-15.55769 21.40372,-29.81436 33.53484,-42.70463 -2.29082,-4.31423 -3.58645,-9.2406 -3.58645,-14.46035 0,-2.57828 0.31344,-5.07983 0.91263,-7.47926 -12.67359,-8.21296 -25.71734,-17.37037 -39.29699,-27.57431 -10.04457,20.71424 -15.66696,43.94892 -15.66696,68.4922 h 0.0535 v 0.006 h -0.0535 c 0,1.66517 0.0535,3.3244 0.081,4.97715 z m 22.32262,-86.31588 c 13.59264,10.25474 26.60398,19.44455 39.22024,27.66346 5.62881,-6.0048 13.63698,-9.75713 22.50747,-9.75713 7.03893,0 13.52243,2.36108 18.71733,6.33061 a 247.0531,247.0531 0 0 1 11.3586,-7.10268 c 16.0628,-9.44429 33.2986,-17.14723 51.7987,-23.01155 a 34.252853,34.252853 0 0 1 -0.1999,-3.72045 c 0,-4.70972 0.9445,-9.20224 2.661,-13.28576 -18.7935,-15.92888 -41.0584,-30.03804 -66.6865,-42.50095 -21.38476,7.96391 -40.56723,20.43922 -56.4065,36.27841 a 158.5939,158.5939 0 0 0 -22.97319,29.1055 z M 218.20951,96.11106 c 20.2674,10.90578 38.3401,22.93537 54.1658,36.20872 5.29,-4.63948 12.016,-7.68998 19.4186,-8.39181 a 949.32277,949.32277 0 0 0 4.7161,-24.81775 c -14.2626,-4.24939 -29.3609,-6.54724 -44.9959,-6.54724 v 0.0324 0 -0.0324 c -11.4164,0 -22.5523,1.23185 -33.2927,3.54808 z m 93.0738,8.23188 a 964.74646,964.74646 0 0 1 -4.1159,21.60787 c 10.319,3.8739 18.2888,12.5526 21.1798,23.31143 13.9693,-1.0271 28.4999,-1.22539 43.6302,-0.56191 -2.9164,-3.45786 -5.9664,-6.80226 -9.1632,-9.99917 -14.6268,-14.62029 -32.1058,-26.37487 -51.5309,-34.35822 z m 72.6723,60.57316 c -19.3359,-1.44799 -37.6695,-1.48689 -55.0465,-0.17831 -1.4231,7.43441 -5.2456,14.02003 -10.6188,18.92101 a 209.44989,209.44989 0 0 1 12.4121,21.90719 c 5.3922,11.03384 9.8334,22.62254 13.3371,34.76668 1.066,-0.10856 2.1505,-0.1729 3.2548,-0.1729 13.841,0 25.5579,9.11957 29.4566,21.68459 10.2039,0.35769 20.7526,0.54894 31.7032,0.6127 0.3241,-4.11594 0.4971,-8.26376 0.4971,-12.45642 h -0.053 v -0.0122 h 0.053 c 0,-31.32664 -9.1832,-60.5283 -24.9966,-85.07158 z m 22.5206,112.95222 c -9.9745,-0.0702 -19.6234,-0.24204 -28.9917,-0.55487 -2.5015,12.01609 -12.0029,21.47334 -24.0515,23.91114 0.5294,14.40308 0.053,29.45669 -1.5253,45.17484 8.8322,-0.932 17.7919,-2.21466 26.9044,-3.82905 13.7396,-18.84428 23.3946,-40.8417 27.664,-64.70151 z m -18.7745,78.62592 0.053,0.15991 -0.1836,0.0318 a 172.50964,172.50964 0 0 1 -13.7905,15.56418 c -31.2629,31.26289 -74.4846,50.60532 -122.2372,50.6118 v 0.0313 0 -0.0324 c -47.7461,0 -90.96773,-19.34837 -122.24356,-50.61773 C 98.03687,340.9748 78.69508,297.75258 78.6885,250.00001 H 78.635 v -0.006 h 0.0535 c 0,-47.75259 19.34837,-90.97428 50.61777,-122.24364 31.2688,-31.26937 74.48464,-50.6118 122.23004,-50.6118 v -0.0318 0 0.0324 c 47.7585,0 90.9808,19.3419 122.2501,50.61721 31.2688,31.26288 50.6112,74.48456 50.6112,122.23065 h 0.053 v 0.0122 h -0.053 c 0,40.18417 -13.7005,77.15198 -36.6738,106.49415 z m -24.1923,4.0846 a 375.37717,375.37717 0 0 1 -13.4651,1.55064 468.11495,468.11495 0 0 1 -1.8569,12.07334 157.85153,157.85153 0 0 0 14.6268,-12.90972 z m -33.2602,25.73624 c 1.5764,-7.83639 2.9165,-15.5069 4.0204,-23.01804 -28.1994,1.46798 -55.1486,-0.56785 -81.2297,-6.07504 -5.0923,6.04965 -12.7185,9.90355 -21.2442,9.90355 -0.6311,0 -1.2568,-0.0249 -1.8694,-0.0631 -4.92,12.55204 -9.6874,24.76641 -14.0519,36.30381 a 157.71105,157.71105 0 0 0 35.6343,4.06515 v -0.032 0 0.032 c 28.6723,0 55.5637,-7.68943 78.7281,-21.11622 z m -129.2631,12.81408 c 4.7799,-12.70548 9.5528,-24.97766 14.4031,-37.36385 -6.1069,-4.4736 -10.319,-11.38394 -11.2056,-19.30353 -27.9764,-11.08462 -55.09792,-26.464 -81.91259,-46.16358 -4.30123,7.24262 -8.41777,14.75374 -12.36123,22.52637 7.7088,15.81325 18.00243,30.15907 30.31183,42.46853 16.91122,16.91113 37.63196,29.99319 60.76449,37.83606 z m -98.70852,-98.90628 a 393.94267,393.94267 0 0 1 7.63862,-13.32466 522.1819,522.1819 0 0 1 -13.74554,-11.21213 156.21229,156.21229 0 0 0 6.10692,24.53679 z m 104.97592,-95.99626 a 30.675584,30.675584 0 0 1 2.5717,12.32891 c 0,2.94837 -0.4213,5.80704 -1.1935,8.50634 16.9435,8.10436 33.5986,14.53709 50.4713,19.6169 6.1323,-18.36612 12.0291,-37.44002 17.5173,-57.39515 a 34.586754,34.586754 0 0 1 -10.6956,-10.74638 c -17.5681,5.5261 -33.8918,12.79463 -49.0671,21.71592 a 225.14267,225.14267 0 0 0 -9.6041,5.97291 z m -6.5284,34.19827 c -5.5775,5.55203 -13.2604,8.97857 -21.74775,8.97857 a 30.783103,30.783103 0 0 1 -16.80848,-4.97068 c -11.45532,12.25867 -21.99741,25.85726 -31.70378,40.6942 25.14307,18.58279 50.4713,33.17714 76.46261,43.80251 4.5627,-9.10661 13.9881,-15.36049 24.8685,-15.36049 1.047,0 2.0748,0.0578 3.0953,0.17289 6.4645,-16.8922 12.9416,-34.30687 19.2209,-52.42446 -17.8745,-5.40509 -35.4875,-12.2522 -53.3873,-20.89307 z m 104.0499,-47.14636 a 34.589455,34.589455 0 0 1 -9.6805,1.37234 c -1.302,0 -2.5906,-0.0644 -3.8544,-0.21072 -5.4116,19.59098 -11.1931,38.32666 -17.2109,56.36753 14.7731,3.72638 29.8461,6.52131 45.5768,8.57658 2.2843,-4.63948 5.7048,-8.609 9.8974,-11.5698 -3.3054,-11.72918 -7.5494,-22.87755 -12.7183,-33.45808 -3.5606,-7.28745 -7.5684,-14.30097 -12.0101,-21.07785 z m 33.1457,109.11023 c -11.9783,-3.81608 -20.785,-14.74779 -21.4354,-27.82987 -16.3433,-2.17576 -32.0416,-5.12413 -47.4463,-9.06771 -6.4965,18.74865 -13.1907,36.75062 -19.8655,54.19122 6.33,5.09225 10.3888,12.90972 10.3888,21.66515 0,1.1546 -0.077,2.29083 -0.2107,3.40762 24.6388,4.90044 50.1525,6.55372 76.891,4.94529 1.7613,-16.56588 2.3097,-32.32834 1.6781,-47.31225 z"
     style="fill:#e6e6e6;fill-opacity:1;stroke-width:0.540292" /></svg>
