<?xml version="1.0" encoding="utf-8"?>
<!DOCTYPE svg PUBLIC "-//W3C//DTD SVG 1.1//EN" "http://www.w3.org/Graphics/SVG/1.1/DTD/svg11.dtd">
<svg version="1.1"
	 id="svg1437" xmlns:dc="http://purl.org/dc/elements/1.1/" xmlns:cc="http://creativecommons.org/ns#" xmlns:rdf="http://www.w3.org/1999/02/22-rdf-syntax-ns#" xmlns:svg="http://www.w3.org/2000/svg" xmlns:sodipodi="http://sodipodi.sourceforge.net/DTD/sodipodi-0.dtd" xmlns:inkscape="http://www.inkscape.org/namespaces/inkscape" sodipodi:docname="folder_icon.svg" inkscape:version="1.0 (4035a4f, 2020-05-01)" inkscape:export-filename="/Users/jesse/src/sonoaudio/tonalenergy/images/circleslash_icon.png" inkscape:export-xdpi="102.4" inkscape:export-ydpi="102.4"
	 xmlns="http://www.w3.org/2000/svg" xmlns:xlink="http://www.w3.org/1999/xlink" x="0px" y="0px" width="30px" height="30px"
	 viewBox="0 0 30 30" enable-background="new 0 0 30 30" xml:space="preserve">
<path fill="#FF5555" d="M9.715,16.508c0-0.75,0-0.75-0.734-0.75H8.95c-0.733,0-0.733,0-0.733,0.75l0,0c0,0.75,0,0.75,0.733,0.75
	h0.031C9.715,17.258,9.715,17.258,9.715,16.508L9.715,16.508z"/>
<path fill="#FF5555" d="M12.694,16.508c0-0.75,0-0.75-0.734-0.75h-0.031c-0.734,0-0.734,0-0.734,0.75l0,0c0,0.75,0,0.75,0.734,0.75
	h0.031C12.694,17.258,12.694,17.258,12.694,16.508L12.694,16.508z"/>
<path fill="#FF5555" d="M15.736,16.508c0-0.75,0-0.75-0.735-0.75h-0.03c-0.735,0-0.735,0-0.735,0.75l0,0c0,0.75,0,0.75,0.735,0.75
	h0.03C15.736,17.258,15.736,17.258,15.736,16.508L15.736,16.508z"/>
<path fill="#FF5555" d="M21.736,16.508c0-0.75,0-0.75-0.735-0.75h-0.03c-0.734,0-0.734,0-0.734,0.75l0,0c0,0.75,0,0.75,0.734,0.75
	h0.03C21.736,17.258,21.736,17.258,21.736,16.508L21.736,16.508z"/>
<path fill="#FF5555" d="M8.231,13.492c0-0.75,0-0.75-0.735-0.75h-0.03c-0.735,0-0.735,0-0.735,0.75l0,0c0,0.75,0,0.75,0.735,0.75
	h0.03C8.231,14.242,8.231,14.242,8.231,13.492L8.231,13.492z"/>
<path fill="#FF5555" d="M11.21,13.492c0-0.75,0-0.75-0.734-0.75h-0.031c-0.734,0-0.734,0-0.734,0.75l0,0c0,0.75,0,0.75,0.734,0.75
	h0.031C11.21,14.242,11.21,14.242,11.21,13.492L11.21,13.492z"/>
<path fill="#FF5555" d="M14.252,13.844l-0.83-0.969l-0.156-0.133c-0.514,0-0.514,0-0.514,0.75l0,0c0,0.75,0,0.75,0.735,0.75h0.03
	c0.735,0,0.436-0.75,0.436-0.75L14.252,13.844z"/>
<path fill="#FF5555" d="M20.252,13.492c0-0.75,0-0.75-0.734-0.75h-0.031c-0.733,0-0.733,0-0.733,0.75l0,0c0,0.75,0,0.75,0.733,0.75
	h0.031C20.252,14.242,20.252,14.242,20.252,13.492L20.252,13.492z"/>
<path fill="#FF5555" d="M23.248,13.492c0-0.75,0-0.75-0.734-0.75h-0.031c-0.733,0-0.733,0-0.733,0.75l0,0c0,0.75,0,0.75,0.733,0.75
	h0.031C23.248,14.242,23.248,14.242,23.248,13.492L23.248,13.492z"/>
<path fill="#FF5555" d="M6.744,10.508c0-0.75,0-0.75-0.734-0.75h-0.03c-0.735,0-0.735,0-0.735,0.75l0,0c0,0.75,0,0.75,0.735,0.75
	h0.03C6.744,11.258,6.744,11.258,6.744,10.508L6.744,10.508z"/>
<path fill="#FF5555" d="M9.723,10.508c0-0.75,0-0.75-0.734-0.75H8.957c-0.734,0-0.734,0-0.734,0.75l0,0c0,0.75,0,0.75,0.734,0.75
	h0.031C9.723,11.258,9.723,11.258,9.723,10.508L9.723,10.508z"/>
<path fill="#FF5555" d="M15.764,10.508c0-0.75,0-0.75-0.734-0.75H15c-0.735,0-0.735,0-0.735,0.75l0,0c0,0.75,0,0.75,0.735,0.75h0.03
	C15.764,11.258,15.764,11.258,15.764,10.508L15.764,10.508z"/>
<path fill="#FF5555" d="M18.764,10.508c0-0.75,0-0.75-0.734-0.75H18c-0.734,0-0.734,0-0.734,0.75l0,0c0,0.75,0,0.75,0.734,0.75
	h0.029C18.764,11.258,18.764,11.258,18.764,10.508L18.764,10.508z"/>
<path fill="#FF5555" d="M21.76,10.508c0-0.75,0-0.75-0.734-0.75h-0.029c-0.734,0-0.734,0-0.734,0.75l0,0c0,0.75,0,0.75,0.734,0.75
	h0.029C21.76,11.258,21.76,11.258,21.76,10.508L21.76,10.508z"/>
<path fill="#FF5555" d="M24.791,10.508c0-0.75,0-0.75-0.734-0.75h-0.029c-0.735,0-0.735,0-0.735,0.75l0,0c0,0.75,0,0.75,0.735,0.75
	h0.029C24.791,11.258,24.791,11.258,24.791,10.508L24.791,10.508z"/>
<polygon fill="#262626" points="274.167,176.833 275.5,176.833 275.5,176.833 "/>
<rect x="-0.52" y="14.492" transform="matrix(0.7071 0.7071 -0.7071 0.7071 14.9968 -6.2032)" fill="#FF5555" width="31.012" height="1.016"/>
<g>
	<path fill="#FF5555" d="M12.751,10.614c0-0.036,0-0.065,0-0.106c0-0.75,0-0.75-0.733-0.75h-0.03c-0.035,0-0.061,0-0.092,0
		L12.751,10.614z"/>
	<path fill="#FF5555" d="M11.254,10.555c0.001,0.688,0.02,0.703,0.704,0.703L11.254,10.555z"/>
</g>
<path fill="#FF5555" d="M16.378,14.241c0.037,0,0.067,0,0.108,0h0.031c0.734,0,0.734,0,0.734-0.75s0-0.75-0.734-0.75h-0.031
	c-0.733,0-0.733,0-0.733,0.75c0,0.047,0.001,0.083,0.001,0.125L16.378,14.241z"/>
<g>
	<path fill="#FF5555" d="M22.393,20.24h0.09c1,0,1,0,1-0.75s0-0.75-1-0.75h-1.59L22.393,20.24z"/>
	<path fill="#FF5555" d="M19.456,18.74H7.545c-1,0-1,0-1,0.75s0,0.75,1,0.75h13.411L19.456,18.74z"/>
</g>
<g>
	<path fill="#FF5555" d="M23.166,22.465H3.424c-0.259,0-0.523-0.266-0.523-0.523V8.039c0-0.256,0.209-0.465,0.466-0.465h4.907
		L7.305,6.605h-3.96c-0.688,0-1.374,0.576-1.374,1.419v13.917c0,0.773,0.679,1.453,1.454,1.453h20.67L23.166,22.465z"/>
	<path fill="#FF5555" d="M26.641,6.605H8.742L9.71,7.574h16.924c0.256,0,0.465,0.208,0.465,0.465v13.902
		c0,0.252-0.156,0.523-0.406,0.523h-2.092l0.93,0.93h1.16c0.738,0,1.338-0.652,1.338-1.453V8.024
		C28.029,7.181,27.422,6.605,26.641,6.605z"/>
</g>
</svg>
