<?xml version="1.0" encoding="utf-8"?>
<!DOCTYPE svg PUBLIC "-//W3C//DTD SVG 1.1//EN" "http://www.w3.org/Graphics/SVG/1.1/DTD/svg11.dtd">
<svg version="1.1"
	 id="svg1437" xmlns:dc="http://purl.org/dc/elements/1.1/" xmlns:cc="http://creativecommons.org/ns#" xmlns:rdf="http://www.w3.org/1999/02/22-rdf-syntax-ns#" xmlns:svg="http://www.w3.org/2000/svg" xmlns:sodipodi="http://sodipodi.sourceforge.net/DTD/sodipodi-0.dtd" xmlns:inkscape="http://www.inkscape.org/namespaces/inkscape" sodipodi:docname="folder_icon.svg" inkscape:version="1.0 (4035a4f, 2020-05-01)" inkscape:export-filename="/Users/jesse/src/sonoaudio/tonalenergy/images/circleslash_icon.png" inkscape:export-xdpi="102.4" inkscape:export-ydpi="102.4"
	 xmlns="http://www.w3.org/2000/svg" xmlns:xlink="http://www.w3.org/1999/xlink" x="0px" y="0px" width="30px" height="30px"
	 viewBox="0 0 30 30" enable-background="new 0 0 30 30" xml:space="preserve">
<path id="path2896" fill="#E5E5E5" d="M1.97,8.024v13.918c0,0.773,0.679,1.453,1.454,1.453h23.267c0.738,0,1.338-0.652,1.338-1.453
	V8.024c0-0.843-0.607-1.419-1.389-1.419H3.344C2.656,6.605,1.97,7.181,1.97,8.024z M27.1,21.942c0,0.251-0.156,0.523-0.406,0.523
	H3.424c-0.259,0-0.523-0.266-0.523-0.523V8.039c0-0.256,0.209-0.465,0.466-0.465h23.268c0.256,0,0.465,0.208,0.465,0.465V21.942z"/>
<path fill="#E5E5E5" d="M23.482,19.49c0-0.75,0-0.75-1-0.75H7.545c-1,0-1,0-1,0.75l0,0c0,0.75,0,0.75,1,0.75h14.937
	C23.482,20.24,23.482,20.24,23.482,19.49L23.482,19.49z"/>
<path fill="#E5E5E5" d="M9.715,16.508c0-0.75,0-0.75-0.734-0.75H8.95c-0.734,0-0.734,0-0.734,0.75l0,0c0,0.75,0,0.75,0.734,0.75
	h0.031C9.715,17.258,9.715,17.258,9.715,16.508L9.715,16.508z"/>
<path fill="#E5E5E5" d="M12.694,16.508c0-0.75,0-0.75-0.734-0.75h-0.031c-0.734,0-0.734,0-0.734,0.75l0,0c0,0.75,0,0.75,0.734,0.75
	h0.031C12.694,17.258,12.694,17.258,12.694,16.508L12.694,16.508z"/>
<path fill="#E5E5E5" d="M15.736,16.508c0-0.75,0-0.75-0.735-0.75h-0.03c-0.735,0-0.735,0-0.735,0.75l0,0c0,0.75,0,0.75,0.735,0.75
	h0.03C15.736,17.258,15.736,17.258,15.736,16.508L15.736,16.508z"/>
<path fill="#E5E5E5" d="M18.736,16.508c0-0.75,0-0.75-0.735-0.75h-0.03c-0.734,0-0.734,0-0.734,0.75l0,0c0,0.75,0,0.75,0.734,0.75
	h0.03C18.736,17.258,18.736,17.258,18.736,16.508L18.736,16.508z"/>
<path fill="#E5E5E5" d="M21.736,16.508c0-0.75,0-0.75-0.735-0.75h-0.03c-0.734,0-0.734,0-0.734,0.75l0,0c0,0.75,0,0.75,0.734,0.75
	h0.03C21.736,17.258,21.736,17.258,21.736,16.508L21.736,16.508z"/>
<path fill="#E5E5E5" d="M8.231,13.492c0-0.75,0-0.75-0.735-0.75h-0.03c-0.735,0-0.735,0-0.735,0.75l0,0c0,0.75,0,0.75,0.735,0.75
	h0.03C8.231,14.242,8.231,14.242,8.231,13.492L8.231,13.492z"/>
<path fill="#E5E5E5" d="M11.21,13.492c0-0.75,0-0.75-0.734-0.75h-0.031c-0.734,0-0.734,0-0.734,0.75l0,0c0,0.75,0,0.75,0.734,0.75
	h0.031C11.21,14.242,11.21,14.242,11.21,13.492L11.21,13.492z"/>
<path fill="#E5E5E5" d="M14.252,13.492c0-0.75,0-0.75-0.735-0.75h-0.03c-0.735,0-0.735,0-0.735,0.75l0,0c0,0.75,0,0.75,0.735,0.75
	h0.03C14.252,14.242,14.252,14.242,14.252,13.492L14.252,13.492z"/>
<path fill="#E5E5E5" d="M17.252,13.492c0-0.75,0-0.75-0.735-0.75h-0.03c-0.734,0-0.734,0-0.734,0.75l0,0c0,0.75,0,0.75,0.734,0.75
	h0.03C17.252,14.242,17.252,14.242,17.252,13.492L17.252,13.492z"/>
<path fill="#E5E5E5" d="M20.252,13.492c0-0.75,0-0.75-0.735-0.75h-0.03c-0.734,0-0.734,0-0.734,0.75l0,0c0,0.75,0,0.75,0.734,0.75
	h0.03C20.252,14.242,20.252,14.242,20.252,13.492L20.252,13.492z"/>
<path fill="#E5E5E5" d="M23.248,13.492c0-0.75,0-0.75-0.735-0.75h-0.03c-0.734,0-0.734,0-0.734,0.75l0,0c0,0.75,0,0.75,0.734,0.75
	h0.03C23.248,14.242,23.248,14.242,23.248,13.492L23.248,13.492z"/>
<path fill="#E5E5E5" d="M6.744,10.508c0-0.75,0-0.75-0.735-0.75h-0.03c-0.735,0-0.735,0-0.735,0.75l0,0c0,0.75,0,0.75,0.735,0.75
	h0.03C6.744,11.258,6.744,11.258,6.744,10.508L6.744,10.508z"/>
<path fill="#E5E5E5" d="M9.723,10.508c0-0.75,0-0.75-0.734-0.75H8.957c-0.734,0-0.734,0-0.734,0.75l0,0c0,0.75,0,0.75,0.734,0.75
	h0.031C9.723,11.258,9.723,11.258,9.723,10.508L9.723,10.508z"/>
<path fill="#E5E5E5" d="M12.765,10.508c0-0.75,0-0.75-0.735-0.75H12c-0.735,0-0.735,0-0.735,0.75l0,0c0,0.75,0,0.75,0.735,0.75h0.03
	C12.765,11.258,12.765,11.258,12.765,10.508L12.765,10.508z"/>
<path fill="#E5E5E5" d="M15.764,10.508c0-0.75,0-0.75-0.734-0.75H15c-0.735,0-0.735,0-0.735,0.75l0,0c0,0.75,0,0.75,0.735,0.75h0.03
	C15.764,11.258,15.764,11.258,15.764,10.508L15.764,10.508z"/>
<path fill="#E5E5E5" d="M18.764,10.508c0-0.75,0-0.75-0.734-0.75h-0.03c-0.735,0-0.735,0-0.735,0.75l0,0c0,0.75,0,0.75,0.735,0.75
	h0.03C18.764,11.258,18.764,11.258,18.764,10.508L18.764,10.508z"/>
<path fill="#E5E5E5" d="M21.76,10.508c0-0.75,0-0.75-0.734-0.75h-0.03c-0.735,0-0.735,0-0.735,0.75l0,0c0,0.75,0,0.75,0.735,0.75
	h0.03C21.76,11.258,21.76,11.258,21.76,10.508L21.76,10.508z"/>
<path fill="#E5E5E5" d="M24.791,10.508c0-0.75,0-0.75-0.734-0.75h-0.029c-0.736,0-0.736,0-0.736,0.75l0,0c0,0.75,0,0.75,0.736,0.75
	h0.029C24.791,11.258,24.791,11.258,24.791,10.508L24.791,10.508z"/>
<rect x="274.167" y="176.833" fill="#262626" width="1.333" height="0"/>
</svg>
