<?xml version="1.0" encoding="UTF-8" standalone="no"?>
<svg
   xmlns:dc="http://purl.org/dc/elements/1.1/"
   xmlns:cc="http://creativecommons.org/ns#"
   xmlns:rdf="http://www.w3.org/1999/02/22-rdf-syntax-ns#"
   xmlns:svg="http://www.w3.org/2000/svg"
   xmlns="http://www.w3.org/2000/svg"
   xmlns:sodipodi="http://sodipodi.sourceforge.net/DTD/sodipodi-0.dtd"
   xmlns:inkscape="http://www.inkscape.org/namespaces/inkscape"
   inkscape:export-ydpi="9"
   inkscape:export-xdpi="9"
   inkscape:export-filename="/Users/jesse/src/sonobus/images/person.png"
   inkscape:version="1.0 (4035a4f, 2020-05-01)"
   sodipodi:docname="link_up.svg"
   xml:space="preserve"
   viewBox="0 0 512 539.74084"
   height="539.74084"
   width="512"
   y="0px"
   x="0px"
   id="Layer_1"
   version="1.1"><g
     id="g2355"
     style="fill:none;fill-opacity:1;stroke:#cccccc;stroke-opacity:1"
     transform="translate(45.955462,316.99031)"><path
       d="M 162.03964,180.01586 H 98.039638 a 96.000003,96.000003 0 0 1 0,-192.000005 h 64.000002"
       style="fill:none;fill-opacity:1;stroke:#cccccc;stroke-width:36px;stroke-linecap:round;stroke-linejoin:round;stroke-opacity:1"
       id="path1103" /><path
       d="m 258.03964,-11.984145 h 64 a 96.000002,96.000002 0 0 1 0,192.000005 h -64"
       style="fill:none;fill-opacity:1;stroke:#cccccc;stroke-width:36px;stroke-linecap:round;stroke-linejoin:round;stroke-opacity:1"
       id="path1105" /><line
       x1="117.32963"
       y1="84.015854"
       x2="304.74963"
       y2="84.015854"
       style="fill:none;fill-opacity:1;stroke:#cccccc;stroke-width:36px;stroke-linecap:round;stroke-linejoin:round;stroke-opacity:1"
       id="line1107" /></g><defs
     id="defs5984"><marker
       inkscape:isstock="true"
       style="overflow:visible"
       id="Arrow2Send"
       refX="0"
       refY="0"
       orient="auto"
       inkscape:stockid="Arrow2Send"><path
         transform="matrix(-0.3,0,0,-0.3,0.69,0)"
         d="M 8.7185878,4.0337352 -2.2072895,0.01601326 8.7185884,-4.0017078 c -1.7454984,2.3720609 -1.7354408,5.6174519 -6e-7,8.035443 z"
         style="fill:#cccccc;fill-opacity:1;fill-rule:evenodd;stroke:#cccccc;stroke-width:0.625;stroke-linejoin:round;stroke-opacity:1"
         id="path2445" /></marker><marker
       inkscape:isstock="true"
       style="overflow:visible"
       id="TriangleOutM"
       refX="0"
       refY="0"
       orient="auto"
       inkscape:stockid="TriangleOutM"><path
         transform="scale(0.4)"
         style="fill:#cccccc;fill-opacity:1;fill-rule:evenodd;stroke:#cccccc;stroke-width:1pt;stroke-opacity:1"
         d="M 5.77,0 -2.88,5 V -5 Z"
         id="path2557" /></marker><marker
       inkscape:isstock="true"
       style="overflow:visible"
       id="marker2732"
       refX="0"
       refY="0"
       orient="auto"
       inkscape:stockid="Arrow1Send"><path
         transform="matrix(-0.2,0,0,-0.2,-1.2,0)"
         style="fill:#cccccc;fill-opacity:1;fill-rule:evenodd;stroke:#cccccc;stroke-width:1pt;stroke-opacity:1"
         d="M 0,0 5,-5 -12.5,0 5,5 Z"
         id="path2730" /></marker><marker
       inkscape:isstock="true"
       id="ExperimentalArrow"
       refX="5"
       refY="3"
       orient="auto-start-reverse"
       inkscape:stockid="ExperimentalArrow"><path
         style="fill:context-stroke;stroke:#cccccc;stroke-opacity:1"
         d="M 10,3 0,6 V 0 Z"
         id="path2665" /></marker><marker
       inkscape:isstock="true"
       style="overflow:visible"
       id="Arrow1Send"
       refX="0"
       refY="0"
       orient="auto"
       inkscape:stockid="Arrow1Send"><path
         transform="matrix(-0.2,0,0,-0.2,-1.2,0)"
         style="fill:#cccccc;fill-opacity:1;fill-rule:evenodd;stroke:#cccccc;stroke-width:1pt;stroke-opacity:1"
         d="M 0,0 5,-5 -12.5,0 5,5 Z"
         id="path2427" /></marker><marker
       inkscape:isstock="true"
       style="overflow:visible"
       id="Arrow1Lend"
       refX="0"
       refY="0"
       orient="auto"
       inkscape:stockid="Arrow1Lend"><path
         transform="matrix(-0.8,0,0,-0.8,-10,0)"
         style="fill-rule:evenodd;stroke:#000000;stroke-width:1pt"
         d="M 0,0 5,-5 -12.5,0 5,5 Z"
         id="path2415" /></marker></defs><sodipodi:namedview
     fit-margin-bottom="0"
     fit-margin-right="0"
     fit-margin-left="0"
     fit-margin-top="0"
     inkscape:current-layer="Layer_1"
     inkscape:window-maximized="0"
     inkscape:window-y="422"
     inkscape:window-x="2469"
     inkscape:cy="358.81997"
     inkscape:cx="418.71766"
     inkscape:zoom="0.58018235"
     showgrid="false"
     id="namedview5982"
     inkscape:window-height="958"
     inkscape:window-width="1293"
     inkscape:pageshadow="2"
     inkscape:pageopacity="0"
     guidetolerance="10"
     gridtolerance="10"
     objecttolerance="10"
     borderopacity="1"
     bordercolor="#666666"
     pagecolor="#ffffff"
     inkscape:document-rotation="0" /><rect
     y="0"
     x="0"
     height="539.57751"
     width="512"
     id="rect8965"
     style="fill:#000000;fill-opacity:0;stroke-width:15.3987" /><path
     style="stroke-width:1.02658"
     id="path5975"
     d="M 258.7347,266.90677 Z" /><metadata
     id="metadata5979"><rdf:RDF><rdf:Description
         dc:language="en"
         dc:format="image/svg+xml"
         dc:date="2017-09-24"
         dc:publisher="Iconscout"
         dc:description="ios,person,outline"
         dc:title="ios,person,outline"
         about="https://iconscout.com/legal#licenses"><dc:creator><rdf:Bag><rdf:li>Benjamin J Sperry</rdf:li></rdf:Bag></dc:creator></rdf:Description><cc:Work
         rdf:about=""><dc:format>image/svg+xml</dc:format><dc:type
           rdf:resource="http://purl.org/dc/dcmitype/StillImage" /><dc:title></dc:title></cc:Work></rdf:RDF></metadata><path
     id="path969"
     d="m 349.76286,108.58211 c -3.1,3.1 -8,3 -11.3,0 l -74.4,-66.400034 V 226.78206 c 0,4.4 -3.6,8 -8,8 -4.4,0 -8,-3.6 -8,-8 V 42.182076 l -74.40001,66.300034 c -3.4,2.9 -8.1,3.2 -11.2,0.1 -3.1,-3.1 -3.3,-8.5 -0.1,-11.400004 0,0 87.00001,-79.20003 88.00001,-80.00003 1,-0.8 2.8,-2.4 5.7,-2.4 2.9,0 4.9,1.6 5.7,2.4 0.8,0.8 88,80.00003 88,80.00003 1.5,1.5 2.3,3.600004 2.3,5.700004 0,2.1 -0.8,4.1 -2.3,5.7 z"
     style="fill:#cccccc;fill-opacity:1;stroke:#cccccc;stroke-width:15;stroke-miterlimit:4;stroke-dasharray:none;stroke-opacity:1"
     sodipodi:nodetypes="cccsssccscssscsc" /></svg>
