<?xml version="1.0" encoding="UTF-8" standalone="no"?>
<svg
   id="svg1437"
   height="30"
   width="30"
   version="1.0"
   xmlns="http://www.w3.org/2000/svg"
   xmlns:svg="http://www.w3.org/2000/svg"
   xmlns:rdf="http://www.w3.org/1999/02/22-rdf-syntax-ns#"
   xmlns:cc="http://creativecommons.org/ns#"
   xmlns:dc="http://purl.org/dc/elements/1.1/">
  <metadata
     id="metadata4595">
    <rdf:RDF>
      <cc:Work
         rdf:about="">
        <dc:format>image/svg+xml</dc:format>
        <dc:type
           rdf:resource="http://purl.org/dc/dcmitype/StillImage" />
      </cc:Work>
    </rdf:RDF>
  </metadata>
  <defs
     id="defs1440">
    <marker
       orient="auto"
       refY="0.0"
       refX="0.0"
       id="EmptyTriangleInS"
       style="overflow:visible">
      <path
         id="path1125"
         d="M 5.77,0.0 L -2.88,5.0 L -2.88,-5.0 L 5.77,0.0 z "
         style="fill-rule:evenodd;fill:#cccccc;stroke:#cccccc;stroke-width:1pt;stroke-opacity:1;fill-opacity:1"
         transform="scale(-0.2) translate(-3.0,0)" />
    </marker>
    <marker
       orient="auto"
       refY="0.0"
       refX="0.0"
       id="Arrow1Send"
       style="overflow:visible;">
      <path
         id="path983"
         d="M 0.0,0.0 L 5.0,-5.0 L -12.5,0.0 L 5.0,5.0 L 0.0,0.0 z "
         style="fill-rule:evenodd;stroke:#cccccc;stroke-width:1pt;stroke-opacity:1;fill:#cccccc;fill-opacity:1"
         transform="scale(0.2) rotate(180) translate(6,0)" />
    </marker>
    <marker
       orient="auto"
       refY="0"
       refX="0"
       id="marker2864"
       style="overflow:visible">
      <path
         id="path2862"
         d="M 5.77,0 -2.88,5 V -5 Z"
         style="fill:#cccccc;fill-opacity:1;fill-rule:evenodd;stroke:#cccccc;stroke-width:1pt;stroke-opacity:1"
         transform="scale(-0.4)" />
    </marker>
  </defs>
  <path
     id="path880-6-9"
     style="color:#000000;fill:#cccccc;stroke-width:0.0000843062;-inkscape-stroke:none"
     d="m 4.1416212,4.9210471 c -0.3056082,-0.3056082 -0.3056082,-0.8009051 0,-1.1058107 0.3056089,-0.3056089 0.8002033,-0.3056089 1.1058121,0 L 26.219919,24.787723 c 0.30561,0.305608 0.30561,0.800202 0,1.105812 -0.304906,0.305608 -0.800203,0.305608 -1.105812,0 M 19.308594,5.0957031 a 0.74999949,0.74999949 0 0 0 -0.53125,0.2207031 0.74999949,0.74999949 0 0 0 0,1.0605469 l 1.951172,1.9492188 h -9.449219 l 1.5,1.5 h 7.949219 l -1.951172,1.9511721 a 0.74999949,0.74999949 0 0 0 0,1.060547 0.74999949,0.74999949 0 0 0 1.060547,0 l 3.230468,-3.2304691 a 0.75007447,0.75007447 0 0 0 0,-1.0605469 L 19.837891,5.3164062 A 0.74999949,0.74999949 0 0 0 19.308594,5.0957031 Z M 6.1699219,8.46875 c -2.7580168,0.6008415 -4.834994,3.058363 -4.84375,5.990234 a 0.750075,0.750075 0 0 0 0,0.002 v 1.078124 a 0.75,0.75 0 0 0 0.75,0.75 0.75,0.75 0 0 0 0.75,-0.75 v -1.076171 -0.002 c 0.00873,-2.564816 2.0699487,-4.6260381 4.6347656,-4.6347661 h 0.066406 z m 21.7539061,5.242188 a 0.75,0.75 0 0 0 -0.75,0.75 v 1.078124 c -0.0081,2.377974 -1.78166,4.31993 -4.083984,4.597657 l 1.257812,1.257812 c 2.496241,-0.778794 4.317973,-3.1081 4.326172,-5.853515 a 0.750075,0.750075 0 0 0 0,-0.002 v -1.078124 a 0.75,0.75 0 0 0 -0.75,-0.75 z m -17.232422,3.230468 a 0.74999949,0.74999949 0 0 0 -0.529297,0.220703 l -3.2304684,3.230469 a 0.75007447,0.75007447 0 0 0 0,1.060547 l 3.2304684,3.230469 a 0.74999949,0.74999949 0 0 0 1.060547,0 0.74999949,0.74999949 0 0 0 0,-1.060547 L 9.2714844,21.673828 H 19.375 l -1.5,-1.5 H 9.2714844 l 1.9511716,-1.951172 a 0.74999949,0.74999949 0 0 0 0,-1.060547 0.74999949,0.74999949 0 0 0 -0.53125,-0.220703 z" />
</svg>
