<?xml version="1.0" encoding="UTF-8" standalone="no"?>
<svg
   xmlns:dc="http://purl.org/dc/elements/1.1/"
   xmlns:cc="http://creativecommons.org/ns#"
   xmlns:rdf="http://www.w3.org/1999/02/22-rdf-syntax-ns#"
   xmlns:svg="http://www.w3.org/2000/svg"
   xmlns="http://www.w3.org/2000/svg"
   xmlns:sodipodi="http://sodipodi.sourceforge.net/DTD/sodipodi-0.dtd"
   xmlns:inkscape="http://www.inkscape.org/namespaces/inkscape"
   version="1.0"
   width="30"
   height="30"
   id="svg1437"
   sodipodi:docname="loop_icon.svg"
   inkscape:version="1.0 (4035a4f, 2020-05-01)"
   inkscape:export-filename="/Users/jesse/src/sonoaudio/tonalenergy/images/circleslash_icon.png"
   inkscape:export-xdpi="102.4"
   inkscape:export-ydpi="102.4">
  <metadata
     id="metadata4595">
    <rdf:RDF>
      <cc:Work
         rdf:about="">
        <dc:format>image/svg+xml</dc:format>
        <dc:type
           rdf:resource="http://purl.org/dc/dcmitype/StillImage" />
        <dc:title></dc:title>
      </cc:Work>
    </rdf:RDF>
  </metadata>
  <sodipodi:namedview
     inkscape:snap-bbox="false"
     pagecolor="#000000"
     bordercolor="#666666"
     borderopacity="1"
     objecttolerance="10"
     gridtolerance="10"
     guidetolerance="10"
     inkscape:pageopacity="0"
     inkscape:pageshadow="2"
     inkscape:window-width="1145"
     inkscape:window-height="686"
     id="namedview4593"
     showgrid="false"
     inkscape:snap-nodes="true"
     inkscape:snap-global="true"
     inkscape:zoom="10.704349"
     inkscape:cx="15.059494"
     inkscape:cy="20.709443"
     inkscape:window-x="2486"
     inkscape:window-y="712"
     inkscape:window-maximized="0"
     inkscape:current-layer="svg1437"
     inkscape:pagecheckerboard="true"
     inkscape:document-rotation="0"
     fit-margin-top="0"
     fit-margin-left="0"
     fit-margin-right="0"
     fit-margin-bottom="0">
    <inkscape:grid
       id="grid11889"
       type="xygrid" />
  </sodipodi:namedview>
  <defs
     id="defs1440">
    <marker
       inkscape:isstock="true"
       style="overflow:visible"
       id="EmptyTriangleInS"
       refX="0.0"
       refY="0.0"
       orient="auto"
       inkscape:stockid="EmptyTriangleInS">
      <path
         transform="scale(-0.2) translate(-3.0,0)"
         style="fill-rule:evenodd;fill:#cccccc;stroke:#cccccc;stroke-width:1pt;stroke-opacity:1;fill-opacity:1"
         d="M 5.77,0.0 L -2.88,5.0 L -2.88,-5.0 L 5.77,0.0 z "
         id="path1125" />
    </marker>
    <marker
       inkscape:isstock="true"
       style="overflow:visible;"
       id="Arrow1Send"
       refX="0.0"
       refY="0.0"
       orient="auto"
       inkscape:stockid="Arrow1Send">
      <path
         transform="scale(0.2) rotate(180) translate(6,0)"
         style="fill-rule:evenodd;stroke:#cccccc;stroke-width:1pt;stroke-opacity:1;fill:#cccccc;fill-opacity:1"
         d="M 0.0,0.0 L 5.0,-5.0 L -12.5,0.0 L 5.0,5.0 L 0.0,0.0 z "
         id="path983" />
    </marker>
    <marker
       inkscape:isstock="true"
       style="overflow:visible"
       id="marker2864"
       refX="0"
       refY="0"
       orient="auto"
       inkscape:stockid="TriangleInM">
      <path
         transform="scale(-0.4)"
         style="fill:#cccccc;fill-opacity:1;fill-rule:evenodd;stroke:#cccccc;stroke-width:1pt;stroke-opacity:1"
         d="M 5.77,0 -2.88,5 V -5 Z"
         id="path2862" />
    </marker>
  </defs>
  <g
     id="g8214">
    <path
       style="fill:#cccccc;fill-opacity:1;stroke-width:0.3;stroke:#cccccc;stroke-opacity:1;stroke-miterlimit:4;stroke-dasharray:none"
       id="path3556"
       d="m 28.298263,13.627939 -2.327147,2.327147 -2.383394,-2.327147 -0.608266,0.608209 2.99166,2.99166 2.963537,-2.963536 z" />
    <path
       style="fill:#cccccc;fill-opacity:1;stroke:#cccccc;stroke-width:0.3;stroke-miterlimit:4;stroke-dasharray:none;stroke-opacity:1"
       id="path3558"
       d="m 26.474246,14.972382 c -1.12e-4,-0.03245 7.32e-4,-0.06508 3.94e-4,-0.09748 l -0.0016,-1.69e-4 C 26.405455,8.6052257 21.28526,3.5254162 15,3.5254162 c -4.139287,0 -7.9733171,2.2430561 -10.0058371,5.8537814 0,0 -0.2341455,0.4278005 0.1404096,0.6495874 0.395517,0.21152 0.6438557,-0.2081534 0.6438557,-0.2081534 C 7.6517103,6.492721 11.185263,4.4253835 15,4.4253835 c 5.808896,0 10.538337,4.7084043 10.573773,10.5091435 0.0021,0.387099 -0.01581,0.77791 -0.0572,1.171702 l 0.895017,0.09416 C 26.453249,15.801616 26.474106,15.400943 26.474078,15 h 5.06e-4 c 0,-0.0092 -3.38e-4,-0.01839 -3.38e-4,-0.02762 z"
       sodipodi:nodetypes="sccscccscccccss" />
    <path
       style="fill:#cccccc;fill-opacity:1;stroke:#cccccc;stroke-width:0.3;stroke-miterlimit:4;stroke-dasharray:none;stroke-opacity:1"
       id="path3560"
       d="M 24.221516,20.179368 C 22.34829,23.507279 18.814737,25.574616 15,25.574616 c -5.8202577,0 -10.5570671,-4.726628 -10.5742227,-10.542948 -8.438e-4,-0.376074 0.017437,-0.755635 0.057598,-1.137897 L 3.5883576,13.799612 C 3.5467252,14.198385 3.5259227,14.599059 3.5260349,15 h -6.187e-4 c 0,0.02655 8.437e-4,0.05282 0.00101,0.07931 3.375e-4,0.05484 -3.375e-4,0.109796 8.437e-4,0.164469 l 0.00124,-1.69e-4 C 3.6586676,21.458672 8.754339,26.474584 15,26.474584 c 4.139287,0 7.973317,-2.243056 10.005837,-5.853782 0,0 0.07621,-0.229969 -0.197272,-0.428866 -0.397793,-0.335638 -0.587049,-0.01257 -0.587049,-0.01257 z"
       sodipodi:nodetypes="csccccccccsccc" />
    <path
       style="fill:#cccccc;fill-opacity:1;stroke-width:0.3;stroke:#cccccc;stroke-opacity:1;stroke-miterlimit:4;stroke-dasharray:none"
       id="path3562"
       d="m 4.0288841,12.686438 -2.9635363,2.963536 0.6363894,0.636333 2.3271469,-2.327147 2.3271468,2.327147 0.6363894,-0.636333 z" />
  </g>
  <rect
     y="0"
     x="0"
     height="30"
     width="30"
     id="rect9748"
     style="fill:#000000;fill-opacity:0;stroke:none;stroke-width:0.214092;stroke-linecap:round;stroke-opacity:1" />
</svg>
