<?xml version="1.0" encoding="UTF-8" standalone="no"?>
<svg
   xmlns:dc="http://purl.org/dc/elements/1.1/"
   xmlns:cc="http://creativecommons.org/ns#"
   xmlns:rdf="http://www.w3.org/1999/02/22-rdf-syntax-ns#"
   xmlns:svg="http://www.w3.org/2000/svg"
   xmlns="http://www.w3.org/2000/svg"
   xmlns:sodipodi="http://sodipodi.sourceforge.net/DTD/sodipodi-0.dtd"
   xmlns:inkscape="http://www.inkscape.org/namespaces/inkscape"
   inkscape:version="1.0 (4035a4f, 2020-05-01)"
   sodipodi:docname="mic.svg"
   xml:space="preserve"
   viewBox="0 0 470 500"
   height="500"
   width="470"
   y="0px"
   x="0px"
   id="Layer_1"
   version="1.1"><defs
     id="defs976" /><sodipodi:namedview
     fit-margin-bottom="100"
     fit-margin-right="100"
     fit-margin-top="100"
     fit-margin-left="100"
     inkscape:current-layer="Layer_1"
     inkscape:window-maximized="0"
     inkscape:window-y="324"
     inkscape:window-x="2429"
     inkscape:cy="-26.413387"
     inkscape:cx="-79.822305"
     inkscape:zoom="0.18646021"
     showgrid="false"
     id="namedview974"
     inkscape:window-height="585"
     inkscape:window-width="1137"
     inkscape:pageshadow="2"
     inkscape:pageopacity="0"
     guidetolerance="10"
     gridtolerance="10"
     objecttolerance="10"
     borderopacity="1"
     bordercolor="#666666"
     pagecolor="#656565"
     inkscape:document-rotation="0"
     inkscape:pagecheckerboard="true" /><rect
     y="0"
     x="0"
     height="500"
     width="470"
     id="rect8876"
     style="fill:#000000;fill-opacity:0;stroke:none;stroke-width:21.0009;stroke-linejoin:miter;stroke-miterlimit:4;stroke-dasharray:none;stroke-opacity:1" /><metadata
     id="metadata971"><rdf:RDF><rdf:Description
         dc:language="en"
         dc:format="image/svg+xml"
         dc:date="2017-09-24"
         dc:publisher="Iconscout"
         dc:description="ios,arrow,thin,right"
         dc:title="ios,arrow,thin,right"
         about="https://iconscout.com/legal#licenses"><dc:creator><rdf:Bag><rdf:li>Benjamin J Sperry</rdf:li></rdf:Bag></dc:creator></rdf:Description><cc:Work
         rdf:about=""><dc:format>image/svg+xml</dc:format><dc:type
           rdf:resource="http://purl.org/dc/dcmitype/StillImage" /><dc:title></dc:title></cc:Work></rdf:RDF></metadata><path
     style="fill:#e6e6e6;fill-opacity:1;stroke-width:0.0998643"
     d="m 231.11822,356.50477 v 75.49708 c 0,5.79209 -4.69361,10.38583 -10.38584,10.38583 -5.79211,0 -10.38585,-4.6936 -10.38585,-10.38583 V 356.50477 C 178.48998,354.0082 149.82905,339.92739 128.45819,318.55651 104.79047,294.8888 90.11048,262.23332 90.11048,226.28233 c 0,-5.7921 4.6936,-10.38585 10.38583,-10.38585 5.79211,0 10.38586,4.69361 10.38586,10.38585 0,30.15887 12.3831,57.62146 32.256,77.59419 19.87292,19.87292 47.33547,32.25604 77.59421,32.25604 30.15889,0 57.62145,-12.38312 77.59421,-32.25604 19.8729,-19.87288 32.25602,-47.33542 32.25602,-77.59419 0,-5.7921 4.6936,-10.38585 10.38583,-10.38585 5.79212,0 10.38586,4.69361 10.38586,10.38585 0,35.95099 -14.68,68.60647 -38.34772,92.27418 -21.37086,21.37088 -50.03178,35.45169 -81.88836,37.94826 z M 221.43143,57.612323 c 19.97277,0 38.14798,8.188804 51.33001,21.370835 13.18205,13.182039 21.37086,31.357262 21.37086,51.330032 v 93.97186 c 0,19.97278 -8.18881,38.14802 -21.37086,51.33002 -13.18203,13.18202 -31.35724,21.37086 -51.33001,21.37086 -19.97277,0 -38.14799,-8.18884 -51.33002,-21.37086 -13.18203,-13.182 -21.37085,-31.35724 -21.37085,-51.33002 v -93.97186 c 0,-19.97277 8.18882,-38.147993 21.37085,-51.330032 13.18203,-13.182031 31.35725,-21.370835 51.33002,-21.370835 z m 36.55016,36.050834 c -9.38721,-9.387204 -22.36949,-15.179319 -36.55016,-15.179319 -14.28053,0 -27.16297,5.792115 -36.55017,15.179319 -9.38719,9.387193 -15.1793,22.369483 -15.1793,36.550153 v 93.9719 c 0,14.28052 5.79211,27.16295 15.1793,36.55017 9.3872,9.38719 22.3695,15.17927 36.55017,15.17927 14.28052,0 27.16295,-5.79208 36.55016,-15.17927 9.38721,-9.38721 15.17932,-22.36952 15.17932,-36.55016 v -93.9719 c 0,-14.28051 -5.79211,-27.16297 -15.17932,-36.550163 z"
     fill-rule="nonzero"
     id="path7563" /></svg>
