<?xml version="1.0" encoding="UTF-8" standalone="no"?>
<svg
   xmlns:dc="http://purl.org/dc/elements/1.1/"
   xmlns:cc="http://creativecommons.org/ns#"
   xmlns:rdf="http://www.w3.org/1999/02/22-rdf-syntax-ns#"
   xmlns:svg="http://www.w3.org/2000/svg"
   xmlns="http://www.w3.org/2000/svg"
   xmlns:sodipodi="http://sodipodi.sourceforge.net/DTD/sodipodi-0.dtd"
   xmlns:inkscape="http://www.inkscape.org/namespaces/inkscape"
   version="1.1"
   id="Layer_1"
   x="0px"
   y="0px"
   width="470"
   height="500"
   viewBox="0 0 470 500"
   xml:space="preserve"
   sodipodi:docname="mic_pointing.svg"
   inkscape:version="1.0 (4035a4f, 2020-05-01)"><defs
     id="defs976" /><sodipodi:namedview
     inkscape:pagecheckerboard="true"
     inkscape:document-rotation="0"
     pagecolor="#656565"
     bordercolor="#666666"
     borderopacity="1"
     objecttolerance="10"
     gridtolerance="10"
     guidetolerance="10"
     inkscape:pageopacity="0"
     inkscape:pageshadow="2"
     inkscape:window-width="1137"
     inkscape:window-height="816"
     id="namedview974"
     showgrid="false"
     inkscape:zoom="0.38479023"
     inkscape:cx="207.50063"
     inkscape:cy="216.18726"
     inkscape:window-x="2328"
     inkscape:window-y="292"
     inkscape:window-maximized="0"
     inkscape:current-layer="Layer_1"
     fit-margin-left="100"
     fit-margin-top="100"
     fit-margin-right="100"
     fit-margin-bottom="100"><inkscape:grid
       type="xygrid"
       id="grid15942" /></sodipodi:namedview><rect
     style="fill:#000000;fill-opacity:0;stroke:none;stroke-width:21.0009;stroke-linejoin:miter;stroke-miterlimit:4;stroke-dasharray:none;stroke-opacity:1"
     id="rect8876"
     width="470"
     height="500"
     x="0"
     y="0" /><metadata
     id="metadata971"><rdf:RDF><rdf:Description
         about="https://iconscout.com/legal#licenses"
         dc:title="ios,arrow,thin,right"
         dc:description="ios,arrow,thin,right"
         dc:publisher="Iconscout"
         dc:date="2017-09-24"
         dc:format="image/svg+xml"
         dc:language="en"><dc:creator><rdf:Bag><rdf:li>Benjamin J Sperry</rdf:li></rdf:Bag></dc:creator></rdf:Description><cc:Work
         rdf:about=""><dc:format>image/svg+xml</dc:format><dc:type
           rdf:resource="http://purl.org/dc/dcmitype/StillImage" /><dc:title></dc:title></cc:Work></rdf:RDF></metadata><path
     id="path7563"
     fill-rule="nonzero"
     d="m 127.83675,238.7392 v 51.83742 c 0,3.97694 -3.2227,7.13107 -7.13107,7.13107 -3.97695,0 -7.13108,-3.2227 -7.13108,-7.13107 V 238.7392 c -21.87319,-1.71418 -41.552212,-11.38228 -56.225762,-26.05584 -16.25061,-16.2506 -26.33011,-38.67234 -26.33011,-63.35683 0,-3.97694 3.2227,-7.13108 7.13107,-7.13108 3.97695,0 7.13108,3.2227 7.13108,7.13108 0,20.70753 8.50242,39.56375 22.14745,53.27733 13.645052,13.64504 32.501242,22.14748 53.277352,22.14748 20.70754,0 39.56375,-8.50244 53.27734,-22.14748 13.64503,-13.64502 22.14747,-32.50121 22.14747,-53.27733 0,-3.97694 3.22269,-7.13108 7.13106,-7.13108 3.97696,0 7.13109,3.2227 7.13109,7.13108 0,24.68449 -10.07951,47.10623 -26.33012,63.35683 -14.67355,14.67356 -34.35257,24.34166 -56.22577,26.05584 z M 121.18566,33.515181 c 13.7136,0 26.19297,5.622555 35.24395,14.673535 9.05099,9.050984 14.67355,21.530364 14.67355,35.243962 v 64.522492 c 0,13.71361 -5.62256,26.193 -14.67355,35.24396 -9.05098,9.05097 -21.53035,14.67355 -35.24395,14.67355 -13.71361,0 -26.19298,-5.62258 -35.24396,-14.67355 -9.050982,-9.05096 -14.673552,-21.53035 -14.673552,-35.24396 V 83.432678 c 0,-13.713598 5.62257,-26.192978 14.673552,-35.243962 9.05098,-9.05098 21.53035,-14.673535 35.24396,-14.673535 z m 25.09588,24.753041 c -6.4454,-6.445394 -15.35922,-10.422347 -25.09588,-10.422347 -9.80523,0 -18.65051,3.976953 -25.0959,10.422347 -6.44538,6.445387 -10.42233,15.359221 -10.42233,25.095886 v 64.522512 c 0,9.80521 3.97695,18.65048 10.42233,25.09589 6.44539,6.44538 15.35924,10.42231 25.0959,10.42231 9.80521,0 18.65048,-3.97693 25.09588,-10.42231 6.4454,-6.4454 10.42235,-15.35925 10.42235,-25.09589 V 83.364108 c 0,-9.805209 -3.97695,-18.650499 -10.42235,-25.095886 z"
     style="fill:#e6e6e6;fill-opacity:1;stroke-width:0.0685683" /><g
     style="fill:#e6e6e6;fill-opacity:1;stroke:#e5e5e5;stroke-width:8.33131;stroke-miterlimit:4;stroke-dasharray:none;stroke-opacity:1"
     transform="matrix(0.60014562,0,0,0.60014562,159.54957,225.07593)"
     id="g7181"><g
       style="fill:#e6e6e6;fill-opacity:1;stroke:#e5e5e5;stroke-width:8.33131;stroke-miterlimit:4;stroke-dasharray:none;stroke-opacity:1"
       id="g7179"><path
         style="fill:#e6e6e6;fill-opacity:1;stroke:#e5e5e5;stroke-width:8.33131;stroke-miterlimit:4;stroke-dasharray:none;stroke-opacity:1"
         d="m 366.282,285.164 -19.713,-19.713 c -2.251,-2.251 -3.805,-5.08 -4.494,-8.181 -0.698,-3.116 -0.495,-6.343 0.583,-9.343 1.381,-3.828 2.808,-9.375 4.241,-16.48 2.341,-11.62 1.443,-23.667 -2.598,-34.837 l -24.398,-67.44 c -5.021,-13.91 -17.795,-23.646 -32.539,-24.801 l -15.95,-1.258 c -7.396,-0.585 -14.213,-4.306 -18.704,-10.213 -0.844,-1.112 -1.76,-2.164 -2.722,-3.126 -11.779,-11.778 -30.959,-11.763 -42.756,0.034 -2.306,2.306 -4.337,4.809 -6.081,7.491 L 113.718,9.864 C 107.356,3.503 98.898,0 89.9,0 80.9,0.008 72.446,3.514 66.089,9.87 52.96,23 52.96,44.363 66.09,57.492 l 75.968,75.967 c -7.188,0.888 -14.142,4.084 -19.648,9.591 -11.384,11.385 -12.898,28.96 -4.54,41.991 -7.536,0.708 -14.877,3.941 -20.635,9.699 -10.42,10.42 -12.571,26.025 -6.453,38.586 -6.523,0.618 -12.847,3.334 -17.833,8.167 -5.886,5.704 -9.131,13.362 -9.139,21.564 0,8.026 3.124,15.567 8.8,21.242 l 84.079,84.079 c 9.275,9.276 19.812,17.173 31.318,23.475 15.032,8.233 28.799,18.552 40.918,30.671 2.538,2.538 6.654,2.538 9.192,0 L 366.282,294.356 c 2.538,-2.538 2.538,-6.654 0,-9.192 z M 233.444,408.812 C 221.623,397.76 208.465,388.235 194.252,380.451 183.829,374.743 174.283,367.587 165.881,359.185 L 81.802,275.106 c -3.219,-3.219 -4.991,-7.495 -4.991,-12.042 0.005,-4.651 1.847,-8.999 5.187,-12.237 6.635,-6.431 17.52,-6.177 24.264,0.567 2.538,2.538 6.654,2.538 9.192,0 2.538,-2.538 2.539,-6.653 0.001,-9.192 l -9.026,-9.03 c -8.062,-8.062 -8.063,-21.179 -0.001,-29.241 8.061,-8.061 21.179,-8.061 29.24,0 2.538,2.538 6.654,2.538 9.192,0 2.538,-2.538 2.538,-6.654 0,-9.192 l -13.257,-13.257 c -8.061,-8.061 -8.062,-21.178 0,-29.24 8.035,-8.035 21.092,-8.062 29.16,-0.08 l 14.142,14.142 c 2.538,2.538 6.654,2.538 9.192,0 2.538,-2.538 2.538,-6.654 0,-9.192 L 75.282,48.3 c -8.06,-8.061 -8.061,-21.176 0,-29.237 3.904,-3.904 9.098,-6.057 14.624,-6.063 5.52,0 10.714,2.151 14.62,6.056 l 165.717,165.716 c 2.538,2.538 6.654,2.538 9.192,0 2.538,-2.538 2.538,-6.654 0,-9.192 l -68.8,-68.8 c 1.522,-2.846 3.461,-5.453 5.79,-7.782 6.728,-6.729 17.661,-6.744 24.371,-0.034 0.546,0.547 1.071,1.151 1.562,1.797 6.73,8.853 16.946,14.43 28.032,15.308 l 15.956,1.258 c 9.667,0.757 18.039,7.139 21.332,16.259 l 24.399,67.446 c 3.231,8.931 3.951,18.56 2.08,27.846 -1.288,6.39 -2.578,11.454 -3.728,14.644 -1.916,5.331 -2.275,11.061 -1.041,16.577 1.224,5.509 3.987,10.542 7.99,14.545 l 15.117,15.117 z"
         id="path7177" /></g></g><g
     transform="matrix(0.49590452,0,0,0.49590452,222.96258,14.946538)"
     style="display:inline;stroke:#ff5555;stroke-opacity:1;fill:#ff5555;fill-opacity:1;stroke-width:8.06606885;stroke-miterlimit:4;stroke-dasharray:none"
     id="g637896"><path
       sodipodi:nodetypes="cccccccccccccccsccccccccsccccccccscccccsccccccccccccscccccccccccccccc"
       d="m 295.64062,82.748047 c -24.22528,-0.04024 -48.13468,9.726914 -62.19335,28.947263 l 13.2539,13.25391 c 1.41798,-2.34158 3.07127,-4.59309 5.00781,-6.72656 27.25851,-30.133878 89.71049,-20.587167 98.68164,21.73828 2.76036,13.2267 1.03594,28.63787 -2.64453,41.51953 -1.61021,5.52071 -3.45089,9.54743 -0.23047,14.95312 4.83063,7.82101 2.76123,12.87997 0.46094,21.6211 -0.61143,2.4075 -1.27754,4.36535 -2.09179,6.07812 l 14.34765,14.34766 c 3.75741,-4.94268 4.72785,-14.93311 5.91602,-18.81445 1.26516,-3.91051 8.9713,-30.82501 -2.99024,-27.14454 2.87537,-5.06065 4.02497,-11.27052 4.83008,-16.90625 2.30029,-14.72189 3.21996,-30.82432 -1.26562,-45.20117 -9.3162,-29.90384 -37.95423,-46.695114 -68.20313,-47.615232 -0.95965,-0.03235 -1.91962,-0.04919 -2.87891,-0.05078 z m -73.6562,56.752893 c -1.66443,11.15384 -0.95818,18.99114 0.0721,32.20414 0.80511,6.90089 1.95385,14.6056 5.4043,20.8164 -11.15644,-3.33543 -5.17531,20.35752 -3.91015,24.49805 1.84024,5.86576 3.45162,26.91443 13.91796,24.03906 0.92012,9.3162 1.95406,18.86305 4.48438,27.94922 1.72522,6.09578 5.2911,11.27072 9.43164,15.98633 2.07026,2.30029 3.10525,2.53109 2.99023,5.52148 -0.11501,8.97116 0.11476,18.63193 -2.18554,27.37305 -2.3003,8.74113 -21.5069,12.42104 -29.21289,14.03125 -20.70267,4.25555 -39.58555,6.21209 -56.83777,19.09375 -20.12759,14.83691 -30.5957,37.9539 -30.5957,62.91211 h 319.74219 c 0,-33.92937 -20.47359,-63.83379 -52.67774,-74.99023 -15.527,-5.40569 -32.3187,-5.75056 -47.8457,-11.15625 -4.7156,-1.61021 -14.03107,-3.56501 -15.98633,-8.97071 -1.84023,-5.29068 -1.8405,-11.50077 -2.18555,-17.02148 -0.23003,-4.37056 -0.3457,-8.74272 -0.3457,-13.11328 0,-2.87537 7.3605,-8.9699 8.9707,-11.61524 3.10051,-5.16751 2.2643,-4.73493 4.51423,-10.74409 l -15.97735,-16.08961 c -0.42957,2.98431 -0.4721,2.74633 -0.70372,5.03158 -1.2569,6.946 -1.33705,8.81356 -4.85464,14.55603 -1.33394,2.17766 -9.66016,8.51003 -9.66016,10.69531 0,12.65163 -0.5759,25.53371 1.60938,38.07031 2.99039,17.8273 17.9426,22.08391 32.89453,28.17969 15.18196,5.86576 32.7781,3.67985 47.5,10.92578 15.18195,7.47596 29.78959,21.16314 34.16016,38.07032 H 156.24609 c 2.10064,-9.17646 7.08463,-16.22267 13.1875,-22.88477 -0.96652,1.01755 -1.35655,1.41992 0.73047,-0.80859 5.99759,-6.32355 3.14671,-3.2938 0.67383,-0.67774 6.33466,-6.50187 14.23228,-12.20114 22.78906,-15.42383 12.07656,-4.6006 25.76222,-4.37138 38.29883,-7.59179 10.35134,-2.64534 23.02502,-6.78575 31.07605,-14.26172 7.36095,-6.90089 8.16538,-17.48307 8.85547,-27.0293 0.57508,-8.05104 0.46093,-15.98608 0.46093,-24.03711 0,-5.63573 -6.55692,-8.85621 -9.77734,-13.34179 -5.17566,-7.01591 -5.40627,-17.48283 -6.44141,-25.87891 -0.46006,-3.68048 -0.57428,-8.39546 -3.67968,-10.92578 -3.45044,-2.76036 -5.98182,-4.25639 -7.70703,-8.62696 -2.3003,-5.98077 -3.10508,-12.42005 -4.94532,-18.63085 -1.15015,-4.02552 3.13431,-7.71754 4.74452,-11.05297 3.04202,-6.14742 -2.13392,-15.73427 -3.2207,-22.06008 -1.36566,-7.99887 -1.15361,-6.16907 -1.76796,-16.26 z m -51.14653,231.88187 c -0.22162,0.22747 -0.45611,0.44836 -0.67383,0.67774 -0.24949,0.26731 -0.48454,0.54013 -0.73047,0.80859 0.39484,-0.41568 0.85616,-0.90644 1.4043,-1.48633 z m 231.76953,-32.44726 c 12.99668,4.48558 -12.88165,-4.48557 0,0 z"
       style="opacity:1;fill:#ff5555;fill-opacity:1;stroke-width:8.06606885;stroke:#ff5555;stroke-opacity:1;stroke-miterlimit:4;stroke-dasharray:none"
       id="path57" /><path
       inkscape:connector-curvature="0"
       style="fill:#ff5555;fill-opacity:1;stroke-width:8.06606885;stroke:#ff5555;stroke-opacity:1;stroke-miterlimit:4;stroke-dasharray:none"
       id="path59"
       d="m 171.64991,316.33301 c 8.51231,-4.25616 17.75426,-5.229 27.1178,-6.20183 3.40492,-0.36481 4.98579,-2.6753 2.43209,-5.95862 -4.86418,-6.20183 -21.6456,-7.41788 -28.69866,-10.21478 -4.37776,-1.70245 -5.5938,-3.28332 -5.95862,-8.1475 -0.1216,-2.18888 -1.33765,-11.91723 0.36482,-13.49809 1.21604,-1.21605 8.87712,-0.72963 10.57959,-0.97284 6.93145,-0.85123 13.98451,-2.31048 20.55115,-4.86417 2.7969,-1.09445 5.47221,-2.4321 7.90429,-4.13456 2.91851,-2.18888 -2.18887,-7.53948 -3.52653,-10.45798 -4.13455,-9.12034 -5.95861,-19.09191 -6.56664,-29.06347 -1.21604,-19.57833 1.82407,-39.27826 -1.82407,-58.73497 -5.4722,-29.79309 -28.45544,-44.75045 -57.76212,-44.75045 -18.11906,0 -35.99492,6.20183 -46.088091,22.01042 -11.187613,17.38943 -10.579591,39.03503 -9.971568,58.85656 0.364813,11.30922 0.851232,22.74004 -0.729627,34.04925 -0.729627,4.86418 -1.824067,9.60676 -3.52653,14.22773 -1.337649,3.52653 -8.147501,12.28205 -5.472202,14.10612 10.093172,7.17467 27.117798,9.60675 39.278248,8.63391 0.36481,5.95863 1.45925,13.61971 -0.72963,19.21351 -3.40492,8.75553 -28.820259,11.06601 -36.481342,13.6197 -21.402388,7.17467 -37.210969,25.05052 -37.210969,48.7634 h 88.675561 c 1.58086,0 9.66108,-11.30922 11.36354,-13.13328 8.51232,-9.48515 24.9703,-17.63266 36.27951,-23.34806 10.9444,-5.47221 -17.75425,8.99873 0,0 z m -58.22264,17.02462 H 61.962678 c 8.633919,-14.34933 30.279516,-13.37649 44.507242,-18.48388 13.13328,-4.74257 21.52399,-12.76846 22.86164,-26.75298 0.12161,-1.58086 0.24321,-35.50851 -1.09444,-35.50851 -10.57959,-0.36481 -21.6456,-0.12161 -32.22519,-1.70246 8.39071,-27.1178 0.36482,-55.08683 4.86418,-82.44784 3.28332,-19.82153 15.93019,-30.76593 36.11653,-30.76593 19.33511,0 33.68444,8.99873 37.81899,28.45545 5.83701,28.21223 -2.43209,57.03249 6.56664,85.00153 -6.68824,1.70246 -13.7413,1.94567 -20.67275,2.18888 -3.40493,0.1216 -6.93146,0.24321 -10.33639,0.36481 -2.18888,0.12161 -1.45925,3.89134 -1.58085,5.71542 -1.21605,13.25488 -6.08023,34.17085 4.49936,44.87204 -11.67403,7.29627 -32.32089,17.38945 -39.86037,29.06347 z"
       sodipodi:nodetypes="ccccccccccccscccccccccsccccccccccsccccccc" /><path
       sodipodi:nodetypes="ccsccc"
       inkscape:connector-curvature="0"
       id="path880-6-9"
       d="m 154.00949,66.298434 c -4.18442,-4.18442 -4.18442,-10.966085 0,-15.140885 4.18443,-4.18443 10.95647,-4.18443 15.1409,0 L 456.30795,338.31512 c 4.18444,4.18442 4.18444,10.95646 0,15.1409 -4.1748,4.18442 -10.95647,4.18442 -15.14089,0"
       style="display:inline;fill:#ff5555;fill-opacity:1;fill-rule:nonzero;stroke-width:8.06606885;stroke:#ff5555;stroke-opacity:1;stroke-miterlimit:4;stroke-dasharray:none" /></g></svg>
