<?xml version="1.0" encoding="UTF-8" standalone="no"?>
<svg
   xmlns:dc="http://purl.org/dc/elements/1.1/"
   xmlns:cc="http://creativecommons.org/ns#"
   xmlns:rdf="http://www.w3.org/1999/02/22-rdf-syntax-ns#"
   xmlns:svg="http://www.w3.org/2000/svg"
   xmlns="http://www.w3.org/2000/svg"
   xmlns:sodipodi="http://sodipodi.sourceforge.net/DTD/sodipodi-0.dtd"
   xmlns:inkscape="http://www.inkscape.org/namespaces/inkscape"
   version="1.1"
   id="Layer_1"
   x="0px"
   y="0px"
   width="470"
   height="500"
   viewBox="0 0 470 500"
   xml:space="preserve"
   sodipodi:docname="mic_disabled.svg"
   inkscape:version="1.0 (4035a4f, 2020-05-01)"><defs
     id="defs976" /><sodipodi:namedview
     fit-margin-top="100"
     fit-margin-bottom="100"
     fit-margin-right="100"
     fit-margin-left="100"
     inkscape:document-rotation="0"
     pagecolor="#ffffff"
     bordercolor="#666666"
     borderopacity="1"
     objecttolerance="10"
     gridtolerance="10"
     guidetolerance="10"
     inkscape:pageopacity="0"
     inkscape:pageshadow="2"
     inkscape:window-width="1247"
     inkscape:window-height="651"
     id="namedview974"
     showgrid="false"
     inkscape:zoom="0.37613834"
     inkscape:cx="462.3633"
     inkscape:cy="301.2499"
     inkscape:window-x="1634"
     inkscape:window-y="704"
     inkscape:window-maximized="0"
     inkscape:current-layer="Layer_1" /><metadata
     id="metadata971"><rdf:RDF><rdf:Description
         about="https://iconscout.com/legal#licenses"
         dc:title="ios,arrow,thin,right"
         dc:description="ios,arrow,thin,right"
         dc:publisher="Iconscout"
         dc:date="2017-09-24"
         dc:format="image/svg+xml"
         dc:language="en"><dc:creator><rdf:Bag><rdf:li>Benjamin J Sperry</rdf:li></rdf:Bag></dc:creator></rdf:Description><cc:Work
         rdf:about=""><dc:format>image/svg+xml</dc:format><dc:type
           rdf:resource="http://purl.org/dc/dcmitype/StillImage" /><dc:title></dc:title></cc:Work></rdf:RDF></metadata><rect
     y="0"
     x="0"
     height="500"
     width="470"
     id="rect8876"
     style="fill:#000000;fill-opacity:0;stroke:none;stroke-width:21.0009;stroke-linejoin:miter;stroke-miterlimit:4;stroke-dasharray:none;stroke-opacity:1" /><path
     style="fill:#ff5555;fill-opacity:1;stroke-width:0.00115433"
     d="m 243.59915,356.50522 v 75.49286 c 0,5.80048 -4.69426,10.38892 -10.3793,10.38892 -5.79088,0 -10.38894,-4.69426 -10.38894,-10.38892 v -75.49286 c -31.85935,-2.50104 -60.51549,-16.57419 -81.88972,-37.94843 -23.66366,-23.67329 -38.34283,-56.32145 -38.34283,-92.27867 0,-5.79087 4.69426,-10.3793 10.3793,-10.3793 5.80048,0 10.38893,4.69425 10.38893,10.3793 0,30.16636 12.38013,57.62006 32.25376,77.5995 19.87363,19.87363 47.33695,32.25377 77.5995,32.25377 30.15672,0 57.62005,-12.38014 77.58988,-32.25377 0.37515,-0.37516 0.75031,-0.75994 1.11583,-1.13509 l -26.90539,-26.91501 c -13.15929,13.05349 -31.24373,21.15301 -51.10773,21.15301 -19.96983,0 -38.15044,-8.18609 -51.32898,-21.36464 C 169.4049,262.42773 161.2092,244.25673 161.2092,224.27729 V 152.01655 L 93.248315,84.05566 c -4.18442,-4.18442 -4.18442,-10.96609 0,-15.14089 4.18443,-4.18443 10.956475,-4.18443 15.140905,0 l 287.15757,287.15758 c 4.18443,4.18442 4.18443,10.95646 0,15.1409 -4.1748,4.18442 -10.95647,4.18442 -15.14089,0 L 326.61435,317.4217 c -0.37516,0.37516 -0.75031,0.75993 -1.12547,1.13509 -21.37425,21.36463 -50.03036,35.44739 -81.88973,37.94843 z m 26.59758,-95.50115 -88.00768,-88.00767 v 51.1847 c 0,14.28477 5.79088,27.16511 15.17939,36.55362 9.38849,9.38851 22.36503,15.17938 36.544,15.17938 14.1501,0 26.915,-5.68506 36.28429,-14.91003 z m 71.61623,-18.15176 c 0.82726,-5.40609 1.25053,-10.93724 1.25053,-16.57419 0,-5.79087 4.69425,-10.3793 10.38891,-10.3793 5.79087,0 10.38894,4.69425 10.38894,10.3793 0,11.78373 -1.57759,23.20193 -4.53074,34.07183 z M 233.91244,57.612 c 19.97944,0 38.15043,8.18609 51.33859,21.37425 13.17855,13.17854 21.36464,31.34955 21.36464,51.32899 v 77.33978 l -20.97023,-20.97024 v -56.47536 c 0,-14.27515 -5.79088,-27.15549 -15.17939,-36.544 -9.3885,-9.38852 -22.36504,-15.17938 -36.55361,-15.17938 -14.27515,0 -27.15551,5.79086 -36.54401,15.17938 -0.78879,0.78879 -1.55833,1.60643 -2.29902,2.44332 L 180.31328,81.36223 c 0.74069,-0.80802 1.50062,-1.60643 2.27018,-2.37598 C 195.77163,65.79809 213.94263,57.612 233.91244,57.612 Z"
     fill-rule="nonzero"
     id="path7573" /></svg>
