<?xml version="1.0" encoding="UTF-8" standalone="no"?>
<svg
   xmlns:dc="http://purl.org/dc/elements/1.1/"
   xmlns:cc="http://creativecommons.org/ns#"
   xmlns:rdf="http://www.w3.org/1999/02/22-rdf-syntax-ns#"
   xmlns:svg="http://www.w3.org/2000/svg"
   xmlns="http://www.w3.org/2000/svg"
   xmlns:sodipodi="http://sodipodi.sourceforge.net/DTD/sodipodi-0.dtd"
   xmlns:inkscape="http://www.inkscape.org/namespaces/inkscape"
   version="1.1"
   id="Layer_1"
   x="0px"
   y="0px"
   width="540"
   height="500"
   viewBox="0 0 540 500"
   xml:space="preserve"
   sodipodi:docname="mute-others.svg"
   inkscape:version="1.0 (4035a4f, 2020-05-01)"><defs
     id="defs976" /><sodipodi:namedview
     inkscape:pagecheckerboard="true"
     inkscape:document-rotation="0"
     pagecolor="#656565"
     bordercolor="#666666"
     borderopacity="1"
     objecttolerance="10"
     gridtolerance="10"
     guidetolerance="10"
     inkscape:pageopacity="0"
     inkscape:pageshadow="2"
     inkscape:window-width="1664"
     inkscape:window-height="1086"
     id="namedview974"
     showgrid="false"
     inkscape:zoom="0.50589819"
     inkscape:cx="105.77074"
     inkscape:cy="184.10064"
     inkscape:window-x="1794"
     inkscape:window-y="100"
     inkscape:window-maximized="0"
     inkscape:current-layer="g63"
     fit-margin-left="100"
     fit-margin-top="100"
     fit-margin-right="100"
     fit-margin-bottom="100"><inkscape:grid
       type="xygrid"
       id="grid15942" /></sodipodi:namedview><rect
     style="fill:#000000;fill-opacity:0;stroke:none;stroke-width:22.5105;stroke-linejoin:miter;stroke-miterlimit:4;stroke-dasharray:none;stroke-opacity:1;opacity:1"
     id="rect8876"
     width="540"
     height="500"
     x="0"
     y="0" /><metadata
     id="metadata971"><rdf:RDF><rdf:Description
         about="https://iconscout.com/legal#licenses"
         dc:title="ios,arrow,thin,right"
         dc:description="ios,arrow,thin,right"
         dc:publisher="Iconscout"
         dc:date="2017-09-24"
         dc:format="image/svg+xml"
         dc:language="en"><dc:creator><rdf:Bag><rdf:li>Benjamin J Sperry</rdf:li></rdf:Bag></dc:creator></rdf:Description><cc:Work
         rdf:about=""><dc:format>image/svg+xml</dc:format><dc:type
           rdf:resource="http://purl.org/dc/dcmitype/StillImage" /><dc:title></dc:title></cc:Work></rdf:RDF></metadata><g
     inkscape:groupmode="layer"
     id="g63"
     inkscape:label="people muted (aligned)"
     style="display:inline"><g
       id="g637896"><path
         id="path57"
         style="opacity:1;fill:#ff5555;fill-opacity:1;stroke-width:1.15015"
         d="m 295.64062,82.748047 c -24.22528,-0.04024 -48.13468,9.726914 -62.19335,28.947263 l 13.2539,13.25391 c 1.41798,-2.34158 3.07127,-4.59309 5.00781,-6.72656 27.25851,-30.133878 89.71049,-20.587167 98.68164,21.73828 2.76036,13.2267 1.03594,28.63787 -2.64453,41.51953 -1.61021,5.52071 -3.45089,9.54743 -0.23047,14.95312 4.83063,7.82101 2.76123,12.87997 0.46094,21.6211 -0.61143,2.4075 -1.27754,4.36535 -2.09179,6.07812 l 14.34765,14.34766 c 3.75741,-4.94268 4.72785,-14.93311 5.91602,-18.81445 1.26516,-3.91051 8.9713,-30.82501 -2.99024,-27.14454 2.87537,-5.06065 4.02497,-11.27052 4.83008,-16.90625 2.30029,-14.72189 3.21996,-30.82432 -1.26562,-45.20117 -9.3162,-29.90384 -37.95423,-46.695114 -68.20313,-47.615232 -0.95965,-0.03235 -1.91962,-0.04919 -2.87891,-0.05078 z m -73.6562,56.752893 c -1.66443,11.15384 -0.95818,18.99114 0.0721,32.20414 0.80511,6.90089 1.95385,14.6056 5.4043,20.8164 -11.15644,-3.33543 -5.17531,20.35752 -3.91015,24.49805 1.84024,5.86576 3.45162,26.91443 13.91796,24.03906 0.92012,9.3162 1.95406,18.86305 4.48438,27.94922 1.72522,6.09578 5.2911,11.27072 9.43164,15.98633 2.07026,2.30029 3.10525,2.53109 2.99023,5.52148 -0.11501,8.97116 0.11476,18.63193 -2.18554,27.37305 -2.3003,8.74113 -21.5069,12.42104 -29.21289,14.03125 -20.70267,4.25555 -39.58555,6.21209 -56.83777,19.09375 -20.12759,14.83691 -30.5957,37.9539 -30.5957,62.91211 h 319.74219 c 0,-33.92937 -20.47359,-63.83379 -52.67774,-74.99023 -15.527,-5.40569 -32.3187,-5.75056 -47.8457,-11.15625 -4.7156,-1.61021 -14.03107,-3.56501 -15.98633,-8.97071 -1.84023,-5.29068 -1.8405,-11.50077 -2.18555,-17.02148 -0.23003,-4.37056 -0.3457,-8.74272 -0.3457,-13.11328 0,-2.87537 7.3605,-8.9699 8.9707,-11.61524 3.10051,-5.16751 2.2643,-4.73493 4.51423,-10.74409 l -15.97735,-16.08961 c -0.42957,2.98431 -0.4721,2.74633 -0.70372,5.03158 -1.2569,6.946 -1.33705,8.81356 -4.85464,14.55603 -1.33394,2.17766 -9.66016,8.51003 -9.66016,10.69531 0,12.65163 -0.5759,25.53371 1.60938,38.07031 2.99039,17.8273 17.9426,22.08391 32.89453,28.17969 15.18196,5.86576 32.7781,3.67985 47.5,10.92578 15.18195,7.47596 29.78959,21.16314 34.16016,38.07032 H 156.24609 c 2.10064,-9.17646 7.08463,-16.22267 13.1875,-22.88477 -0.96652,1.01755 -1.35655,1.41992 0.73047,-0.80859 5.99759,-6.32355 3.14671,-3.2938 0.67383,-0.67774 6.33466,-6.50187 14.23228,-12.20114 22.78906,-15.42383 12.07656,-4.6006 25.76222,-4.37138 38.29883,-7.59179 10.35134,-2.64534 23.02502,-6.78575 31.07605,-14.26172 7.36095,-6.90089 8.16538,-17.48307 8.85547,-27.0293 0.57508,-8.05104 0.46093,-15.98608 0.46093,-24.03711 0,-5.63573 -6.55692,-8.85621 -9.77734,-13.34179 -5.17566,-7.01591 -5.40627,-17.48283 -6.44141,-25.87891 -0.46006,-3.68048 -0.57428,-8.39546 -3.67968,-10.92578 -3.45044,-2.76036 -5.98182,-4.25639 -7.70703,-8.62696 -2.3003,-5.98077 -3.10508,-12.42005 -4.94532,-18.63085 -1.15015,-4.02552 3.13431,-7.71754 4.74452,-11.05297 3.04202,-6.14742 -2.13392,-15.73427 -3.2207,-22.06008 -1.36566,-7.99887 -1.15361,-6.16907 -1.76796,-16.26 z m -51.14653,231.88187 c -0.22162,0.22747 -0.45611,0.44836 -0.67383,0.67774 -0.24949,0.26731 -0.48454,0.54013 -0.73047,0.80859 0.39484,-0.41568 0.85616,-0.90644 1.4043,-1.48633 z m 231.76953,-32.44726 c 12.99668,4.48558 -12.88165,-4.48557 0,0 z"
         sodipodi:nodetypes="cccccccccccccccsccccccccsccccccccscccccsccccccccccccscccccccccccccccc" /><path
         sodipodi:nodetypes="ccccccccccccscccccccccsccccccccccsccccccc"
         d="m 171.64991,316.33301 c 8.51231,-4.25616 17.75426,-5.229 27.1178,-6.20183 3.40492,-0.36481 4.98579,-2.6753 2.43209,-5.95862 -4.86418,-6.20183 -21.6456,-7.41788 -28.69866,-10.21478 -4.37776,-1.70245 -5.5938,-3.28332 -5.95862,-8.1475 -0.1216,-2.18888 -1.33765,-11.91723 0.36482,-13.49809 1.21604,-1.21605 8.87712,-0.72963 10.57959,-0.97284 6.93145,-0.85123 13.98451,-2.31048 20.55115,-4.86417 2.7969,-1.09445 5.47221,-2.4321 7.90429,-4.13456 2.91851,-2.18888 -2.18887,-7.53948 -3.52653,-10.45798 -4.13455,-9.12034 -5.95861,-19.09191 -6.56664,-29.06347 -1.21604,-19.57833 1.82407,-39.27826 -1.82407,-58.73497 -5.4722,-29.79309 -28.45544,-44.75045 -57.76212,-44.75045 -18.11906,0 -35.99492,6.20183 -46.088091,22.01042 -11.187613,17.38943 -10.579591,39.03503 -9.971568,58.85656 0.364813,11.30922 0.851232,22.74004 -0.729627,34.04925 -0.729627,4.86418 -1.824067,9.60676 -3.52653,14.22773 -1.337649,3.52653 -8.147501,12.28205 -5.472202,14.10612 10.093172,7.17467 27.117798,9.60675 39.278248,8.63391 0.36481,5.95863 1.45925,13.61971 -0.72963,19.21351 -3.40492,8.75553 -28.820259,11.06601 -36.481342,13.6197 -21.402388,7.17467 -37.210969,25.05052 -37.210969,48.7634 h 88.675561 c 1.58086,0 9.66108,-11.30922 11.36354,-13.13328 8.51232,-9.48515 24.9703,-17.63266 36.27951,-23.34806 10.9444,-5.47221 -17.75425,8.99873 0,0 z m -58.22264,17.02462 H 61.962678 c 8.633919,-14.34933 30.279516,-13.37649 44.507242,-18.48388 13.13328,-4.74257 21.52399,-12.76846 22.86164,-26.75298 0.12161,-1.58086 0.24321,-35.50851 -1.09444,-35.50851 -10.57959,-0.36481 -21.6456,-0.12161 -32.22519,-1.70246 8.39071,-27.1178 0.36482,-55.08683 4.86418,-82.44784 3.28332,-19.82153 15.93019,-30.76593 36.11653,-30.76593 19.33511,0 33.68444,8.99873 37.81899,28.45545 5.83701,28.21223 -2.43209,57.03249 6.56664,85.00153 -6.68824,1.70246 -13.7413,1.94567 -20.67275,2.18888 -3.40493,0.1216 -6.93146,0.24321 -10.33639,0.36481 -2.18888,0.12161 -1.45925,3.89134 -1.58085,5.71542 -1.21605,13.25488 -6.08023,34.17085 4.49936,44.87204 -11.67403,7.29627 -32.32089,17.38945 -39.86037,29.06347 z"
         id="path59"
         style="fill:#ff5555;fill-opacity:1;stroke-width:1.21604"
         inkscape:connector-curvature="0" /><path
         style="display:inline;fill:#ff5555;fill-opacity:1;fill-rule:nonzero;stroke-width:0.00115433"
         d="m 154.00949,66.298434 c -4.18442,-4.18442 -4.18442,-10.966085 0,-15.140885 4.18443,-4.18443 10.95647,-4.18443 15.1409,0 L 456.30795,338.31512 c 4.18444,4.18442 4.18444,10.95646 0,15.1409 -4.1748,4.18442 -10.95647,4.18442 -15.14089,0"
         id="path880-6-9"
         inkscape:connector-curvature="0"
         sodipodi:nodetypes="ccsccc" /></g></g></svg>
