<?xml version="1.0" encoding="UTF-8" standalone="no"?>
<svg
   xmlns:dc="http://purl.org/dc/elements/1.1/"
   xmlns:cc="http://creativecommons.org/ns#"
   xmlns:rdf="http://www.w3.org/1999/02/22-rdf-syntax-ns#"
   xmlns:svg="http://www.w3.org/2000/svg"
   xmlns="http://www.w3.org/2000/svg"
   xmlns:sodipodi="http://sodipodi.sourceforge.net/DTD/sodipodi-0.dtd"
   xmlns:inkscape="http://www.inkscape.org/namespaces/inkscape"
   version="1.1"
   id="Layer_1"
   x="0px"
   y="0px"
   width="500"
   height="500"
   viewBox="0 0 500 500"
   xml:space="preserve"
   sodipodi:docname="network.svg"
   inkscape:version="1.0 (4035a4f, 2020-05-01)"><rect
     style="fill:#000000;fill-opacity:0;stroke:none;stroke-width:21.6608;stroke-linejoin:miter;stroke-miterlimit:4;stroke-dasharray:none;stroke-opacity:1"
     id="rect8876"
     width="500"
     height="500"
     x="0"
     y="0" /><path
     style="fill:#e6e6e6;fill-opacity:1;stroke-width:0.624974"
     d="m 68.84282,254.7689 c 8.96846,7.99438 17.92969,15.55374 26.90506,22.67 11.84725,-17.99688 24.75738,-34.48876 38.78928,-49.40001 -2.64976,-4.99063 -4.1484,-10.68937 -4.1484,-16.72749 0,-2.98251 0.36255,-5.87626 1.05563,-8.65188 -14.65936,-9.50062 -29.74688,-20.09376 -45.45427,-31.8975 -11.61841,23.96188 -18.12175,50.83937 -18.12175,79.23063 h 0.0619 v 0.007 h -0.0619 c 0,1.92624 0.0619,3.84561 0.0937,5.75749 z m 25.82025,-99.84876 c 15.72242,11.86251 30.77245,22.49313 45.3655,32.00062 6.51076,-6.94625 15.7737,-11.28688 26.03407,-11.28688 8.14182,0 15.64119,2.73126 21.65006,7.32314 a 285.76282,285.7869 0 0 1 13.13833,-8.21626 c 18.57961,-10.92499 38.51602,-19.83563 59.91482,-26.61937 a 39.619789,39.623128 0 0 1 -0.23122,-4.30376 c 0,-5.44812 1.09249,-10.645 3.07794,-15.36874 C 241.8744,110.02262 216.1209,93.701381 186.47724,79.284501 161.74181,88.497011 139.55372,102.92824 121.23266,121.25076 A 183.44331,183.45878 0 0 0 94.65989,154.91951 Z M 211.44384,71.983874 c 23.44302,12.615627 44.34745,26.531257 62.65282,41.885646 6.11887,-5.36688 13.89873,-8.89564 22.46122,-9.70751 a 1098.0682,1098.1607 0 0 0 5.45504,-28.708759 C 285.51558,70.537628 268.05159,67.879519 249.9668,67.879519 v 0.03748 0 -0.03748 c -13.20518,0 -26.08592,1.424978 -38.50919,4.104355 z m 107.65715,9.522507 a 1115.9085,1116.0026 0 0 1 -4.7608,24.995619 c 11.93584,4.48126 21.15439,14.52064 24.49837,26.96627 16.15809,-1.18813 32.96543,-1.41751 50.46643,-0.65001 -3.37335,-3.99999 -6.90125,-7.86874 -10.59894,-11.56687 -16.91861,-16.91251 -37.13632,-30.510009 -59.60506,-39.745009 z m 84.05902,70.070019 c -22.36556,-1.67501 -43.57178,-1.72001 -63.67151,-0.20627 -1.64608,8.6 -6.06751,16.21814 -12.28261,21.88751 a 242.26772,242.28813 0 0 1 14.3569,25.34187 c 6.23708,12.76376 11.37415,26.16938 15.42683,40.21751 1.23303,-0.12558 2.48745,-0.2 3.76478,-0.2 16.00969,0 29.56246,10.54936 34.07203,25.08437 11.80271,0.41377 24.00424,0.635 36.67065,0.70876 0.37488,-4.76125 0.57498,-9.55938 0.57498,-14.40938 h -0.0613 v -0.0141 h 0.0613 c 0,-36.23814 -10.62207,-70.01813 -28.91321,-98.40938 z m 26.04926,130.66124 c -11.53737,-0.0812 -22.69811,-0.27999 -33.53429,-0.64187 -2.89345,13.90002 -13.88359,24.84 -27.82003,27.66001 0.61235,16.66124 0.0613,34.07501 -1.76429,52.2575 10.21608,-1.07812 20.57963,-2.56188 31.11993,-4.42938 15.8924,-21.79875 27.06021,-47.245 31.99856,-74.84563 z m -21.7162,90.95315 0.0613,0.18498 -0.21236,0.0368 a 199.53945,199.55627 0 0 1 -15.95128,18.00438 c -36.16135,36.16439 -86.15528,58.53939 -141.39004,58.54688 v 0.0362 0 -0.0375 c -55.22723,0 -105.22107,-22.38187 -141.39738,-58.55374 C 72.44187,355.23816 50.069494,305.23942 50.061883,250.00004 H 50 v -0.007 h 0.06188 c 0,-55.2394 22.37999,-105.23753 58.54886,-141.4094 36.16818,-36.171886 86.15531,-58.546881 141.38174,-58.546881 v -0.03679 0 0.03748 c 55.24158,0 105.2362,22.374382 141.40496,58.553141 36.16818,36.16438 58.54126,86.1625 58.54126,141.39438 H 450 v 0.0141 h -0.0613 c 0,46.48438 -15.84718,89.24812 -42.42007,123.19065 z m -27.98289,4.725 a 434.19345,434.23004 0 0 1 -15.57489,1.79375 541.46192,541.50756 0 0 1 -2.14785,13.96624 182.58463,182.60001 0 0 0 16.91861,-14.93375 z m -38.4716,29.77125 c 1.8234,-9.06501 3.37347,-17.93812 4.65034,-26.62689 -32.61785,1.69814 -63.78961,-0.65687 -93.95725,-7.0275 -5.89019,6.99813 -14.7113,11.45626 -24.57286,11.45626 -0.72998,0 -1.45372,-0.0288 -2.16231,-0.073 -5.69089,14.51999 -11.20528,28.64937 -16.25363,41.99564 a 182.42213,182.43751 0 0 0 41.21769,4.7025 v -0.037 0 0.037 c 33.16484,0 64.26974,-8.89501 91.06367,-24.42689 z m -149.5168,14.82311 c 5.52884,-14.69748 11.04959,-28.89374 16.65986,-43.22188 -7.06376,-5.17498 -11.93584,-13.16875 -12.96135,-22.33 -32.3599,-12.8225 -63.73098,-30.61311 -94.74712,-53.40125 -4.97518,8.37814 -9.73672,17.06688 -14.29806,26.05812 8.91666,18.29251 20.82315,34.88751 35.06126,49.12689 19.56097,19.56251 43.52835,34.69562 70.28541,43.76812 z M 77.34705,308.09702 a 455.6679,455.7063 0 0 1 8.83548,-15.41374 604.0004,604.0513 0 0 1 -15.89927,-12.97001 180.68854,180.70377 0 0 0 7.06379,28.38375 z M 198.77119,197.05015 a 35.482013,35.485003 0 0 1 2.97465,14.26188 c 0,3.41062 -0.48731,6.71748 -1.3805,9.83999 19.59831,9.37499 38.86302,16.81626 58.37944,22.6925 7.09314,-21.24562 13.91389,-43.30999 20.26201,-66.39375 a 40.006008,40.009379 0 0 1 -12.37145,-12.43123 c -20.32077,6.3925 -39.20216,14.80061 -56.75522,25.12061 a 260.41933,260.44128 0 0 0 -11.10893,6.90936 z m -7.5513,39.55999 c -6.45142,6.42249 -15.33812,10.38626 -25.15531,10.38626 a 35.606379,35.609379 0 0 1 -19.44213,-5.75 c -13.2502,14.18062 -25.44409,29.91124 -36.67131,47.07437 29.08263,21.49626 58.37944,38.37876 88.44321,50.67001 5.27761,-10.53437 16.17983,-17.76876 28.76504,-17.76876 1.21105,0 2.39989,0.0669 3.58029,0.2 7.47739,-19.54062 14.96936,-39.68562 22.23254,-60.64374 -20.67518,-6.25252 -41.04789,-14.17314 -61.75233,-24.16876 z m 120.35304,-54.53813 a 40.009132,40.012504 0 0 1 -11.1973,1.5875 c -1.506,0 -2.99651,-0.0745 -4.45833,-0.24375 -6.25952,22.66252 -12.9469,44.33564 -19.9076,65.20501 17.08784,4.31062 34.52256,7.54375 52.71804,9.92125 2.64222,-5.36687 6.59866,-9.95875 11.44818,-13.38375 -3.82331,-13.56812 -8.73228,-26.46437 -14.71108,-38.70375 -4.11849,-8.43 -8.75426,-16.54312 -13.89191,-24.38251 z m 38.33916,126.2169 c -13.85513,-4.41438 -24.04171,-17.06 -24.79402,-32.19313 -18.90406,-2.51688 -37.06207,-5.92751 -54.88046,-10.48938 -7.51441,21.68813 -15.2575,42.51251 -22.97815,62.6875 7.32183,5.89063 12.01658,14.93375 12.01658,25.06188 0,1.33563 -0.0891,2.65 -0.24371,3.94188 28.49935,5.66875 58.01068,7.58124 88.93873,5.72063 2.03727,-19.16313 2.67159,-37.39688 1.94103,-54.73002 z"
     fill-rule="nonzero"
     id="path7305" /><defs
     id="defs976" /><sodipodi:namedview
     inkscape:pagecheckerboard="true"
     inkscape:document-rotation="0"
     pagecolor="#656565"
     bordercolor="#666666"
     borderopacity="1"
     objecttolerance="10"
     gridtolerance="10"
     guidetolerance="10"
     inkscape:pageopacity="0"
     inkscape:pageshadow="2"
     inkscape:window-width="1290"
     inkscape:window-height="680"
     id="namedview974"
     showgrid="false"
     inkscape:zoom="0.31221736"
     inkscape:cx="680.08029"
     inkscape:cy="61.120707"
     inkscape:window-x="1826"
     inkscape:window-y="127"
     inkscape:window-maximized="0"
     inkscape:current-layer="Layer_1"
     fit-margin-left="100"
     fit-margin-top="100"
     fit-margin-right="100"
     fit-margin-bottom="100" /><metadata
     id="metadata971"><rdf:RDF><rdf:Description
         about="https://iconscout.com/legal#licenses"
         dc:title="ios,arrow,thin,right"
         dc:description="ios,arrow,thin,right"
         dc:publisher="Iconscout"
         dc:date="2017-09-24"
         dc:format="image/svg+xml"
         dc:language="en"><dc:creator><rdf:Bag><rdf:li>Benjamin J Sperry</rdf:li></rdf:Bag></dc:creator></rdf:Description><cc:Work
         rdf:about=""><dc:format>image/svg+xml</dc:format><dc:type
           rdf:resource="http://purl.org/dc/dcmitype/StillImage" /><dc:title></dc:title></cc:Work></rdf:RDF></metadata></svg>
