<?xml version="1.0" encoding="UTF-8" standalone="no"?>
<svg
   xmlns:dc="http://purl.org/dc/elements/1.1/"
   xmlns:cc="http://creativecommons.org/ns#"
   xmlns:rdf="http://www.w3.org/1999/02/22-rdf-syntax-ns#"
   xmlns:svg="http://www.w3.org/2000/svg"
   xmlns="http://www.w3.org/2000/svg"
   xmlns:sodipodi="http://sodipodi.sourceforge.net/DTD/sodipodi-0.dtd"
   xmlns:inkscape="http://www.inkscape.org/namespaces/inkscape"
   version="1.1"
   id="Layer_1"
   x="0px"
   y="0px"
   width="1431.1399"
   height="648"
   viewBox="0 0 1431.1399 648"
   xml:space="preserve"
   sodipodi:docname="outgoing_disallowed.svg"
   inkscape:version="1.0 (4035a4f, 2020-05-01)"><defs
     id="defs976" /><sodipodi:namedview
     fit-margin-top="100"
     fit-margin-bottom="100"
     fit-margin-right="100"
     fit-margin-left="100"
     inkscape:document-rotation="0"
     pagecolor="#ffffff"
     bordercolor="#666666"
     borderopacity="1"
     objecttolerance="10"
     gridtolerance="10"
     guidetolerance="10"
     inkscape:pageopacity="0"
     inkscape:pageshadow="2"
     inkscape:window-width="952"
     inkscape:window-height="562"
     id="namedview974"
     showgrid="false"
     inkscape:zoom="0.39392809"
     inkscape:cx="603.28599"
     inkscape:cy="391.5324"
     inkscape:window-x="1781"
     inkscape:window-y="728"
     inkscape:window-maximized="0"
     inkscape:current-layer="Layer_1" /><g
     id="g1996"
     transform="translate(48.079,68)"
     style="fill:#ff5555"><path
       d="m 367.951,354.654 -26.616,-26.562 -9.568,-9.548 -4.698,-4.706 L 187,174.041 v 0.346 L 76.112,63.531 51.921,87.572 187,222.47 v 28.816 c 0,37.79 31.121,68.714 68.91,68.714 a 68.6,68.6 0 0 0 24.565,-4.545 l 32.389,32.274 c -17.333,8.793 -36.812,13.86 -56.782,13.86 -62.986,0 -121.365,-48.59 -121.365,-116.59 H 95.773 C 95.773,322 158,387.701 233,398.013 V 480 h 46 v -81.987 c 22,-3.352 43.066,-11.222 61.627,-22.622 l 95.278,95.078 24.033,-24 -33.847,-33.785 -58.216,-57.959 58.224,57.959 z"
       id="path536"
       style="fill:#ff5555" /><path
       d="M 325,251.286 V 100.714 C 325,62.924 293.791,32 256,32 c -37.791,0 -69,30.924 -69,68.714 v 25.244 l 137.109,136.968 c 0.67,-3.791 0.891,-7.679 0.891,-11.64 z"
       id="path538"
       style="fill:#ff5555" /><path
       d="m 416.439,245 h -38.941 c 0,20.496 -5.498,39.676 -14.931,56.197 l 27.572,27.516 c 16.523,-24.11 26.3,-52.787 26.3,-83.713 z"
       id="path540"
       style="fill:#ff5555" /><path
       d="m 459.999,446.427 -33.897,-33.743 33.855,33.785 z"
       id="path542"
       style="fill:#ff5555" /></g><metadata
     id="metadata971"><rdf:RDF><rdf:Description
         about="https://iconscout.com/legal#licenses"
         dc:title="ios,arrow,thin,right"
         dc:description="ios,arrow,thin,right"
         dc:publisher="Iconscout"
         dc:date="2017-09-24"
         dc:format="image/svg+xml"
         dc:language="en"><dc:creator><rdf:Bag><rdf:li>Benjamin J Sperry</rdf:li></rdf:Bag></dc:creator></rdf:Description><cc:Work
         rdf:about=""><dc:format>image/svg+xml</dc:format><dc:type
           rdf:resource="http://purl.org/dc/dcmitype/StillImage" /><dc:title></dc:title></cc:Work></rdf:RDF></metadata><path
     id="path1277"
     d="m 963.83991,252.92817 c 0,-1.2 -0.2,-2.4 -0.2,-3.6 0,-64.3 52.79999,-117.2 116.80009,-117.2 46.1,0 85.8,27.9 104.4,67 8.1,-4.1 17.1,-6.4 26.8,-6.4 29.5999,0 54.0998,23.7 58.8998,52 35.2,12.2 60.6001,44.2 60.6001,83.8 0,49.8 -40.1001,91.6 -89.6,91.6 H 965.13991 c -45,0 -81.99994,-38.9 -81.99994,-84.3 0,-45.6 35.3999,-82.8 80.69994,-82.9 z m 1.8,150.8 3.2,0.4 h 271.89999 c 40.8999,0 74.2,-34.9 74.2,-76.1 0,-31.9 -20.2001,-58.4 -50.2001,-68.8 l -8.4,-3 -1.5,-8.8 c -3.5999,-21.6 -22.0999,-39.3 -43.8998,-39.3 -6.9,0 -13.7,1.6 -19.9,4.8 l -13.5,6.8 -6.5,-13.7 c -16.6,-34.9 -52.1,-58.2 -90.4,-58.2 -55.3001,0 -100.90009,44.1 -100.90009,99.7 0,13.3 0.2,20.3 0.2,20.3 l -15.2,0.1 c -36.7,0.5 -65.60004,30.5 -65.60004,67.4 0,36.9 29.80004,68.2 66.50004,68.4 z"
     style="fill:#e6e6e6" /></svg>
