<?xml version="1.0" encoding="UTF-8" standalone="no"?>
<svg
   xmlns:dc="http://purl.org/dc/elements/1.1/"
   xmlns:cc="http://creativecommons.org/ns#"
   xmlns:rdf="http://www.w3.org/1999/02/22-rdf-syntax-ns#"
   xmlns:svg="http://www.w3.org/2000/svg"
   xmlns="http://www.w3.org/2000/svg"
   xmlns:sodipodi="http://sodipodi.sourceforge.net/DTD/sodipodi-0.dtd"
   xmlns:inkscape="http://www.inkscape.org/namespaces/inkscape"
   inkscape:version="1.0 (4035a4f, 2020-05-01)"
   sodipodi:docname="outgoing_allowed.svg"
   xml:space="preserve"
   viewBox="0 0 1200 500"
   height="500"
   width="1200"
   y="0px"
   x="0px"
   id="Layer_1"
   version="1.1"><defs
     id="defs976" /><sodipodi:namedview
     fit-margin-bottom="100"
     fit-margin-right="100"
     fit-margin-top="100"
     fit-margin-left="100"
     inkscape:current-layer="Layer_1"
     inkscape:window-maximized="0"
     inkscape:window-y="258"
     inkscape:window-x="2297"
     inkscape:cy="61.120707"
     inkscape:cx="-144.95709"
     inkscape:zoom="0.31221736"
     showgrid="false"
     id="namedview974"
     inkscape:window-height="585"
     inkscape:window-width="1137"
     inkscape:pageshadow="2"
     inkscape:pageopacity="0"
     guidetolerance="10"
     gridtolerance="10"
     objecttolerance="10"
     borderopacity="1"
     bordercolor="#666666"
     pagecolor="#656565"
     inkscape:document-rotation="0"
     inkscape:pagecheckerboard="true" /><rect
     y="0"
     x="0"
     height="500"
     width="1200"
     id="rect8876"
     style="fill:#000000;fill-opacity:0;stroke:none;stroke-width:33.5568;stroke-linejoin:miter;stroke-miterlimit:4;stroke-dasharray:none;stroke-opacity:1" /><path
     id="path969"
     d="m 593.22835,343.70692 c -3.1,-3.1 -3,-8 0,-11.3 l 66.40003,-74.4 H 435.0284 c -4.4,0 -8,-3.6 -8,-8 0,-4.4 3.6,-8 8,-8 h 224.59998 l -66.30003,-74.4 c -2.9,-3.4 -3.2,-8.1 -0.1,-11.2 3.1,-3.1 8.5,-3.3 11.4,-0.1 0,0 79.20003,87 80.00003,88 0.8,1 2.4,2.8 2.4,5.7 0,2.9 -1.6,4.9 -2.4,5.7 -0.8,0.8 -80.00003,88 -80.00003,88 -1.5,1.5 -3.6,2.3 -5.7,2.3 -2.1,0 -4.1,-0.8 -5.7,-2.3 z"
     style="fill:#e6e6e6"
     sodipodi:nodetypes="cccsssccscssscsc" /><metadata
     id="metadata971"><rdf:RDF><rdf:Description
         dc:language="en"
         dc:format="image/svg+xml"
         dc:date="2017-09-24"
         dc:publisher="Iconscout"
         dc:description="ios,arrow,thin,right"
         dc:title="ios,arrow,thin,right"
         about="https://iconscout.com/legal#licenses"><dc:creator><rdf:Bag><rdf:li>Benjamin J Sperry</rdf:li></rdf:Bag></dc:creator></rdf:Description><cc:Work
         rdf:about=""><dc:format>image/svg+xml</dc:format><dc:type
           rdf:resource="http://purl.org/dc/dcmitype/StillImage" /><dc:title></dc:title></cc:Work></rdf:RDF></metadata><path
     style="fill:#e6e6e6;fill-opacity:1;stroke-width:0.0998643"
     d="m 231.11822,356.50477 v 75.49708 c 0,5.79209 -4.69361,10.38583 -10.38584,10.38583 -5.79211,0 -10.38585,-4.6936 -10.38585,-10.38583 V 356.50477 C 178.48998,354.0082 149.82905,339.92739 128.45819,318.55651 104.79047,294.8888 90.11048,262.23332 90.11048,226.28233 c 0,-5.7921 4.6936,-10.38585 10.38583,-10.38585 5.79211,0 10.38586,4.69361 10.38586,10.38585 0,30.15887 12.3831,57.62146 32.256,77.59419 19.87292,19.87292 47.33547,32.25604 77.59421,32.25604 30.15889,0 57.62145,-12.38312 77.59421,-32.25604 19.8729,-19.87288 32.25602,-47.33542 32.25602,-77.59419 0,-5.7921 4.6936,-10.38585 10.38583,-10.38585 5.79212,0 10.38586,4.69361 10.38586,10.38585 0,35.95099 -14.68,68.60647 -38.34772,92.27418 -21.37086,21.37088 -50.03178,35.45169 -81.88836,37.94826 z M 221.43143,57.612323 c 19.97277,0 38.14798,8.188804 51.33001,21.370835 13.18205,13.182039 21.37086,31.357262 21.37086,51.330032 v 93.97186 c 0,19.97278 -8.18881,38.14802 -21.37086,51.33002 -13.18203,13.18202 -31.35724,21.37086 -51.33001,21.37086 -19.97277,0 -38.14799,-8.18884 -51.33002,-21.37086 -13.18203,-13.182 -21.37085,-31.35724 -21.37085,-51.33002 v -93.97186 c 0,-19.97277 8.18882,-38.147993 21.37085,-51.330032 13.18203,-13.182031 31.35725,-21.370835 51.33002,-21.370835 z m 36.55016,36.050834 c -9.38721,-9.387204 -22.36949,-15.179319 -36.55016,-15.179319 -14.28053,0 -27.16297,5.792115 -36.55017,15.179319 -9.38719,9.387193 -15.1793,22.369483 -15.1793,36.550153 v 93.9719 c 0,14.28052 5.79211,27.16295 15.1793,36.55017 9.3872,9.38719 22.3695,15.17927 36.55017,15.17927 14.28052,0 27.16295,-5.79208 36.55016,-15.17927 9.38721,-9.38721 15.17932,-22.36952 15.17932,-36.55016 v -93.9719 c 0,-14.28051 -5.79211,-27.16297 -15.17932,-36.550163 z"
     fill-rule="nonzero"
     id="path7563" /><path
     id="path7305"
     fill-rule="nonzero"
     d="m 762.27635,254.12253 c 7.75359,6.91087 15.50092,13.44568 23.26048,19.59744 10.24241,-15.55769 21.40372,-29.81436 33.53484,-42.70463 -2.29082,-4.31423 -3.58645,-9.2406 -3.58645,-14.46035 0,-2.57828 0.31344,-5.07983 0.91263,-7.47926 -12.67359,-8.21296 -25.71734,-17.37037 -39.29699,-27.57431 -10.04457,20.71424 -15.66696,43.94892 -15.66696,68.4922 h 0.0535 v 0.006 h -0.0535 c 0,1.66517 0.0535,3.3244 0.081,4.97715 z m 22.32262,-86.31588 c 13.59264,10.25474 26.60398,19.44455 39.22024,27.66346 5.62881,-6.0048 13.63698,-9.75713 22.50747,-9.75713 7.03892,0 13.52242,2.36108 18.71732,6.33061 a 247.0531,247.0531 0 0 1 11.3586,-7.10268 c 16.0628,-9.44429 33.2986,-17.14723 51.7987,-23.01155 a 34.252853,34.252853 0 0 1 -0.1999,-3.72045 c 0,-4.70972 0.9445,-9.20224 2.661,-13.28576 -18.7935,-15.92888 -41.0584,-30.03804 -66.6865,-42.50095 -21.38475,7.96391 -40.56722,20.43922 -56.40649,36.27841 a 158.5939,158.5939 0 0 0 -22.97319,29.1055 z M 885.5605,96.11106 c 20.2674,10.90578 38.3401,22.93537 54.1658,36.20872 5.29,-4.63948 12.016,-7.68998 19.4186,-8.39181 a 949.32277,949.32277 0 0 0 4.7161,-24.81775 c -14.2626,-4.24939 -29.3609,-6.54724 -44.9959,-6.54724 v 0.0324 0 -0.0324 c -11.4164,0 -22.5523,1.23185 -33.2927,3.54808 z m 93.0738,8.23188 a 964.74646,964.74646 0 0 1 -4.1159,21.60787 c 10.319,3.8739 18.2888,12.5526 21.1798,23.31143 13.9693,-1.0271 28.4999,-1.22539 43.6302,-0.56191 -2.9164,-3.45786 -5.9664,-6.80226 -9.1632,-9.99917 -14.6268,-14.62029 -32.1058,-26.37487 -51.5309,-34.35822 z m 72.6723,60.57316 c -19.3359,-1.44799 -37.6695,-1.48689 -55.0465,-0.17831 -1.4231,7.43441 -5.2456,14.02003 -10.6188,18.92101 a 209.44989,209.44989 0 0 1 12.4121,21.90719 c 5.3922,11.03384 9.8334,22.62254 13.3371,34.76668 1.066,-0.10856 2.1505,-0.1729 3.2548,-0.1729 13.841,0 25.5579,9.11957 29.4566,21.68459 10.2039,0.35769 20.7526,0.54894 31.7032,0.6127 0.3241,-4.11594 0.4971,-8.26376 0.4971,-12.45642 h -0.053 v -0.0122 h 0.053 c 0,-31.32664 -9.1832,-60.5283 -24.9966,-85.07158 z m 22.5206,112.95222 c -9.9745,-0.0702 -19.6234,-0.24204 -28.9917,-0.55487 -2.5015,12.01609 -12.0029,21.47334 -24.0515,23.91114 0.5294,14.40308 0.053,29.45669 -1.5253,45.17484 8.8322,-0.932 17.7919,-2.21466 26.9044,-3.82905 13.7396,-18.84428 23.3946,-40.8417 27.664,-64.70151 z m -18.7745,78.62592 0.053,0.15991 -0.1836,0.0318 a 172.50964,172.50964 0 0 1 -13.7905,15.56418 c -31.2629,31.26289 -74.4846,50.60532 -122.2372,50.6118 v 0.0313 0 -0.0324 c -47.7461,0 -90.96772,-19.34837 -122.24355,-50.61773 -31.26298,-31.2683 -50.60477,-74.49052 -50.61135,-122.24309 h -0.0535 v -0.006 h 0.0535 c 0,-47.75259 19.34837,-90.97428 50.61777,-122.24364 31.2688,-31.26937 74.48463,-50.6118 122.23003,-50.6118 v -0.0318 0 0.0324 c 47.7585,0 90.9808,19.3419 122.2501,50.61721 31.2688,31.26288 50.6112,74.48456 50.6112,122.23065 h 0.053 v 0.0122 h -0.053 c 0,40.18417 -13.7005,77.15198 -36.6738,106.49415 z m -24.1923,4.0846 a 375.37717,375.37717 0 0 1 -13.4651,1.55064 468.11495,468.11495 0 0 1 -1.8569,12.07334 157.85153,157.85153 0 0 0 14.6268,-12.90972 z m -33.2602,25.73624 c 1.5764,-7.83639 2.9165,-15.5069 4.0204,-23.01804 -28.1994,1.46798 -55.1486,-0.56785 -81.2297,-6.07504 -5.0923,6.04965 -12.7185,9.90355 -21.2442,9.90355 -0.6311,0 -1.2568,-0.0249 -1.8694,-0.0631 -4.92,12.55204 -9.6874,24.76641 -14.0519,36.30381 a 157.71105,157.71105 0 0 0 35.6343,4.06515 v -0.032 0 0.032 c 28.6723,0 55.5637,-7.68943 78.7281,-21.11622 z m -129.2631,12.81408 c 4.7799,-12.70548 9.5528,-24.97766 14.4031,-37.36385 -6.1069,-4.4736 -10.319,-11.38394 -11.2056,-19.30353 -27.97639,-11.08462 -55.09791,-26.464 -81.91258,-46.16358 -4.30123,7.24262 -8.41777,14.75374 -12.36123,22.52637 7.7088,15.81325 18.00243,30.15907 30.31183,42.46853 16.91122,16.91113 37.63196,29.99319 60.76448,37.83606 z m -98.70851,-98.90628 a 393.94267,393.94267 0 0 1 7.63862,-13.32466 522.1819,522.1819 0 0 1 -13.74554,-11.21213 156.21229,156.21229 0 0 0 6.10692,24.53679 z M 874.6045,204.22662 a 30.675584,30.675584 0 0 1 2.5717,12.32891 c 0,2.94837 -0.4213,5.80704 -1.1935,8.50634 16.9435,8.10436 33.5986,14.53709 50.4713,19.6169 6.1323,-18.36612 12.0291,-37.44002 17.5173,-57.39515 a 34.586754,34.586754 0 0 1 -10.6956,-10.74638 c -17.5681,5.5261 -33.8918,12.79463 -49.0671,21.71592 a 225.14267,225.14267 0 0 0 -9.6041,5.97291 z m -6.5284,34.19827 c -5.5775,5.55203 -13.2604,8.97857 -21.74774,8.97857 a 30.783103,30.783103 0 0 1 -16.80848,-4.97068 c -11.45532,12.25867 -21.99741,25.85726 -31.70378,40.6942 25.14307,18.58279 50.4713,33.17714 76.4626,43.80251 4.5627,-9.10661 13.9881,-15.36049 24.8685,-15.36049 1.047,0 2.0748,0.0578 3.0953,0.17289 6.4645,-16.8922 12.9416,-34.30687 19.2209,-52.42446 -17.8745,-5.40509 -35.4875,-12.2522 -53.3873,-20.89307 z M 972.126,191.27853 a 34.589455,34.589455 0 0 1 -9.6805,1.37234 c -1.302,0 -2.5906,-0.0644 -3.8544,-0.21072 -5.4116,19.59098 -11.1931,38.32666 -17.2109,56.36753 14.7731,3.72638 29.8461,6.52131 45.5768,8.57658 2.2843,-4.63948 5.7048,-8.609 9.8974,-11.5698 -3.3054,-11.72918 -7.5494,-22.87755 -12.7183,-33.45808 -3.5606,-7.28745 -7.5684,-14.30097 -12.0101,-21.07785 z m 33.1457,109.11023 c -11.9783,-3.81608 -20.785,-14.74779 -21.4354,-27.82987 -16.3433,-2.17576 -32.0416,-5.12413 -47.4463,-9.06771 -6.4965,18.74865 -13.1907,36.75062 -19.8655,54.19122 6.33,5.09225 10.3888,12.90972 10.3888,21.66515 0,1.1546 -0.077,2.29083 -0.2107,3.40762 24.6388,4.90044 50.1525,6.55372 76.891,4.94529 1.7613,-16.56588 2.3097,-32.32834 1.6781,-47.31225 z"
     style="fill:#e6e6e6;fill-opacity:1;stroke-width:0.540292" /></svg>
