<?xml version="1.0" encoding="UTF-8" standalone="no"?>
<svg
   xmlns:dc="http://purl.org/dc/elements/1.1/"
   xmlns:cc="http://creativecommons.org/ns#"
   xmlns:rdf="http://www.w3.org/1999/02/22-rdf-syntax-ns#"
   xmlns:svg="http://www.w3.org/2000/svg"
   xmlns="http://www.w3.org/2000/svg"
   xmlns:sodipodi="http://sodipodi.sourceforge.net/DTD/sodipodi-0.dtd"
   xmlns:inkscape="http://www.inkscape.org/namespaces/inkscape"
   version="1.1"
   id="Layer_1"
   x="0px"
   y="0px"
   width="1389.2404"
   height="648"
   viewBox="0 0 1389.2404 648"
   xml:space="preserve"
   sodipodi:docname="outgoing_allowed_active.svg"
   inkscape:version="1.0 (4035a4f, 2020-05-01)"><defs
     id="defs976" /><sodipodi:namedview
     inkscape:pagecheckerboard="false"
     inkscape:document-rotation="0"
     pagecolor="#ffffff"
     bordercolor="#666666"
     borderopacity="1"
     objecttolerance="10"
     gridtolerance="10"
     guidetolerance="10"
     inkscape:pageopacity="0"
     inkscape:pageshadow="2"
     inkscape:window-width="1202"
     inkscape:window-height="561"
     id="namedview974"
     showgrid="false"
     inkscape:zoom="0.39392809"
     inkscape:cx="622.2985"
     inkscape:cy="391.0804"
     inkscape:window-x="2497"
     inkscape:window-y="123"
     inkscape:window-maximized="0"
     inkscape:current-layer="Layer_1"
     fit-margin-left="100"
     fit-margin-top="100"
     fit-margin-right="100"
     fit-margin-bottom="100" /><path
     style="fill:#b0e6a9;fill-opacity:1"
     d="m 703.22835,417.70692 c -3.1,-3.1 -3,-8 0,-11.3 l 66.40003,-74.4 H 485.0284 c -4.4,0 -8,-3.6 -8,-8 0,-4.4 3.6,-8 8,-8 h 284.59998 l -66.30003,-74.4 c -2.9,-3.4 -3.2,-8.1 -0.1,-11.2 3.1,-3.1 8.5,-3.3 11.4,-0.1 0,0 79.20003,87 80.00003,88 0.8,1 2.4,2.8 2.4,5.7 0,2.9 -1.6,4.9 -2.4,5.7 -0.8,0.8 -80.00003,88 -80.00003,88 -1.5,1.5 -3.6,2.3 -5.7,2.3 -2.1,0 -4.1,-0.8 -5.7,-2.3 z"
     id="path969" /><metadata
     id="metadata971"><rdf:RDF><rdf:Description
         about="https://iconscout.com/legal#licenses"
         dc:title="ios,arrow,thin,right"
         dc:description="ios,arrow,thin,right"
         dc:publisher="Iconscout"
         dc:date="2017-09-24"
         dc:format="image/svg+xml"
         dc:language="en"><dc:creator><rdf:Bag><rdf:li>Benjamin J Sperry</rdf:li></rdf:Bag></dc:creator></rdf:Description><cc:Work
         rdf:about=""><dc:format>image/svg+xml</dc:format><dc:type
           rdf:resource="http://purl.org/dc/dcmitype/StillImage" /><dc:title /></cc:Work></rdf:RDF></metadata><path
     style="fill:#e6e6e6"
     id="path1277"
     d="m 921.94045,300.8 c 0,-1.2 -0.2,-2.4 -0.2,-3.6 0,-64.3 52.8,-117.2 116.80005,-117.2 46.1,0 85.8,27.9 104.4,67 8.1,-4.1 17.1,-6.4 26.8,-6.4 29.5999,0 54.0998,23.7 58.8998,52 35.2,12.2 60.6001,44.2 60.6001,83.8 0,49.8 -40.1001,91.6 -89.6,91.6 H 923.24045 c -45,0 -81.99994,-38.9 -81.99994,-84.3 0,-45.6 35.3999,-82.8 80.69994,-82.9 z m 1.8,150.8 3.2,0.4 h 271.89995 c 40.8999,0 74.2,-34.9 74.2,-76.1 0,-31.9 -20.2001,-58.4 -50.2001,-68.8 l -8.4,-3 -1.5,-8.8 c -3.5999,-21.6 -22.0999,-39.3 -43.8998,-39.3 -6.9,0 -13.7,1.6 -19.9,4.8 l -13.5,6.8 -6.5,-13.7 c -16.6,-34.9 -52.1,-58.2 -90.4,-58.2 -55.30005,0 -100.90005,44.1 -100.90005,99.7 0,13.3 0.2,20.3 0.2,20.3 l -15.2,0.1 c -36.7,0.5 -65.60004,30.5 -65.60004,67.4 0,36.9 29.80004,68.2 66.50004,68.4 z" /><g
     style="fill:#e6e6e6;fill-opacity:1"
     transform="translate(2.9305025,71.470935)"
     id="g7338"><path
       style="fill:#e6e6e6;fill-opacity:1"
       id="path7037"
       d="m 256,32 c -43.7,0 -79,37.5 -79,83.5 V 270 c 0,46 35.3,83.5 79,83.5 43.7,0 79,-37.5 79,-83.5 V 115.5 C 335,69.5 299.7,32 256,32 Z m 63,238 c 0,37.2 -28.3,67.5 -63,67.5 -34.7,0 -63,-30.3 -63,-67.5 V 115.5 C 193,78.3 221.3,48 256,48 c 34.7,0 63,30.3 63,67.5 z" /><path
       style="fill:#e6e6e6;fill-opacity:1"
       id="path7039"
       d="m 367,192 v 79.7 c 0,60.2 -49.8,109.2 -110,109.2 -60.2,0 -110,-49 -110,-109.2 V 192 h -19 v 79.7 c 0,67.2 53,122.6 120,127.5 V 462 h -73 v 18 h 161 v -18 h -69 v -62.8 c 66,-4.9 117,-60.3 117,-127.5 V 192 Z" /></g></svg>
