<?xml version="1.0" encoding="UTF-8" standalone="no"?>
<svg
   xmlns:dc="http://purl.org/dc/elements/1.1/"
   xmlns:cc="http://creativecommons.org/ns#"
   xmlns:rdf="http://www.w3.org/1999/02/22-rdf-syntax-ns#"
   xmlns:svg="http://www.w3.org/2000/svg"
   xmlns="http://www.w3.org/2000/svg"
   xmlns:sodipodi="http://sodipodi.sourceforge.net/DTD/sodipodi-0.dtd"
   xmlns:inkscape="http://www.inkscape.org/namespaces/inkscape"
   version="1.1"
   id="Layer_1"
   x="0px"
   y="0px"
   width="1264"
   height="500"
   viewBox="0 0 1264 500"
   xml:space="preserve"
   sodipodi:docname="outgoing_disallowed.svg"
   inkscape:version="1.0 (4035a4f, 2020-05-01)"><defs
     id="defs976" /><sodipodi:namedview
     fit-margin-top="100"
     fit-margin-bottom="100"
     fit-margin-right="100"
     fit-margin-left="100"
     inkscape:document-rotation="0"
     pagecolor="#ffffff"
     bordercolor="#666666"
     borderopacity="1"
     objecttolerance="10"
     gridtolerance="10"
     guidetolerance="10"
     inkscape:pageopacity="0"
     inkscape:pageshadow="2"
     inkscape:window-width="1247"
     inkscape:window-height="651"
     id="namedview974"
     showgrid="false"
     inkscape:zoom="0.37613834"
     inkscape:cx="538.48"
     inkscape:cy="301.2499"
     inkscape:window-x="1581"
     inkscape:window-y="754"
     inkscape:window-maximized="0"
     inkscape:current-layer="Layer_1" /><metadata
     id="metadata971"><rdf:RDF><rdf:Description
         about="https://iconscout.com/legal#licenses"
         dc:title="ios,arrow,thin,right"
         dc:description="ios,arrow,thin,right"
         dc:publisher="Iconscout"
         dc:date="2017-09-24"
         dc:format="image/svg+xml"
         dc:language="en"><dc:creator><rdf:Bag><rdf:li>Benjamin J Sperry</rdf:li></rdf:Bag></dc:creator></rdf:Description><cc:Work
         rdf:about=""><dc:format>image/svg+xml</dc:format><dc:type
           rdf:resource="http://purl.org/dc/dcmitype/StillImage" /><dc:title></dc:title></cc:Work></rdf:RDF></metadata><rect
     y="0"
     x="0"
     height="500"
     width="1264"
     id="rect8876"
     style="fill:#000000;fill-opacity:0;stroke:none;stroke-width:34.44;stroke-linejoin:miter;stroke-miterlimit:4;stroke-dasharray:none;stroke-opacity:1" /><path
     style="fill:#ff5555;fill-opacity:1;stroke-width:0.00115433"
     d="m 259.59915,356.50522 v 75.49286 c 0,5.80048 -4.69426,10.38892 -10.37931,10.38892 -5.79087,0 -10.38893,-4.69426 -10.38893,-10.38892 v -75.49286 c -31.85936,-2.50104 -60.51549,-16.57419 -81.88973,-37.94843 -23.66366,-23.67329 -38.34283,-56.32145 -38.34283,-92.27867 0,-5.79087 4.69426,-10.3793 10.3793,-10.3793 5.80048,0 10.38893,4.69425 10.38893,10.3793 0,30.16636 12.38013,57.62006 32.25376,77.5995 19.87363,19.87363 47.33695,32.25377 77.5995,32.25377 30.15673,0 57.62005,-12.38014 77.58988,-32.25377 0.37516,-0.37516 0.75031,-0.75994 1.11584,-1.13509 l -26.90539,-26.91501 c -13.1593,13.05349 -31.24373,21.15301 -51.10774,21.15301 -19.96982,0 -38.15044,-8.18609 -51.32898,-21.36464 C 185.4049,262.42773 177.2092,244.25673 177.2092,224.27729 V 152.01655 L 109.24831,84.05566 c -4.18442,-4.18442 -4.18442,-10.96609 0,-15.14089 4.18443,-4.18443 10.95647,-4.18443 15.1409,0 l 287.15758,287.15758 c 4.18443,4.18442 4.18443,10.95646 0,15.1409 -4.1748,4.18442 -10.95647,4.18442 -15.14089,0 L 342.61435,317.4217 c -0.37516,0.37516 -0.75031,0.75993 -1.12547,1.13509 -21.37425,21.36463 -50.03036,35.44739 -81.88973,37.94843 z m 26.59758,-95.50115 -88.00768,-88.00767 v 51.1847 c 0,14.28477 5.79087,27.16511 15.17938,36.55362 9.3885,9.38851 22.36504,15.17938 36.544,15.17938 14.15011,0 26.91501,-5.68506 36.2843,-14.91003 z m 71.61623,-18.15176 c 0.82726,-5.40609 1.25053,-10.93724 1.25053,-16.57419 0,-5.79087 4.69425,-10.3793 10.38891,-10.3793 5.79087,0 10.38893,4.69425 10.38893,10.3793 0,11.78373 -1.57758,23.20193 -4.53073,34.07183 z M 249.91243,57.612 c 19.97945,0 38.15044,8.18609 51.3386,21.37425 13.17855,13.17854 21.36464,31.34955 21.36464,51.32899 v 77.33978 l -20.97023,-20.97024 v -56.47536 c 0,-14.27515 -5.79088,-27.15549 -15.17939,-36.544 -9.3885,-9.38852 -22.36504,-15.17938 -36.55362,-15.17938 -14.27515,0 -27.1555,5.79086 -36.544,15.17938 -0.78879,0.78879 -1.55833,1.60643 -2.29902,2.44332 L 196.31328,81.36223 c 0.74069,-0.80802 1.50062,-1.60643 2.27018,-2.37598 C 211.77162,65.79809 229.94262,57.612 249.91243,57.612 Z"
     fill-rule="nonzero"
     id="path7573" /><path
     style="fill:#e6e6e6;fill-opacity:1;stroke-width:0.540292"
     d="m 836.27635,254.12276 c 7.75359,6.91087 15.50092,13.44568 23.26048,19.59744 10.24241,-15.55769 21.40372,-29.81436 33.53484,-42.70463 -2.29082,-4.31423 -3.58645,-9.2406 -3.58645,-14.46035 0,-2.57828 0.31344,-5.07983 0.91263,-7.47926 -12.67359,-8.21296 -25.71734,-17.37037 -39.29699,-27.57431 -10.04457,20.71424 -15.66696,43.94892 -15.66696,68.4922 h 0.0535 v 0.006 h -0.0535 c 0,1.66517 0.0535,3.3244 0.081,4.97715 z m 22.32262,-86.31588 c 13.59264,10.25474 26.60398,19.44455 39.22024,27.66346 5.62881,-6.0048 13.63698,-9.75713 22.50747,-9.75713 7.03893,0 13.52243,2.36108 18.71733,6.33061 a 247.0531,247.0531 0 0 1 11.3586,-7.10268 c 16.0628,-9.44429 33.2986,-17.14723 51.79869,-23.01155 a 34.252853,34.252853 0 0 1 -0.1999,-3.72045 c 0,-4.70972 0.9445,-9.20224 2.661,-13.28576 -18.79349,-15.92888 -41.05839,-30.03804 -66.68649,-42.50095 -21.38476,7.96391 -40.56723,20.43922 -56.4065,36.27841 a 158.5939,158.5939 0 0 0 -22.97319,29.1055 z M 959.56051,96.11129 c 20.2674,10.90578 38.3401,22.93537 54.16579,36.20872 5.29,-4.63948 12.016,-7.68998 19.4186,-8.39181 a 949.32277,949.32277 0 0 0 4.7161,-24.81775 c -14.2626,-4.24939 -29.3609,-6.54724 -44.99589,-6.54724 v 0.0324 0 -0.0324 c -11.4164,0 -22.5523,1.23185 -33.2927,3.54808 z m 93.07379,8.23188 a 964.74646,964.74646 0 0 1 -4.1159,21.60787 c 10.319,3.8739 18.2888,12.5526 21.1798,23.31143 13.9693,-1.0271 28.4999,-1.22539 43.6302,-0.56191 -2.9164,-3.45786 -5.9664,-6.80226 -9.1632,-9.99917 -14.6268,-14.62029 -32.1058,-26.37487 -51.5309,-34.35822 z m 72.6723,60.57316 c -19.3359,-1.44799 -37.6695,-1.48689 -55.0465,-0.17831 -1.4231,7.43441 -5.2456,14.02003 -10.6188,18.92101 a 209.44989,209.44989 0 0 1 12.4121,21.90719 c 5.3922,11.03384 9.8334,22.62254 13.3371,34.76668 1.066,-0.10856 2.1505,-0.1729 3.2548,-0.1729 13.841,0 25.5579,9.11957 29.4566,21.68459 10.2039,0.35769 20.7526,0.54894 31.7032,0.6127 0.3241,-4.11594 0.4971,-8.26376 0.4971,-12.45642 h -0.053 v -0.0122 h 0.053 c 0,-31.32664 -9.1832,-60.5283 -24.9966,-85.07158 z m 22.5206,112.95222 c -9.9745,-0.0702 -19.6234,-0.24204 -28.9917,-0.55487 -2.5015,12.01609 -12.0029,21.47334 -24.0515,23.91114 0.5294,14.40308 0.053,29.45669 -1.5253,45.17484 8.8322,-0.932 17.7919,-2.21466 26.9044,-3.82905 13.7396,-18.84428 23.3946,-40.8417 27.664,-64.70151 z m -18.7745,78.62592 0.053,0.15991 -0.1836,0.0318 a 172.50964,172.50964 0 0 1 -13.7905,15.56418 c -31.2629,31.26289 -74.4846,50.60532 -122.23719,50.6118 v 0.0313 0 -0.0324 c -47.7461,0 -90.96773,-19.34837 -122.24356,-50.61773 -31.26298,-31.2683 -50.60477,-74.49052 -50.61135,-122.24309 h -0.0535 v -0.006 h 0.0535 c 0,-47.75259 19.34837,-90.97428 50.61777,-122.24364 31.2688,-31.26937 74.48464,-50.6118 122.23004,-50.6118 v -0.0318 0 0.0324 c 47.75849,0 90.98079,19.3419 122.25009,50.61721 31.2688,31.26288 50.6112,74.48456 50.6112,122.23065 h 0.053 v 0.0122 h -0.053 c 0,40.18417 -13.7005,77.15198 -36.6738,106.49415 z m -24.1923,4.0846 a 375.37717,375.37717 0 0 1 -13.4651,1.55064 468.11495,468.11495 0 0 1 -1.8569,12.07334 157.85153,157.85153 0 0 0 14.6268,-12.90972 z m -33.2602,25.73624 c 1.5764,-7.83639 2.9165,-15.5069 4.0204,-23.01804 -28.1994,1.46798 -55.1486,-0.56785 -81.22969,-6.07504 -5.0923,6.04965 -12.7185,9.90355 -21.2442,9.90355 -0.6311,0 -1.2568,-0.0249 -1.8694,-0.0631 -4.92,12.55204 -9.6874,24.76641 -14.0519,36.30381 a 157.71105,157.71105 0 0 0 35.6343,4.06515 v -0.032 0 0.032 c 28.67229,0 55.56369,-7.68943 78.72809,-21.11622 z m -129.26309,12.81408 c 4.7799,-12.70548 9.5528,-24.97766 14.4031,-37.36385 -6.1069,-4.4736 -10.319,-11.38394 -11.2056,-19.30353 -27.9764,-11.08462 -55.09792,-26.464 -81.91259,-46.16358 -4.30123,7.24262 -8.41777,14.75374 -12.36123,22.52637 7.7088,15.81325 18.00243,30.15907 30.31183,42.46853 16.91122,16.91113 37.63196,29.99319 60.76449,37.83606 z m -98.70852,-98.90628 a 393.94267,393.94267 0 0 1 7.63862,-13.32466 522.1819,522.1819 0 0 1 -13.74554,-11.21213 156.21229,156.21229 0 0 0 6.10692,24.53679 z m 104.97592,-95.99626 a 30.675584,30.675584 0 0 1 2.5717,12.32891 c 0,2.94837 -0.4213,5.80704 -1.1935,8.50634 16.9435,8.10436 33.5986,14.53709 50.47129,19.6169 6.1323,-18.36612 12.0291,-37.44002 17.5173,-57.39515 a 34.586754,34.586754 0 0 1 -10.6956,-10.74638 c -17.56809,5.5261 -33.89179,12.79463 -49.06709,21.71592 a 225.14267,225.14267 0 0 0 -9.6041,5.97291 z m -6.5284,34.19827 c -5.5775,5.55203 -13.2604,8.97857 -21.74775,8.97857 a 30.783103,30.783103 0 0 1 -16.80848,-4.97068 c -11.45532,12.25867 -21.99741,25.85726 -31.70378,40.6942 25.14307,18.58279 50.4713,33.17714 76.46261,43.80251 4.5627,-9.10661 13.9881,-15.36049 24.8685,-15.36049 1.047,0 2.0748,0.0578 3.0953,0.17289 6.4645,-16.8922 12.9416,-34.30687 19.2209,-52.42446 -17.8745,-5.40509 -35.4875,-12.2522 -53.3873,-20.89307 z M 1046.126,191.27876 a 34.589455,34.589455 0 0 1 -9.6805,1.37234 c -1.302,0 -2.5906,-0.0644 -3.8544,-0.21072 -5.4116,19.59098 -11.1931,38.32666 -17.2109,56.36753 14.7731,3.72638 29.8461,6.52131 45.5768,8.57658 2.2843,-4.63948 5.7048,-8.609 9.8974,-11.5698 -3.3054,-11.72918 -7.5494,-22.87755 -12.7183,-33.45808 -3.5606,-7.28745 -7.5684,-14.30097 -12.0101,-21.07785 z m 33.1457,109.11023 c -11.9783,-3.81608 -20.785,-14.74779 -21.4354,-27.82987 -16.3433,-2.17576 -32.0416,-5.12413 -47.4463,-9.06771 -6.4965,18.74865 -13.19069,36.75062 -19.86549,54.19122 6.33,5.09225 10.38879,12.90972 10.38879,21.66515 0,1.1546 -0.077,2.29083 -0.2107,3.40762 24.6388,4.90044 50.1525,6.55372 76.891,4.94529 1.7613,-16.56588 2.3097,-32.32834 1.6781,-47.31225 z"
     fill-rule="nonzero"
     id="path7305" /></svg>
