<?xml version="1.0" encoding="UTF-8" standalone="no"?>
<svg
   xmlns:dc="http://purl.org/dc/elements/1.1/"
   xmlns:cc="http://creativecommons.org/ns#"
   xmlns:rdf="http://www.w3.org/1999/02/22-rdf-syntax-ns#"
   xmlns:svg="http://www.w3.org/2000/svg"
   xmlns="http://www.w3.org/2000/svg"
   xmlns:sodipodi="http://sodipodi.sourceforge.net/DTD/sodipodi-0.dtd"
   xmlns:inkscape="http://www.inkscape.org/namespaces/inkscape"
   inkscape:version="1.0 (4035a4f, 2020-05-01)"
   sodipodi:docname="outgoing_allowed.svg"
   xml:space="preserve"
   viewBox="0 0 1389.2404 648"
   height="648"
   width="1389.2404"
   y="0px"
   x="0px"
   id="Layer_1"
   version="1.1"><defs
     id="defs976" /><sodipodi:namedview
     fit-margin-bottom="100"
     fit-margin-right="100"
     fit-margin-top="100"
     fit-margin-left="100"
     inkscape:current-layer="Layer_1"
     inkscape:window-maximized="0"
     inkscape:window-y="143"
     inkscape:window-x="1618"
     inkscape:cy="391.0804"
     inkscape:cx="515.69291"
     inkscape:zoom="0.39392809"
     showgrid="false"
     id="namedview974"
     inkscape:window-height="562"
     inkscape:window-width="952"
     inkscape:pageshadow="2"
     inkscape:pageopacity="0"
     guidetolerance="10"
     gridtolerance="10"
     objecttolerance="10"
     borderopacity="1"
     bordercolor="#666666"
     pagecolor="#ffffff"
     inkscape:document-rotation="0"
     inkscape:pagecheckerboard="false" /><path
     id="path969"
     d="m 703.22835,427.79338 c -3.1,-3.1 -3,-8 0,-11.3 l 66.40003,-74.4 H 485.0284 c -4.4,0 -8,-3.6 -8,-8 0,-4.4 3.6,-8 8,-8 h 284.59998 l -66.30003,-74.4 c -2.9,-3.4 -3.2,-8.1 -0.1,-11.2 3.1,-3.1 8.5,-3.3 11.4,-0.1 0,0 79.20003,87 80.00003,88 0.8,1 2.4,2.8 2.4,5.7 0,2.9 -1.6,4.9 -2.4,5.7 -0.8,0.8 -80.00003,88 -80.00003,88 -1.5,1.5 -3.6,2.3 -5.7,2.3 -2.1,0 -4.1,-0.8 -5.7,-2.3 z"
     style="fill:#e6e6e6" /><metadata
     id="metadata971"><rdf:RDF><rdf:Description
         dc:language="en"
         dc:format="image/svg+xml"
         dc:date="2017-09-24"
         dc:publisher="Iconscout"
         dc:description="ios,arrow,thin,right"
         dc:title="ios,arrow,thin,right"
         about="https://iconscout.com/legal#licenses"><dc:creator><rdf:Bag><rdf:li>Benjamin J Sperry</rdf:li></rdf:Bag></dc:creator></rdf:Description><cc:Work
         rdf:about=""><dc:format>image/svg+xml</dc:format><dc:type
           rdf:resource="http://purl.org/dc/dcmitype/StillImage" /><dc:title></dc:title></cc:Work></rdf:RDF></metadata><path
     d="m 921.94045,252.47588 c 0,-1.2 -0.2,-2.4 -0.2,-3.6 0,-64.3 52.8,-117.2 116.80005,-117.2 46.1,0 85.8,27.9 104.4,67 8.1,-4.1 17.1,-6.4 26.8,-6.4 29.5999,0 54.0998,23.7 58.8998,52 35.2,12.2 60.6001,44.2 60.6001,83.8 0,49.8 -40.1001,91.6 -89.6,91.6 H 923.24045 c -45,0 -81.99994,-38.9 -81.99994,-84.3 0,-45.6 35.3999,-82.8 80.69994,-82.9 z m 1.8,150.8 3.2,0.4 h 271.89995 c 40.8999,0 74.2,-34.9 74.2,-76.1 0,-31.9 -20.2001,-58.4 -50.2001,-68.8 l -8.4,-3 -1.5,-8.8 c -3.5999,-21.6 -22.0999,-39.3 -43.8998,-39.3 -6.9,0 -13.7,1.6 -19.9,4.8 l -13.5,6.8 -6.5,-13.7 c -16.6,-34.9 -52.1,-58.2 -90.4,-58.2 -55.30005,0 -100.90005,44.1 -100.90005,99.7 0,13.3 0.2,20.3 0.2,20.3 l -15.2,0.1 c -36.7,0.5 -65.60004,30.5 -65.60004,67.4 0,36.9 29.80004,68.2 66.50004,68.4 z"
     id="path1277"
     style="fill:#e6e6e6" /><path
     id="path126"
     d="m 260,388 c 37.712,0 68.571,-30.924 68.571,-68.714 V 168.714 C 328.571,130.924 297.712,100 260,100 c -37.712,0 -68.571,30.924 -68.571,68.714 v 150.572 c 0,37.79 30.859,68.714 68.571,68.714 z m 121.139,-75.452 c 0,68.714 -58.282,116.815 -121.139,116.815 -62.857,0 -121.139,-48.102 -121.139,-116.815 H 100 c 0,77.873 61.719,143.153 137.144,153.465 V 548 h 45.713 V 466.013 C 358.281,454.561 420,390.421 420,312.548 Z"
     style="fill:#e6e6e6" /></svg>
