<?xml version="1.0" encoding="UTF-8" standalone="no"?>
<svg
   xmlns:dc="http://purl.org/dc/elements/1.1/"
   xmlns:cc="http://creativecommons.org/ns#"
   xmlns:rdf="http://www.w3.org/1999/02/22-rdf-syntax-ns#"
   xmlns:svg="http://www.w3.org/2000/svg"
   xmlns="http://www.w3.org/2000/svg"
   xmlns:sodipodi="http://sodipodi.sourceforge.net/DTD/sodipodi-0.dtd"
   xmlns:inkscape="http://www.inkscape.org/namespaces/inkscape"
   inkscape:export-ydpi="9"
   inkscape:export-xdpi="9"
   inkscape:export-filename="/Users/jesse/src/sonobus/images/person.png"
   inkscape:version="1.0 (4035a4f, 2020-05-01)"
   sodipodi:docname="person.svg"
   xml:space="preserve"
   viewBox="0 0 512 512"
   height="512px"
   width="512px"
   y="0px"
   x="0px"
   id="Layer_1"
   version="1.1"><defs
     id="defs5984" /><sodipodi:namedview
     inkscape:current-layer="Layer_1"
     inkscape:window-maximized="0"
     inkscape:window-y="539"
     inkscape:window-x="2088"
     inkscape:cy="147.99918"
     inkscape:cx="256"
     inkscape:zoom="0.90039062"
     showgrid="false"
     id="namedview5982"
     inkscape:window-height="480"
     inkscape:window-width="1001"
     inkscape:pageshadow="2"
     inkscape:pageopacity="0"
     guidetolerance="10"
     gridtolerance="10"
     objecttolerance="10"
     borderopacity="1"
     bordercolor="#666666"
     pagecolor="#ffffff" /><rect
     y="2.7346985"
     x="-2.7346985"
     height="512"
     width="512"
     id="rect8965"
     style="fill:#000000;fill-opacity:0;stroke-width:15" /><path
     id="path5975"
     d="M202.4 201.7z" /><path
     style="fill:#e6e6e6;fill-opacity:1"
     id="path5977"
     d="M363.3 363.9c-12.9-4.6-31.4-6.2-43.2-8.8-6.8-1.5-16.7-5.3-20-9.2-3.3-4-1.3-40.9-1.3-40.9s6.1-9.6 9.4-18 6.9-31.4 6.9-31.4 6.8 0 9.2-11.9c2.6-13 6.6-18.4 6.1-28.1-.5-9-5.2-9.5-5.7-9.5 0 0 4.9-13.6 5.6-42.4C331.1 129.6 305 96 256 96s-75 33.5-74.3 67.6c.6 28.7 5.6 42.4 5.6 42.4-.5 0-5.2.5-5.7 9.5-.5 9.7 3.6 14.9 6.1 27.9 2.4 11.9 9.2 12 9.2 12s3.6 23.1 6.9 31.5c3.3 8.5 9.4 18 9.4 18s2 36.9-1.3 40.9-13.2 7.7-20 9.2c-11.9 2.6-30.3 4.3-43.2 8.9C135.8 368.5 96 384 96 416h320c0-32-39.8-47.5-52.7-52.1zM256 400H118.7c2-3 4.7-5.1 8.2-7.6 7-5.1 16.1-9.8 27.1-13.6 6.8-2.4 16.7-4 25.4-5.3 5.7-.9 11.1-1.7 15.9-2.8 3.4-.8 20.8-5 28.8-14.6 4.5-5.4 5.8-12.7 5.6-32.3-.1-10-.6-19.3-.6-19.7l-.2-4.2-2.3-3.5c-1.5-2.3-5.8-9.5-8-15.3-1.8-4.7-4.6-19.2-6-28.1 0 0 .4 1-.5-3.7s-8.4-4.3-9.4-8c-.9-3.6-1.8-6.9-4.3-18.2-2.5-11.3 2.8-11.2 3.9-16.2.6-3.1 0-5.7 0-5.8-.3-1-4.1-13.4-4.7-37.7-.3-13.2 4.6-25.6 13.8-34.9 10.6-10.8 26-16.5 44.5-16.5 19 0 34 5.7 44.6 16.5 9.2 9.3 14.1 21.7 13.8 34.9-.5 24.2-4.3 36.6-4.7 37.7 0 .1-.6 1.7-.4 5.2.2 5.4 6.8 5.5 4.3 16.8s-3.4 14.6-4.3 18.2c-.9 3.6-8.5 3.3-9.4 8-.9 4.7-.5 3.7-.5 3.7-1.4 8.9-4.2 23.4-6 28.1-2.3 5.8-6.6 13-8 15.3l-2.3 3.5-.2 4.2c0 .4-.5 9.7-.6 19.7-.2 19.6 1.1 26.9 5.6 32.3 8 9.5 25.4 13.8 28.8 14.6 4.8 1.1 10.2 1.9 15.9 2.8 8.7 1.3 18.6 2.9 25.4 5.3 11 3.9 20.2 8.6 27.1 13.7 3.5 2.5 6.2 4.6 8.2 7.6L256 400z" /><metadata
     id="metadata5979"><rdf:RDF><rdf:Description
         dc:language="en"
         dc:format="image/svg+xml"
         dc:date="2017-09-24"
         dc:publisher="Iconscout"
         dc:description="ios,person,outline"
         dc:title="ios,person,outline"
         about="https://iconscout.com/legal#licenses"><dc:creator><rdf:Bag><rdf:li>Benjamin J Sperry</rdf:li></rdf:Bag></dc:creator></rdf:Description><cc:Work
         rdf:about=""><dc:format>image/svg+xml</dc:format><dc:type
           rdf:resource="http://purl.org/dc/dcmitype/StillImage" /><dc:title></dc:title></cc:Work></rdf:RDF></metadata></svg>
