<?xml version="1.0" encoding="UTF-8" standalone="no"?>
<svg
   xmlns:dc="http://purl.org/dc/elements/1.1/"
   xmlns:cc="http://creativecommons.org/ns#"
   xmlns:rdf="http://www.w3.org/1999/02/22-rdf-syntax-ns#"
   xmlns:svg="http://www.w3.org/2000/svg"
   xmlns="http://www.w3.org/2000/svg"
   xmlns:sodipodi="http://sodipodi.sourceforge.net/DTD/sodipodi-0.dtd"
   xmlns:inkscape="http://www.inkscape.org/namespaces/inkscape"
   version="1.1"
   id="Layer_1"
   x="0px"
   y="0px"
   width="512px"
   height="512px"
   viewBox="0 0 512 512"
   xml:space="preserve"
   sodipodi:docname="power_sel.svg"
   inkscape:version="1.0 (4035a4f, 2020-05-01)"
   inkscape:export-filename="/Users/jesse/src/sonobus/images/person.png"
   inkscape:export-xdpi="9"
   inkscape:export-ydpi="9"><defs
     id="defs5984" /><sodipodi:namedview
     inkscape:guide-bbox="true"
     showguides="true"
     inkscape:document-rotation="0"
     pagecolor="#ffffff"
     bordercolor="#666666"
     borderopacity="1"
     objecttolerance="10"
     gridtolerance="10"
     guidetolerance="10"
     inkscape:pageopacity="0"
     inkscape:pageshadow="2"
     inkscape:window-width="1000"
     inkscape:window-height="677"
     id="namedview5982"
     showgrid="false"
     inkscape:zoom="0.31557847"
     inkscape:cx="215.97553"
     inkscape:cy="339.55745"
     inkscape:window-x="2365"
     inkscape:window-y="560"
     inkscape:window-maximized="0"
     inkscape:current-layer="Layer_1" /><rect
     style="fill:#000000;fill-opacity:0;stroke-width:15"
     id="rect8965"
     width="512"
     height="512"
     x="-2.7346985"
     y="2.7346985" /><path
     d="M 256,256 Z"
     id="path5975" /><metadata
     id="metadata5979"><rdf:RDF><rdf:Description
         about="https://iconscout.com/legal#licenses"
         dc:title="ios,person,outline"
         dc:description="ios,person,outline"
         dc:publisher="Iconscout"
         dc:date="2017-09-24"
         dc:format="image/svg+xml"
         dc:language="en"><dc:creator><rdf:Bag><rdf:li>Benjamin J Sperry</rdf:li></rdf:Bag></dc:creator></rdf:Description><cc:Work
         rdf:about=""><dc:format>image/svg+xml</dc:format><dc:type
           rdf:resource="http://purl.org/dc/dcmitype/StillImage" /><dc:title></dc:title></cc:Work></rdf:RDF></metadata><g
     style="stroke:none;stroke-opacity:1;fill:#7dc5f8;fill-opacity:1"
     transform="translate(-98.9038,78.548099)"
     id="g5080"><path
       style="stroke:none;stroke-opacity:1;fill:#7dc5f8;fill-opacity:1"
       id="path4469"
       d="m 354.9038,385.4519 c -114.69,0 -208,-93.47 -208,-208.35 0,-62.45 27.25,-120.999998 74.76,-160.549998 a 22,22 0 1 1 28.17,33.8 c -37.45,31.2 -58.93,77.399998 -58.93,126.749998 0,90.62 73.57,164.35 164,164.35 90.43,0 164,-73.73 164,-164.35 a 164,164 0 0 0 -59.83,-126.649998 22,22 0 1 1 28,-33.92 207.88,207.88 0 0 1 75.83,160.569998 c 0,114.88 -93.31,208.35 -208,208.35 z" /><path
       style="stroke:none;stroke-opacity:1;fill:#7dc5f8;fill-opacity:1"
       id="path4471"
       d="m 354.9038,193.4519 a 22,22 0 0 1 -22,-22 V -8.5480978 a 22,22 0 0 1 44,0 V 171.4519 a 22,22 0 0 1 -22,22 z" /></g></svg>
