<?xml version="1.0" encoding="UTF-8" standalone="no"?>
<svg
   xmlns:dc="http://purl.org/dc/elements/1.1/"
   xmlns:cc="http://creativecommons.org/ns#"
   xmlns:rdf="http://www.w3.org/1999/02/22-rdf-syntax-ns#"
   xmlns:svg="http://www.w3.org/2000/svg"
   xmlns="http://www.w3.org/2000/svg"
   xmlns:sodipodi="http://sodipodi.sourceforge.net/DTD/sodipodi-0.dtd"
   xmlns:inkscape="http://www.inkscape.org/namespaces/inkscape"
   version="1.1"
   id="Layer_1"
   x="0px"
   y="0px"
   width="500"
   height="500"
   viewBox="0 0 500 500"
   xml:space="preserve"
   sodipodi:docname="reset_buffer_icon.svg"
   inkscape:version="1.0 (4035a4f, 2020-05-01)"><defs
     id="defs976" /><sodipodi:namedview
     fit-margin-bottom="100"
     fit-margin-right="100"
     fit-margin-top="100"
     fit-margin-left="100"
     inkscape:document-rotation="0"
     pagecolor="#ffffff"
     bordercolor="#666666"
     borderopacity="1"
     objecttolerance="10"
     gridtolerance="10"
     guidetolerance="10"
     inkscape:pageopacity="0"
     inkscape:pageshadow="2"
     inkscape:window-width="1522"
     inkscape:window-height="844"
     id="namedview974"
     showgrid="false"
     inkscape:zoom="0.31623478"
     inkscape:cx="-110.25747"
     inkscape:cy="196.1953"
     inkscape:window-x="1982"
     inkscape:window-y="160"
     inkscape:window-maximized="0"
     inkscape:current-layer="Layer_1" /><metadata
     id="metadata971"><rdf:RDF><rdf:Description
         about="https://iconscout.com/legal#licenses"
         dc:title="ios,arrow,thin,right"
         dc:description="ios,arrow,thin,right"
         dc:publisher="Iconscout"
         dc:date="2017-09-24"
         dc:format="image/svg+xml"
         dc:language="en"><dc:creator><rdf:Bag><rdf:li>Benjamin J Sperry</rdf:li></rdf:Bag></dc:creator></rdf:Description><cc:Work
         rdf:about=""><dc:format>image/svg+xml</dc:format><dc:type
           rdf:resource="http://purl.org/dc/dcmitype/StillImage" /><dc:title></dc:title></cc:Work></rdf:RDF></metadata><rect
     y="0"
     x="0"
     height="500"
     width="500"
     id="rect8876"
     style="fill:#000000;fill-opacity:0;stroke:none;stroke-width:21.6608;stroke-linejoin:miter;stroke-miterlimit:4;stroke-dasharray:none;stroke-opacity:1" /><path
     style="fill:#e6e6e6;stroke-width:1.56239"
     d="m 297.87286,396.4065 c 4.84338,-4.84339 4.68714,-12.49909 0,-17.65496 L 194.13027,262.50992 h 246.91218 c 6.8745,0 12.4991,-5.62461 12.4991,-12.49911 0,-6.8745 -5.6246,-12.49911 -12.4991,-12.49911 H 194.13027 L 297.71661,121.27009 c 4.53092,-5.31213 4.99963,-12.65533 0.15625,-17.49874 -4.84341,-4.843391 -13.28031,-5.155881 -17.81123,-0.15625 0,0 -123.74114,135.92772 -124.99104,137.49011 -1.24991,1.56239 -3.74973,4.37468 -3.74973,8.9056 0,4.53093 2.49982,7.6557 3.74973,8.9056 1.2499,1.24993 124.99104,137.49009 124.99104,137.49009 2.34358,2.34359 5.62459,3.5935 8.90561,3.5935 3.28101,0 6.40578,-1.24991 8.90562,-3.5935 z"
     id="path969-7"
     sodipodi:nodetypes="cccsssccscssscsc" /><path
     sodipodi:nodetypes="cc"
     id="path2678"
     d="M 96.73077,88.727418 93.56857,411.27258"
     style="fill:#e6e6e6;fill-opacity:1;stroke:#e6e6e6;stroke-width:24;stroke-linecap:round;stroke-linejoin:miter;stroke-miterlimit:4;stroke-dasharray:none;stroke-opacity:1" /></svg>
