<?xml version="1.0" encoding="UTF-8" standalone="no"?>
<svg
   xmlns:dc="http://purl.org/dc/elements/1.1/"
   xmlns:cc="http://creativecommons.org/ns#"
   xmlns:rdf="http://www.w3.org/1999/02/22-rdf-syntax-ns#"
   xmlns:svg="http://www.w3.org/2000/svg"
   xmlns="http://www.w3.org/2000/svg"
   xmlns:sodipodi="http://sodipodi.sourceforge.net/DTD/sodipodi-0.dtd"
   xmlns:inkscape="http://www.inkscape.org/namespaces/inkscape"
   version="1.1"
   id="Layer_1"
   x="0px"
   y="0px"
   width="940"
   height="500"
   viewBox="0 0 940 500"
   xml:space="preserve"
   sodipodi:docname="send_group.svg"
   inkscape:version="1.0 (4035a4f, 2020-05-01)"><g
     transform="translate(-279.95655,454.9854)"
     id="g15265"><path
       d="M 893.60822,-348.9854 Z"
       id="path7183" /><path
       d="m 986.80822,-126.1854 c -13.5,-4.7 -28.1,-5 -41.6,-9.7 -4.1,-1.4 -12.2,-3.1 -13.9,-7.8 -1.6,-4.6 -1.6,-10 -1.9,-14.8 -0.2,-3.8 -0.3,-7.6 -0.3,-11.4 0,-2.5 6.4,-7.8 7.8,-10.1 5.4,-9 5.9,-21.1 6.9,-31.3 8.7,2.4 9.8,-13.7 11.3,-18.6 1.1,-3.4 7.8,-26.8 -2.6,-23.6 2.5,-4.4 3.5,-9.8 4.2,-14.7 2,-12.8 2.8,-26.8 -1.1,-39.3 -8.1,-26 -33,-40.6 -59.3,-41.4 -26.7,-0.9 -53.5,11.9 -63.5,37.8 -4.8,12.6 -4.4,26.3 -2.8,39.5 0.7,6 1.7,12.7 4.7,18.1 -9.7,-2.9 -4.5,17.7 -3.4,21.3 1.6,5.1 3,23.4 12.1,20.9 0.8,8.1 1.7,16.4 3.9,24.3 1.5,5.3 4.6,9.8 8.2,13.9 1.8,2 2.7,2.2 2.6,4.8 -0.1,7.8 0.1,16.2 -1.9,23.8 -2,7.6 -18.7,10.8 -25.4,12.2 -18,3.7 -34.6,5.4 -49.6,16.6 -17.5,12.9 -26.6,33.000002 -26.6,54.700002 h 277.99998 c 0,-29.5 -17.8,-55.500002 -45.79998,-65.200002 -11.2,-3.9 11.3,3.9 0,0 z m -202.1,28.800002 c 5.6,-5.900002 12.7,-11.100002 20.4,-14.000002 10.5,-4 22.4,-3.8 33.3,-6.6 9,-2.3 20.2,-5.9 27.2,-12.4 6.4,-6 7.1,-15.2 7.7,-23.5 0.5,-7 0.4,-13.9 0.4,-20.9 0,-4.9 -5.7,-7.7 -8.5,-11.6 -4.5,-6.1 -4.7,-15.2 -5.6,-22.5 -0.4,-3.2 -0.5,-7.3 -3.2,-9.5 -3,-2.4 -5.2,-3.7 -6.7,-7.5 -2,-5.2 -2.7,-10.8 -4.3,-16.2 -1,-3.5 2.5,-6.8 3.9,-9.7 2.6,-5.3 -1.9,-13.5 -2.8,-19 -2.8,-16.4 -2.7,-34.3 9.1,-47.3 23.7,-26.2 78,-17.9 85.8,18.9 2.4,11.5 0.9,24.9 -2.3,36.1 -1.4,4.8 -3,8.3 -0.2,13 4.2,6.8 2.4,11.2 0.4,18.8 -1.6,6.3 -3.6,9.1 -8.4,13 -4,3.2 -3.4,11.2 -4.1,15.8 -0.8,5.6 -1.3,11.5 -4.7,16.2 -1.3,1.8 -8.4,7.4 -8.4,9.3 0,11 -0.5,22.2 1.4,33.1 2.6,15.5 15.6,19.2 28.6,24.5 13.2,5.1 28.5,3.2 41.3,9.5 13.2,6.5 25.89998,18.400002 29.69998,33.100002 H 772.60822 c 1.9,-8.3 6.5,-14.6 12.1,-20.6 9.2,-9.700002 -5.9,6.3 0,0 z"
       id="path7185"
       style="fill:#e6e6e6;fill-opacity:1" /><path
       d="m 781.70822,-138.9854 c 7,-3.5 14.6,-4.3 22.3,-5.1 2.8,-0.3 4.1,-2.2 2,-4.9 -4,-5.1 -17.8,-6.1 -23.6,-8.4 -3.6,-1.4 -4.6,-2.7 -4.9,-6.7 -0.1,-1.8 -1.1,-9.8 0.3,-11.1 1,-1 7.3,-0.6 8.7,-0.8 5.7,-0.7 11.5,-1.9 16.9,-4 2.3,-0.9 4.5,-2 6.5,-3.4 2.4,-1.8 -1.8,-6.2 -2.9,-8.6 -3.4,-7.5 -4.9,-15.7 -5.4,-23.9 -1,-16.1 1.5,-32.3 -1.5,-48.3 -4.5,-24.5 -23.4,-36.8 -47.5,-36.8 -14.9,0 -29.6,5.1 -37.9,18.1 -9.2,14.3 -8.7,32.1 -8.2,48.4 0.3,9.3 0.7,18.7 -0.6,28 -0.6,4 -1.5,7.9 -2.9,11.7 -1.1,2.9 -6.7,10.1 -4.5,11.6 8.3,5.9 22.3,7.9 32.3,7.1 0.3,4.9 1.2,11.2 -0.6,15.8 -2.8,7.2 -23.7,9.1 -30,11.2 -17.6,5.9 -30.6,20.6 -30.6,40.1 h 79.5 c 1.3,0 6.3,-9.3 7.7,-10.8 7,-7.8 15.6,-14.5 24.9,-19.2 9,-4.5 -14.6,7.4 0,0 z m -41.3,14 h -48.9 c 7.1,-11.8 24.9,-11 36.6,-15.2 10.8,-3.9 17.7,-10.5 18.8,-22 0.1,-1.3 0.2,-29.2 -0.9,-29.2 -8.7,-0.3 -17.8,-0.1 -26.5,-1.4 6.9,-22.3 0.3,-45.3 4,-67.8 2.7,-16.3 13.1,-25.3 29.7,-25.3 15.9,0 27.7,7.4 31.1,23.4 4.8,23.2 -2,46.9 5.4,69.9 -5.5,1.4 -11.3,1.6 -17,1.8 -2.8,0.1 -5.7,0.2 -8.5,0.3 -1.8,0.1 -1.2,3.2 -1.3,4.7 -1,10.9 -5,28.1 3.7,36.9 -9.6,6 -20,14.3 -26.2,23.9 z"
       id="path7187"
       style="fill:#e6e6e6;fill-opacity:1" /><path
       d="m 1037.4082,-108.9854 h 80.2 c 0,-19.5 -13.1,-34.3 -30.7,-40.1 -8.1,-2.6 -23.7,-3.4 -29.5,-10.4 -2.9,-3.5 -1.3,-12.4 -1,-16.6 4.4,0.4 9.2,-0.3 13.7,-0.9 4.1,-0.6 8.1,-1.4 12,-2.8 1.8,-0.7 3.6,-1.4 5.3,-2.4 3.9,-2.3 2.1,-2.7 0.1,-6.1 -10.9,-18.3 -6,-41.5 -6.5,-61.6 -0.4,-16.7 -4.8,-35 -20,-44.4 -13.7,-8.5 -34,-8.8 -48.7,-2.8 -42.39998,17 -17.39998,73.2 -31.89998,105.4 -2.5,5.4 -6.1,7.3 0.2,10.5 3.5,1.8 7.3,3 11.1,3.9 5.8,1.4 11.79998,2.2 17.79998,2.4 1,0 0.3,12.6 0,13.9 -1.1,4.9 -11.79998,6.3 -15.79998,7.4 -4.1,1.1 -10.9,1.4 -12.9,5.7 -3,6.4 9.9,4.8 13.1,5.4 10.29998,1.9 19.39998,7.6 27.39998,14.1 5.9,4.8 13.9,11.6 16.1,19.4 z m -0.4,-27.1 c -5.1,-4.7 -10.4,-9.3 -16.3,-13 8.8,-8.8 4.7,-25.9 3.7,-36.9 -0.6,-6.3 -2,-4.7 -8.3,-4.9 -6,-0.2 -12.8,0.1 -18.49998,-1.8 7.19998,-22.3 1.3,-45.2 4.99998,-67.9 2.8,-17.1 14.5,-25.5 31.5,-25.5 15.4,0 26,7.7 29.2,23 4.9,23.1 -2.6,47 4.5,70 -8.5,1.3 -17.3,1 -25.9,1.3 -2.1,0.1 -1.9,25.1 -1.7,27.3 0.7,11.7 6.1,18.8 17.2,23.3 12.1,4.9 31,3.6 38.4,15.9 h -44.7 c -7.1,0.1 -8.9,-6.1 -14.1,-10.8 -5,-4.6 4,3.6 0,0 z"
       id="path7189"
       style="fill:#e6e6e6;fill-opacity:1" /></g><defs
     id="defs976" /><sodipodi:namedview
     inkscape:pagecheckerboard="true"
     inkscape:document-rotation="0"
     pagecolor="#656565"
     bordercolor="#666666"
     borderopacity="1"
     objecttolerance="10"
     gridtolerance="10"
     guidetolerance="10"
     inkscape:pageopacity="0"
     inkscape:pageshadow="2"
     inkscape:window-width="1137"
     inkscape:window-height="585"
     id="namedview974"
     showgrid="false"
     inkscape:zoom="0.31221736"
     inkscape:cx="614.06432"
     inkscape:cy="61.120707"
     inkscape:window-x="2218"
     inkscape:window-y="233"
     inkscape:window-maximized="0"
     inkscape:current-layer="Layer_1"
     fit-margin-left="100"
     fit-margin-top="100"
     fit-margin-right="100"
     fit-margin-bottom="100" /><rect
     style="fill:#000000;fill-opacity:0;stroke:none;stroke-width:29.6998;stroke-linejoin:miter;stroke-miterlimit:4;stroke-dasharray:none;stroke-opacity:1"
     id="rect8876"
     width="940"
     height="500"
     x="0"
     y="0" /><path
     sodipodi:nodetypes="cccsssccscssscsc"
     style="fill:#e6e6e6"
     d="m 251.22835,343.70692 c -3.1,-3.1 -3,-8 0,-11.3 l 66.40003,-74.4 H 93.0284 c -4.4,0 -8,-3.6 -8,-8 0,-4.4 3.6,-8 8,-8 h 224.59998 l -66.30003,-74.4 c -2.9,-3.4 -3.2,-8.1 -0.1,-11.2 3.1,-3.1 8.5,-3.3 11.4,-0.1 0,0 79.20003,87 80.00003,88 0.8,1 2.4,2.8 2.4,5.7 0,2.9 -1.6,4.9 -2.4,5.7 -0.8,0.8 -80.00003,88 -80.00003,88 -1.5,1.5 -3.6,2.3 -5.7,2.3 -2.1,0 -4.1,-0.8 -5.7,-2.3 z"
     id="path969" /><metadata
     id="metadata971"><rdf:RDF><rdf:Description
         about="https://iconscout.com/legal#licenses"
         dc:title="ios,arrow,thin,right"
         dc:description="ios,arrow,thin,right"
         dc:publisher="Iconscout"
         dc:date="2017-09-24"
         dc:format="image/svg+xml"
         dc:language="en"><dc:creator><rdf:Bag><rdf:li>Benjamin J Sperry</rdf:li></rdf:Bag></dc:creator></rdf:Description><cc:Work
         rdf:about=""><dc:format>image/svg+xml</dc:format><dc:type
           rdf:resource="http://purl.org/dc/dcmitype/StillImage" /><dc:title></dc:title></cc:Work></rdf:RDF></metadata></svg>
