<?xml version="1.0" encoding="UTF-8" standalone="no"?>
<svg
   xmlns:dc="http://purl.org/dc/elements/1.1/"
   xmlns:cc="http://creativecommons.org/ns#"
   xmlns:rdf="http://www.w3.org/1999/02/22-rdf-syntax-ns#"
   xmlns:svg="http://www.w3.org/2000/svg"
   xmlns="http://www.w3.org/2000/svg"
   xmlns:sodipodi="http://sodipodi.sourceforge.net/DTD/sodipodi-0.dtd"
   xmlns:inkscape="http://www.inkscape.org/namespaces/inkscape"
   inkscape:version="1.0 (4035a4f, 2020-05-01)"
   sodipodi:docname="speaker_disabled.svg"
   xml:space="preserve"
   viewBox="0 0 540 500"
   height="500"
   width="540"
   y="0px"
   x="0px"
   id="Layer_1"
   version="1.1"><defs
     id="defs976" /><sodipodi:namedview
     fit-margin-bottom="100"
     fit-margin-right="100"
     fit-margin-top="100"
     fit-margin-left="100"
     inkscape:current-layer="Layer_1"
     inkscape:window-maximized="0"
     inkscape:window-y="739"
     inkscape:window-x="2775"
     inkscape:cy="297.3959"
     inkscape:cx="564.0377"
     inkscape:zoom="0.43879518"
     showgrid="false"
     id="namedview974"
     inkscape:window-height="563"
     inkscape:window-width="1133"
     inkscape:pageshadow="2"
     inkscape:pageopacity="0"
     guidetolerance="10"
     gridtolerance="10"
     objecttolerance="10"
     borderopacity="1"
     bordercolor="#666666"
     pagecolor="#ffffff"
     inkscape:document-rotation="0" /><metadata
     id="metadata971"><rdf:RDF><rdf:Description
         dc:language="en"
         dc:format="image/svg+xml"
         dc:date="2017-09-24"
         dc:publisher="Iconscout"
         dc:description="ios,arrow,thin,right"
         dc:title="ios,arrow,thin,right"
         about="https://iconscout.com/legal#licenses"><dc:creator><rdf:Bag><rdf:li>Benjamin J Sperry</rdf:li></rdf:Bag></dc:creator></rdf:Description><cc:Work
         rdf:about=""><dc:format>image/svg+xml</dc:format><dc:type
           rdf:resource="http://purl.org/dc/dcmitype/StillImage" /><dc:title></dc:title></cc:Work></rdf:RDF></metadata><rect
     style="fill:#000000;fill-opacity:0;stroke:none;stroke-width:22.5106;stroke-linejoin:miter;stroke-miterlimit:4;stroke-dasharray:none;stroke-opacity:1"
     id="rect8876"
     width="540"
     height="500"
     x="0"
     y="0" /><path
     style="fill:#ff5555;fill-opacity:1;stroke-width:0.155189"
     d="m 120.04497,319.91263 c 5.27643,3.10382 6.98351,9.93217 3.72454,15.20857 -3.10378,5.2764 -9.9321,6.98348 -15.20853,3.72452 -5.12123,-3.10382 -9.46653,-7.60425 -12.57032,-12.88065 C 93.04208,320.84381 91.335,314.79144 91.335,308.58392 V 203.3657 c 0,-9.77692 4.03492,-18.62269 10.39767,-24.98544 6.36275,-6.36275 15.20852,-10.39766 24.98543,-10.39766 h 81.93981 l 69.83511,-70.30064 c 4.3453,-4.34528 11.3288,-4.34528 15.6741,0 2.1726,2.17265 3.2589,4.96605 3.2589,7.91464 v 57.57513 c 0,6.20756 -4.9661,11.17362 -11.1735,11.17362 -6.2076,0 -11.17366,-4.96606 -11.17366,-11.17362 v -30.72742 l -53.54025,53.8506 c -2.01749,2.32783 -5.12125,3.87972 -8.38021,3.87972 h -86.59548 c -3.56936,0 -6.82833,1.5519 -9.31135,3.87973 -2.32784,2.32784 -3.87973,5.742 -3.87973,9.31134 v 105.21823 c 0,2.32779 0.62076,4.50043 1.70708,6.36265 1.08633,2.01744 2.79341,3.72452 4.81086,4.81091 z m 7.29389,75.26672 c -4.3453,4.34535 -11.32881,4.34535 -15.6741,0 -4.34528,-4.3453 -4.34528,-11.32878 0,-15.67406 L 341.0341,150.13586 c 4.3453,-4.3453 11.3289,-4.3453 15.6742,0 4.3452,4.34529 4.3452,11.3288 0,15.6741 z M 275.38918,277.54604 c 0,-6.20751 4.96604,-11.17356 11.17364,-11.17356 6.2076,0 11.1736,4.96605 11.1736,11.17356 v 116.8574 c 0,6.20757 -4.966,11.17356 -11.1736,11.17356 -2.9486,0 -5.742,-1.24147 -7.6042,-3.10376 l -57.88556,-47.1775 c -4.81091,-3.87966 -5.43167,-10.86315 -1.55194,-15.51885 3.87973,-4.81091 10.86328,-5.43161 15.51891,-1.55194 l 40.50435,32.90012 v -93.57904 z"
     fill-rule="nonzero"
     id="path7431" /></svg>
