<?xml version="1.0" encoding="UTF-8" standalone="no"?>
<svg
   xmlns:dc="http://purl.org/dc/elements/1.1/"
   xmlns:cc="http://creativecommons.org/ns#"
   xmlns:rdf="http://www.w3.org/1999/02/22-rdf-syntax-ns#"
   xmlns:svg="http://www.w3.org/2000/svg"
   xmlns="http://www.w3.org/2000/svg"
   xmlns:sodipodi="http://sodipodi.sourceforge.net/DTD/sodipodi-0.dtd"
   xmlns:inkscape="http://www.inkscape.org/namespaces/inkscape"
   version="1.1"
   id="Layer_1"
   x="0px"
   y="0px"
   width="540"
   height="500"
   viewBox="0 0 540 500"
   xml:space="preserve"
   sodipodi:docname="speaker.svg"
   inkscape:version="1.0 (4035a4f, 2020-05-01)"><defs
     id="defs976" /><sodipodi:namedview
     fit-margin-bottom="100"
     fit-margin-right="100"
     fit-margin-top="100"
     fit-margin-left="100"
     inkscape:document-rotation="0"
     pagecolor="#ffffff"
     bordercolor="#666666"
     borderopacity="1"
     objecttolerance="10"
     gridtolerance="10"
     guidetolerance="10"
     inkscape:pageopacity="0"
     inkscape:pageshadow="2"
     inkscape:window-width="1125"
     inkscape:window-height="562"
     id="namedview974"
     showgrid="false"
     inkscape:zoom="0.32783691"
     inkscape:cx="605.50106"
     inkscape:cy="316.50405"
     inkscape:window-x="2433"
     inkscape:window-y="668"
     inkscape:window-maximized="0"
     inkscape:current-layer="Layer_1" /><metadata
     id="metadata971"><rdf:RDF><rdf:Description
         about="https://iconscout.com/legal#licenses"
         dc:title="ios,arrow,thin,right"
         dc:description="ios,arrow,thin,right"
         dc:publisher="Iconscout"
         dc:date="2017-09-24"
         dc:format="image/svg+xml"
         dc:language="en"><dc:creator><rdf:Bag><rdf:li>Benjamin J Sperry</rdf:li></rdf:Bag></dc:creator></rdf:Description><cc:Work
         rdf:about=""><dc:format>image/svg+xml</dc:format><dc:type
           rdf:resource="http://purl.org/dc/dcmitype/StillImage" /><dc:title></dc:title></cc:Work></rdf:RDF></metadata><rect
     style="fill:#000000;fill-opacity:0;stroke:none;stroke-width:22.5106;stroke-linejoin:miter;stroke-miterlimit:4;stroke-dasharray:none;stroke-opacity:1"
     id="rect8876"
     width="540"
     height="500"
     x="0"
     y="0" /><g
     id="Layer_x0020_1"
     transform="matrix(0.11663545,0,0,0.11663545,91.45129,94.39373)"
     style="fill:#e6e6e6;fill-opacity:1;stroke:none;stroke-opacity:1"><path
       id="path7294"
       d="m 1143,1509 709,662 m 284,-173 672,628"
       class="fil0"
       style="fill:#e6e6e6;fill-opacity:1;stroke:none;stroke-opacity:1" /><path
       id="path7296"
       fill-rule="nonzero"
       d="m 2268,282 c -53,0 -95,-43 -95,-95 0,-53 43,-95 95,-95 356,0 678,144 911,377 233,233 377,555 377,911 0,356 -144,678 -377,911 -233,233 -555,377 -911,377 -53,0 -95,-43 -95,-95 0,-53 43,-95 95,-95 303,0 578,-123 776,-322 199,-199 322,-473 322,-776 0,-303 -123,-578 -322,-776 C 2845,405 2571,282 2268,282 Z M 303,630 h 702 L 1603,28 c 37,-37 97,-37 134,0 19,19 28,43 28,67 v 2474 c 0,53 -43,95 -95,95 -27,0 -51,-11 -68,-29 L 1010,2136 H 302 C 219,2136 143,2102 88,2047 33,1992 -1,1916 -1,1833 V 932 c 0,-83 34,-159 89,-214 55,-55 131,-89 214,-89 z m 742,190 H 303 c -31,0 -59,13 -80,33 -20,20 -33,49 -33,80 v 901 c 0,31 13,59 33,80 20,20 49,33 80,33 h 742 c 22,0 43,7 61,22 l 470,396 V 325 l -459,462 c -17,20 -43,33 -72,33 z m 1176,5 c -43,0 -79,-35 -79,-79 0,-43 35,-79 79,-79 202,0 385,82 517,214 132,132 214,315 214,517 0,202 -82,385 -214,517 -132,132 -315,214 -517,214 -43,0 -79,-35 -79,-79 0,-43 35,-79 79,-79 159,0 302,-64 406,-168 104,-104 168,-247 168,-406 0,-159 -64,-302 -168,-406 C 2523,887 2380,823 2221,823 Z"
       style="fill:#e6e6e6;fill-opacity:1;stroke:none;stroke-opacity:1" /></g></svg>
