<?xml version="1.0" encoding="UTF-8" standalone="no"?>
<svg
   width="512"
   height="512"
   viewBox="0 0 512 512"
   version="1.1"
   id="svg2"
   sodipodi:docname="videocam-outline.svg"
   inkscape:version="1.3 (0e150ed, 2023-07-21)"
   xmlns:inkscape="http://www.inkscape.org/namespaces/inkscape"
   xmlns:sodipodi="http://sodipodi.sourceforge.net/DTD/sodipodi-0.dtd"
   xmlns="http://www.w3.org/2000/svg"
   xmlns:svg="http://www.w3.org/2000/svg"
   xmlns:rdf="http://www.w3.org/1999/02/22-rdf-syntax-ns#"
   xmlns:cc="http://creativecommons.org/ns#"
   xmlns:dc="http://purl.org/dc/elements/1.1/">
  <defs
     id="defs2" />
  <sodipodi:namedview
     id="namedview2"
     pagecolor="#505050"
     bordercolor="#ffffff"
     borderopacity="1"
     inkscape:showpageshadow="0"
     inkscape:pageopacity="0"
     inkscape:pagecheckerboard="1"
     inkscape:deskcolor="#d1d1d1"
     showgrid="false"
     inkscape:zoom="1.2421875"
     inkscape:cx="256"
     inkscape:cy="256"
     inkscape:window-width="1568"
     inkscape:window-height="849"
     inkscape:window-x="2176"
     inkscape:window-y="248"
     inkscape:window-maximized="0"
     inkscape:current-layer="svg2" />
  <title
     id="title1">ionicons-v5-g</title>
  <rect
     style="fill:none;stroke:none;stroke-width:22;stroke-linecap:round;stroke-opacity:1"
     id="rect24508"
     width="512"
     height="512"
     x="0"
     y="0" />
  <path
     d="M374.79,308.78,457.5,367A16,16,0,0,0,480,352.38V159.62A16,16,0,0,0,457.5,145l-82.71,58.22A16,16,0,0,0,368,216.3v79.4A16,16,0,0,0,374.79,308.78Z"
     style="fill:none;stroke:#cccccc;stroke-linecap:round;stroke-linejoin:round;stroke-width:32px;stroke-opacity:1"
     id="path1" />
  <path
     d="M268,384H84a52.15,52.15,0,0,1-52-52V180a52.15,52.15,0,0,1,52-52H268.48A51.68,51.68,0,0,1,320,179.52V332A52.15,52.15,0,0,1,268,384Z"
     style="fill:none;stroke:#cccccc;stroke-miterlimit:10;stroke-width:32px;stroke-opacity:1"
     id="path2" />
  <metadata
     id="metadata2">
    <rdf:RDF>
      <cc:Work
         rdf:about="">
        <dc:title>ionicons-v5-g</dc:title>
      </cc:Work>
    </rdf:RDF>
  </metadata>
</svg>
